<mxfile host="65bd71144e">
    <diagram id="pFEh2C75fhEGuSylCJD4" name="Page-1">
        <mxGraphModel dx="900" dy="1074" grid="0" gridSize="10" guides="1" tooltips="1" connect="1" arrows="1" fold="1" page="0" pageScale="1" pageWidth="850" pageHeight="1100" math="0" shadow="0">
            <root>
                <mxCell id="0"/>
                <mxCell id="1" parent="0"/>
                <mxCell id="31" value="" style="rounded=0;whiteSpace=wrap;html=1;fillColor=#FFFFFF;strokeColor=#36393d;" parent="1" vertex="1">
                    <mxGeometry x="102" y="-42" width="534" height="743" as="geometry"/>
                </mxCell>
                <mxCell id="14" value="" style="shape=image;verticalLabelPosition=bottom;labelBackgroundColor=default;verticalAlign=top;aspect=fixed;imageAspect=0;image=data:image/png,iVBORw0KGgoAAAANSUhEUgAAAGgAAAB6CAYAAABTAhYxAAAAAXNSR0IArs4c6QAAAARnQU1BAACxjwv8YQUAAAAJcEhZcwAADsMAAA7DAcdvqGQAADURSURBVHhe7X1rjF3Xed06r/u+d2Y4Qw7fpChSz0hyJNmKIydOpDpI4rRpg8ZBiwTIjwIJWrQF+qf/CqR/AhRIijZt0KaNixZpkxSw6xiOY0d+xbJkvS1bFEVTFJ8iOUPOe+7rvLvWd+4lR9QMycwMFYrhR+655557zj57f+t77r3POc78/HyOO3TLktPr9T5UAOX5leZeve04DlzXHey5PehD1xuBMCwC4+rt240+9OI2BGhYbje6vezBbUh3ALrF6Q5Atzh96ABStLayZFl2uej77UYfmjB7JQArgVi5rUjO87zBt9uDPjQadLW2rFbuaNAKSnlWwhIwsjWU85QMyuwT3Od4BfbZQAYUADMQBtNJ2GEscCjx/DlPl60Sxykjc0ro87elHjCznGNusY/lfoSZtoNFNrUbRViOQvSiBJEakXvw3QCeE6BO5dniJ6iUXYw0AoyPeBhvedjCMlp3US07CNgCT62xBqioDppLtYmNcPySHeFm3K/DWBI7Sr8CvrZ1XRbH5wVd9ezm0QYAypFQan0xWTusn+olpVlt9vVHkFCy2bVEGpDqu453ip+NSTl6NEtLfeDiQoTzMx2cn+tiai7E7HKMdgjEiUNAHIRRhjAhMHHCfaxXp5NlLkF13RJ8MrcUqPaY30OUg5hAORgfDbBttILRkQrGGiUcmKhhvEHgqkA17yOPe6yLlXlloNQwQIo+iTUpBWeFmFEgcvZDnXSEVvHDTaN1A5RnMUvEBgbsgKROXSlk0vjGPggDtV8lT3l8ys5KOr3ANHB+KcGl2SW82RvD9FKMqZkFXJiex8zsMtrtCGnKY/0qL1FGHvWRJboea5Xa2ciBaiYrM5bc5XEVeKUaUh6b9Ls8nui6OYKyh0qtgmq9glqthH2THrYSuP3jLg5s8bCz6aFZ9ei/fGSsVwDFaQ8lbpfZeuLD+nldNdoPEPNylBmUuFsY3Uxaf5CQhQSoR1NWQeqwaBeLKhMwKsOKfZoLjx1GnvC/i0u9AMfnXHz/bA/Hzy/j2NkFhKH8CLVMjBDTHWoCtcIh0xzXR9xZQBr34VFDvHKJn2QNGcgTCAS1ifY2d2h2hJmIgOUsJh6sU5pLRPmdLc3m+D3G2IiPg3u34OG7t+HQzhomCdoIlUjaHYfnUavUaBKpZjl3snNxzNMDVlN8NXBM024ibUCDIjK0bxKestUCSBWpwT63HP6WxxGcoE4s++wcTVnm48RMjOePzeO5txZpxnx4la2I2tOFGfH5vRTYpxC2wCBNWAieHB4Z7QogguN6YjYZlcQEjsfEKY+jxtBkSbMEqmyQ4xJogc0igPIsRdRbQKnS4vcASRyiRIbv293Ej90/gSfubmBPy8FYac46FCa0Dl4DPo8xRrGjPq/hutLmCndIj24erd8HsaMJAwLPK8wbWUm9jwqoZBPMpBEg9szxx/C9izm+9MoiXnxjCksLGbWgTn7l6C/Ow/Ml3cprBjpI3rs0Y6YtjEJcalGa0Pyk0giNWstl8zheP6PZNA3ip0dTKMZnmUAtimRdWiWH7gbSpgxJe4mKV0ZQ2QK/2jRTKCFxs1ns31nGj96zG7/w0BZMbqkjqPFctkfhjcu+eSw5r1dESIWG30xaN0BqX8RSYp/V8CTs0TTIxEhS2Wg60yTx8MJMjtePLeKVYzP0MZTemIBRcnOaO6Qddpym0m3weLKAzLNQ2T6HOlk0zyXQruU4A3BUzIkXv4scVCjZ9eJcR1ElheRy4T6ZWB2eVs1MSpuSfs8AktaWamUTliSKsW/MwZMf2YsnHx3BXaMMJrDAExnJ5NSafMQCF3X1Zqdd69cgniWQBJCTk8nmwGUOylimpZmaB94828cfv0yHv7SI3nKHTp9BAk2PEkpCSeEuLh3UmvaZJdIIRWdiJv2GAgErHvfTZOa8hhF/M7EuzNzgY1A3wTcNIkD8HAJtvklt5YbrjvF31sV2O46Oof6b8vI3v2aBRk5/16hFuGdvCZ94oIXHDzSwo8HfqZFhzIoY6EghVe3NpPX7IBX+kfaoo2aeaKvn2O+3zud44Y0lvHzkXUwtk3uF2Np5wkUmy2EH5RdyBQW5wlwylKgXjBIji+DAjuVnmrT5mxgqwARQ4VN0bKF1ugaLQLAtHsdS7OYe1mvb3HQ8iQc3rB7tp05KMPgpLZUfBOO3pN9mjtXHrq1lfPTebfRRW/DAbqYIFJTAYYCkAOJvwgeJRyJH3GI4Lfud0/UXsniFHHbIp9pLsh23hguMzl4+lePbBOfID2eoOTQdFfoAE18xQtwZaoaiNO5nhWm0zN/EwcExYp+AGDh3aUsGSTxbYPtVj+o07hJcFjufFZiZLc5VJGiI6SfJkR3HDeZILsNlO4bXM4B1cZ1rvWcxASlRq62BaDIUf+Secfzs4+N4cFuK0WCJVoN8YRQrVUqprcSdPkohks51wNTNaCMQrgrQQNbhyskmlJRSiaF0id5CrtK6LNawT30EjJyUP0z16vjmsRDPvDqLEyeXiWvAnI9JXzSrIzdOAnbQYQNyuHH5Q3+GB2yc4l4b5foIo7cm+5Dy+xLKpR5D8hp+/rGdeOyuEdTQJTNoTiuClUk7GVeysJyQsCldBZL8ZJyxbloVIO2QULnyBa58Qk6A6PS5X5GRx33M/czOL/QcLNExP3u0gz/7+mG8+26XHZtAuTGKsL1MId4kpq0ESMT2FcFCsV382TyANLogLfIrTZq8OoPSEL2FKVqVWTz2yF586sn78cQuBy2vj9SNGdARlJyBBpNm8S6NaDmC2CLRImNaH63ug3QFFv0ghW93unSsQL1K20yNUWM9csstj+B8GuBzL3bx5998C8tLCZko00FcGQ1VqEFhV9ndxsnM5JD/ZpL08f6mbxZ5HrWmr0DDIZMZ9ZUq3E6oTR1U6j5Gt4ziMz82hqfuKzOYkBzTFTBAYQBowYMnacYSsaG5pW9eL8larUKqnYVMSYmMhlp8Ok+Hdl723S8znK2M4UI3wJdfWsQz3z2Nboc5SG2cmlNnCCv7zxqUL9wMGqjSlXUIQ+Q2j8JOXITe9Rr77zAClUblqLQYAdJoTb+7iC88/w6eO94Hf6GOMKBhYq7wgsGonBGJ7B36i3XS6gBZaCqryvr5p1wOUA0CZCHFI2MY6zVxctHDF5l4/sWzxzF7kTlQtc6jY2bpTAKZ3bsMtzOFo5tIhMP+FSZt8HlZiTYXKJ+JtEZJLJChsOYM85NwCVFnnv3rWdJ74VKGL78yje++Sc1SsNHr0rJEKNOiacDY8jua/43Qqhy0kJfmwwAaMoAXVLIYumWcXgS+8eYy/vLV81hk5KYB0KTPSIzRjkuJViSmEV8v0FDI5pOBNNga/h3u2SzyKzWaJoX3CU16RJ7QhMmqMGIVQDmT7DT18faZNp55+TRee4fJX5kZratcj9vUIP6MbIM+eA0NGhTWLQuSRkXC59DUXewA330nwbcPz+LiJWboboXSRseogILVeWWNWzXYOeUgbOhNIzVu8Hm5bB5pYNZAIYeKAdtiJkkDsCa8inB5yZhW4k1GrV96ZQqn+4zcEiXhtCDmIsjGDTZrdQ1izXIfNrrOI7wiiUCvn+HImT6eP3wR56Yi+My4E0oXj0RQ1fDJCLVshJpDu01JyiINj9wEYqcv91sbG2TCapSlXXaZHCc3ND2iUXtHg6OOhpzUVwlhwv466IUVvPx2F1/6Xh8XwjIzNuVmHXiMfs0VbYBWD7NpqkIilDBRK9PW+vJ6Tow3z4b43CsLePEYHWM/YGTjM5RWnpOi3JwgMC1qm8blGL1kywwsYv4yquYawBS94gLG1AFnbZeMabHLY4cDRqxK5n1u20gCw12PiZ/KStIkm013s25JtY2YU4iSmG2IVaeCFcmgElRdX/3QdeTK9bvaZf9JCjiU4GqbqWaJqUVM30K36ygA8AWQ2K1EWAOvHvs6x2p0gvrNUNubxb/89Ufx5P4Y9bTNswhkQB80UAO1sQhqrpD2qay1ZHmNMLu4rmI58ph6GyJhJv37X7+Eb73hYHlZNlkTYuosmVjSJJxnwUEa6jc52QpKtONxpAZoxLkYtBRjXDGCJrAYtpHJ0AwoUKl62Dbm4v5J4Ee259i7pYxKcwQZk8UxgtYgX3WccFKj6R7Q7/UISh9hGOLETIoXTqY4dWEJZ2coZCmTRqdSjG7HbC/brHO9YJwVhKyD+zW6IOtMdnplRqvsizqWJmq39q9Nrl8ieOpbxOO5g/Zsz94S/tXfP4iHtxJw9Zt91NSVmUUKkxa1DEHS90Q+jvlklRZoNVodIDJRY1kiDeekdPjPH+/iv375MGb6DcRpGXGnQ2YlCGoN+iGfQYIiHTaArfE0n8PGpWHXpMzx6ozyxqhxDUplykhokSZkGa0RHzsnR/HQ3hoeuW8SO0YdlNnoMgPX8SZ9m5Oiw2S3Xi3DUbIo8Veb7G8BEvlLIaDGsKNJRqdOBmjG89xCjud/MItXfnge07P8PauxXU2ezGiUYLk+tW3pko1eexQmNrIAivVJi1PZ9+sgJO2W75U/KoaocoyyDz/70Ul8+tEJ7NWUk7SbgAggASGAVmrLcMGLL56tQqsCRNbS7xQNlp29RBPz2394Cq8cOQO/oTmQJhkvtWdEY6PPg/EvmQB2VEszZJbU2bi/ZJJWqHFKUAIc3DuCjxwYwb3bAoz6fbSYa4xVcpQc2n1KY0ImppqnYVtc/iknS0zqq8joqFcj8VGdcPnHoWOPI2mHg3bs48yyj2+9OYvn35rDzCzb7EhI+iiP1NCbnzag/Ar7xPanNIsaeyvGDlWjytokRSj6L7B4DvMk9XFyq49/9FN346fu9tEq02ow8h0CIXCuNmfizdWmb0irAkR5gEOJdBi9UdbwzBkX//mP3ka/TztbC9kZmg0zH7y2rwUVCj373Mfw3IYGmT+wKNTOGI6WGh4mt1Vx394mHtpTxcEJH7saGUYDRUmKDms8VnMtZjNpFmroEoyM/VBtZe5XKJ8NOmGACAxdf0W/LLBJY1Qc1sNwOKfvTNwWzrZ9vHKqj2d/cB6Hj05T67YiqKv9NHEKmelfixlamttUgilBM5tl9a5NBTjydQoWxPck0o4En/z4Lvzq41Xcs407CZBIQIjWAmM1WkODWBmjM01mHV8s4z9+5QKO0bYbIIrxdYStF6BUJyFB0DTzFQNUhKLMrWnPD+z2cWjvBO7fXsY920vY2cjR8AWEuKwLsQMaBqYWxhSIUGbSD1CuaGKvCGd9k04CpsN1KI+VNJr/M4m0C5vPZJxAgFQlhSZku7Rmwivh4jJw5OQsvnvkPL5zsoHOwjKqY+O0BD1qTpfHUdBofng2gdWItKJT4/41SJyST2Egw1M9gpxQa1Oa+x37PPzak008fV8L1bLE7L00BEt0LcBWB0iSSPs20+7ga2/k+OwXz8BrNikt+oESnrcp+ZpiKLODPD0vUYIkJZL0HmrVDJMTFdy9s4VPHXSwd8dWjJBrZQ1QKbLgKU5QZVUOAVHHgEuMyC/MMAOmtuwZL2P7KEHOKN0JnW2pSYEYmDeemw7MhdCSaSocr/3EdhM4aoI0S27E5IBFgWjEi52dC/GHL/Tx0kuHURnZRQFgMKB5JmqyHcgw2nEoeNLo6wHkaOhLUaauT/OmaZmM/aIWue4snn6shX/4xHYc2qo63wuC2r9So9aK4lbdqzn3iD7oVLuM546SaTQTMgVyShntTs4SMwDoty+yUTRDDeY/WlPGC42OlvD4vSP4x09ux28+tR2P76tia8CQUxNustcyjzRpCY+VxCe0+T+Yz/HVoz08e7yD0+0AfZ+Bh5ZyEZzcr6FPcCSr6qL6KY1S8VSIBI8qfktD+AzxPWqEoSWQ2ENZLCqRzensmazh6QdHsWtS9XfYJTJTy7UGflLRZlEZy3WomFTUgeJLMbAqiZDwhr0ujl4IcXQqRBRpgc37wdb1hmUtWhUgN+9gucukdLqEE+e7qIySoT02XBWZ5tB8BSMIKqMMp+kAo1maxPO4Z4+LX/2Ze/Cbn96Pp+5rMAOaQzcjcJUR+LUWwQkQ0jxp5WiHHJ+m2Xn9+EX8jy+dw9deeodOHdgxyZCa0U839THddtChyRGQV3dBEjeMiIbSaYEJ8xVJjUMTTffI4LkoOkIsqvHnT+x38fRH72JYry5Jc4ggz3EHzLZ04BpMG5KNMLBl0sCcplgCKHMZ9y+xLRmm53IcPtdlWrIMWqrBWQVdMc/vDxpW0qomLs8W8L2TGT77gocjx8n8vAePQUGqfEUzpK6CgCY/cyaqFzA+EuFnHt2Fp39kEvvHmNa50jbacEZ1IRqo0HzIXKnzWuQ4G1bx6tkIz7x+Hq++fgL9ToiPP7Yfv/yJ/XiceYTHaE7c1IogbeT0E9KobOBs1bmVZUgyaTJlivw8tlXrDXRNq0wzuPRtylXkX98O6/it//0Ozr2rYwhOkJJRzONYQUaVKyK5a5NXJsKZBlGpifS5rqcIsY1o+QxqWyZ4zQncd9DHv/4JcosuYmSEgrpGOL0WOQsLPa3zMOnSlJzHCy3S/H7htRn832ffQS+ilgRb0JubRZnmS85Q1i7udhC4S3j4UAu/8slDDJlLaNYo1by+TUuw4Y4m++izFEzwi+UrJ+YTPENz9o3vL2GJITA5gW3ZD/CZn/kYnnhoDFso4b7lC2KsNFbLNGTGyDDLNQqA1qKh4Euy7fyVxPNkhiL2z6tE+KOXZvH/nl3AzHRI5uZkuJYQM/NnqJ4Nk6JrkECkUeRhKmyTvnNb80YWdhP4Fq3P3/nICH7jp6r0wcsU2HFGpTxcckFKeFjgskFMqFcjV0vY5EiVEZu0cvtcG3ibjV6an7eG6+KaVdTaak0F59k8du8O8AtP3Y9f+uT9TDQrGG8w+yF4amdCpqYChQ3U6picDZ+n1XjhRBuff+4E/uq1s1iYo6Qyae3Nn8P9+7fhwM5RNJQvqi0mvWwRQ32BY4OUBOhqjVmN9LMdYhusZ2VhXXYMN30nwv5tdYy3ymy36i1+1hyQ2nAjNFxHwbN4rioo8hmN3Unc9b3fS3B2JsbckqJfAWq7r5BdV+qxOpn1EwY+NJzOUJfIHj6d453zMhH0PQxVs1iLLMg9opeE89i/3cE/+PFd+Pkf24JH9vuo+5S4WGquPGhgaohUxuhOCy8uUeNeOJHhS69NM2FcxuwiNYf7o+4Mqt4cfvTeXdi+Ratl2FYWVxknayocq1pVMHYzSHy0WWjWumO8he0TdVTrGv2QLxBCMsfX154bpYSpw8WZJRx/d4nfaoXTV9XqkuGqa61NzM/o5MhRrVUWtUMGB6fnMTOXwa8qTyCjqAXF0qhlHDo4hr/3xD48dX8TB0aAkSDiMUu8pgAdSNSgbwlFteM08dwPl/AXL50i8H10YkZ8wTiZQZCyNu7d08C9e8cwSoWTVXMVhpvBVTQkTm4eOJdJVbLf2xiM7NtaQ7MuiRc4vKotaWYbNgcfswLzC138kMFCmJcLvZLmsY8Z21AAtPbF1CQeWySfTBEZWUWU8JAJlwZAW0w2GWITID+ZoRly8CtPP4RPPTqOrcx1Ssx5aNEt99BaMgGkoRa5QZlg3TryHLXxz188izeOzqAXlhBUR6mNWlzIjL/i4uEH7sJEw0eJ/JEW01ORV+wARd0PBozbbBJ/WG+dVe8dp++s0hTTOsg8pVHXorHNQkj1aoT95ExK4ZQAal/KHJDuRPyy66zdxyKjM4fIRI4sOj0TostM2Gw9s/dSvUHYQuzfEuKf/dJD+PhdDuhurE4BmkJrETSTyDyCzt2h9Cmh7dCsHTmziM9++U2cuaRlSYxwmPMkYds0LmEpl108cO92VCw4k2MlkzQBZaTr0+/Yv00k8sNuwGLXGfRj54jP4EYCo9+Ym/VpKfgpm7IZpDwpZX3TDIgWLJCVIDAcZzeLtIl/FOavQQVA1hgHbbb7h+c7uDB1iQlbB16QMFqbxsE9Af7tP/04HtpKcAijgZBrTWmJeU2ASKPIupCYyYyww9Dk1RPz+JNnvo+zZzroMCAo1SdQYagZdRbQnj6FwI/wALVnTMuyzaRQSDQeZmZN0RA/BkzS4GexEH7jpGqLQSlN1YfUXo8mTtEJAxGBp/Bcw1iDa2+ULDahOVkMA0wv8AKpXIm0RzkUw3kZvXwwSrIKSUStcRkbPE9Xc/zCMjVIk16M1qLz+Mh9NfyLzzyECWbi0hfrIuvUaSVKXcCvLqM7ZZOaFg7J4KMzOb5yeB4/OENWMKIpt8Z4tM+ggJ0ngLXRMTQaAXYQnD01B6USmUOfpGhNQ6+pemXfua0OyWmLs5tAMgwKshKtv6FQaI5JAPllDdhKPjQRObilYVOI5ozt74QOzl1kAKKRCqqrFFbFmKnxyDXI9Ecwy1x14xwXF+h/Mg/VZhUH9rXwcx/bhYMMBvJ+aGHEsGOaDpYpk7+xOxzIwIR6e3qqj+cOn8Phk11ayF1MzDSEzygvUX4gqVEu5dO8+dg5VkY96bMRuUl1xPo0WCptlHW2prHewPPeN5u6blI1Mi+2QbGkU6hWBVBVfCM4ujns/WNn6yWLbNPIxgFn5rSwRtanAMiI/buW7Lka0s89BQk5zpwO0emO2UTZPXs8/OzjB/Dwnioh6TMMDW3YX4BkGlDU4JYiQNWukQNq4Rw176uvX8K3f7CAKGHSZ/lFzJrb9C2hSa5GjbN0iXUu4u59o4ip/tKcYoCT4S5LodZFw6WVGlHIqZnS380oDrWylJNZFAiLpLiNbIFtlSTL3MlZ8OrmhzdWNKCskZc87eK1CyEW6LNz8i4gL5Xdqas6dC0iL9hIaplisrffOcd2lbBvbws/+SNb8fjBElrEQXg7TB6UH3jslOU51hkCJBGnk0v5eYT+63snF7EwTzYwpHSYDBamSsMn9COM3LRtV2N9tVH6vaCEPg+LKWFaz6Dk1dZC87ukLtIMLL/3N6vQSrQJumZYw6SJWUarESXa10hCqcI2B2wrAWNLxbcNFwqzpwX2eYTppRyL8je8vk9eujLfFs1JFFcnp9dd5q90YlSl3/ovz2Eq3Ymf/NFtePqROiaZJ2gmw4u1IEKVKHnUhJpMFc+SQ/W1QKOGU50u/vSbF/HisVksd2UGebLbNxMl/+5qVlGj2XYLSR+T20r4+aceRIvC4TL5pQ1Ue9Yki0E2gxgApPURBOyTpr6X0zJefaeNY6c6NNH8LWLCHRMgGwnZhIsScNOQbBH1se343V/biru2aLRCkbL4YnrEK0ng309Od2mOXK/amq7f/oO/xL4H78enn9iNe8eLxslx+txU9KsxNjPUVqU2FQQwpGaG/PlXZ/G5r5/B/GJkTjbPtaZfU8CUSJ5S3FjF4CPUaK9Wn3bRHK0wrOV2sI1mQKJwDSouuQmkNlGT40UKWEjfU0eUVtnGSjH4qcUksdZU18jA1Zn21yICpGs62RIqra34nV+dxEEK53Dd3HAkey2A3DyiA6PJnSNOO7ZP4Ccfm8DdBKdMxxYwC6aAs5Kh/RZKJg78FDhEP61hjpr6rdf6mFuUNhEQhtl+ic4wZerZ7SHta/GIhoJ6BI9WvtVCfXwHMpdJa2MfgkqNjPKvX0qbUAiCX9sNp7wLiTtJk9dkBweLLdlbrUmIQgmi2LMZpIpoOfhhC2ZYtNBFPtsQMlr7YhqAsoSJOSYef/hu7G2lqBJtDVkLZRsA5YHSm/c5M0pYlz+8+NY0zlzo8Hcmtb7WIksaNBHmIWiQKUzZ3VLEhnXoWxZMg9K4x23NZMrmM5kjyB9MoRBp/Tjtrs2G0sRoUYvmtTSaXaq3UB3Zavs3hYiMjXDzM4kT86c2UCFwyFD+Yv/WItcplcEgAyMjDh6+awQTZYa0QkKjugxtZdYUImuIwvDRb4a+klMPFxkAfuPFWYJMf0NT51cq7LBDEHQcQ3ZqDkMAag61sl5GmeF7wE+X0qwF6FqbZtqoYY9rFTZgM4otFGEUqXETYSArljOAicM2zW2Hmq71e4pVrbebQGT+ACAthBRA5iVYvcKQa8NDgJQgZjQ7k8wltzdzlGJWltKx2eQYeyA/o6lkMlJ4W82auWRpM/o6Ot3H26d1pxl3sVhozdBZpkJ+RlfXtgZddZ9xsWqGDaMY2Ry+xNoiAGnddYousMGi/EYTjZqv0Zig8h6LZBkGZ1oDoYlGft88EvulReJHxvSD17qMSAFQcczq5HbouGl8UPOXUXKWbcIut2lmaogxRUFC4YEEfUQJ64Z6kBHQ7sc4cnKJ4SojokimQverUkJYhxZhpH3mT3I6DN2zmPUmChQYclIicia1HkVY0xkKNtSBaxXrhELCjRaxxFYdKXpi/kUTq/0axVbO5jCA0Gdx7GYR61I/mJ9oQeQQoOKjaNNaZINeWr6hQRY7jlm0cFEllglI6mij9aljU4KhouVfM+0Mbx6bYqBCLYw1QqB1ZnqmTkywVAfPIdBXbujVVLKYIg0kg3QNE1aNI0hD1y4aw9iMQvbwk23RtanFtpbPBEBJtTRZ5ojH2r5NIvFO+SDrDOXwtetyUfwmk7o6uU2qeYvZjosRHt0yPkoLNC8j9uZipEaqbV2ai3IpQKNSZPWnF12cPH2WTK6auciYR+SaD0/bPNGjGyue+mEdph/Kcy1u7PJTwQETXkaJWsNdOAMJwzWKumMjvxsrxhCaN5k5axPNt/Z5mpAkH3LdY6rObRbxsloaprsUlUqG4qozWCNOLdUYCq5xo9uqv0iSLD7nuUPSpvKC4rkFHjrMm6YWNZ2teXyaLlMHHjNktvRvs8bP/hbT6gARHCvaHhQBYCZA6kqtmu3EeOdCmwDpTjT5GZ2p82TGZMJ4rKzaHdoQra1booEm2Ap+BhNSEllwGazZdoIzUzRljNFtuGJgs82/mOZIg2zXHdoArcnCgt0kM11yplphUwCkAGFWU+NzWi6kKEgHcqc+CZAy8kLjtP8GSJe4TUvxZ/20KkBWr20Mt6RFgqb4FjJVmGMS1O8KBIGhsFR6pV+VfLJaO6045/p05Tq3X9kYXVODCrMlEJQ7XDFxnTBFuxsWX6glunXEbiNRgqeDGC3ZxwDUv80kDm6E1tSg99U80IaE+7v9iMkqtcYCApk/Bo+6O4CICVS722wA0g0RjyvOu/3KRmlNDTKy+ocXKQ6VUvT1SOSYWZFCcalRpuzbfhWntVEwXQdf3cihX+J+3U+j2yg93eXmO7dl0a01Vph3lSx+0vDOSraTP9fw1WvcwKUqmL5p6tTr2XIsP1MymyPlhV4+0cUff2cWrx/TExNJK6MBbuubVUqt03N97Ikd3OMHiuwcRD1l6gnuP1DDWOcw+qP32W0mtyMFNCwBnXYStTExWsLHHjmABw7V0WJeXKT+GmQWrd7/6wPkdhExUrsCUIbnj7XxJwTo8IlB5asAJJLfskdllpsGlnv5LjYXrdEq/u5P7MIndiSoVXjOyjpuI9IgGmNdaHFumRqkZWZ1po1aqFncKacZZvZ/jaeyXBMgu+nTIUBegCDTE6RzxIzWnj2ygD99bg5HtaxKJ1wDIN1iGNTGbKCwuA2fl6N5a474+MxP34XPPBIUd95ZxHH7kRa79JV2cFuiqVE3G2UaBr0iMswmXleha/sg1lBEYlcw1P2hSZpC99HcEOniNjykQi201UAuon4PizNTKOnh6BoAdLT/9it6jKebzqCCJZRAl5B2obsTU829iITACvm+mlYF6AocIoI02BqS1XeNSleSzbso2hsUm4PR7YbEfXFJE2ckap0GeW/LomW9mYZEi0IvrFiXu8hXBkeSzWupyRo/DUGRb3jvIbpFIyCTfZbrE1u4kjRXZHM/NKOpg7nlBMspJY37XAYNt2PRM0wdZ5Sg1FnoZ+w5PwyaSgwRaOsiuozYlelfndbQIP4jF815UQOKfcUfj5BXqhVUKqs7tfeSZhG1Jk4GV8DoKfGhTStH/RxnZ/s4s5wj1Awr674di+636oeOrfngV1tTqBvaLmsS+cJQyri1Gq0OEGu+kmRRC7hpF6Bd0l6BU6ndQFisxtCUZXreWq5kNta7KWzdgiK7+baHI1NAO6NPoo+6HYtW3VRpJLT4RszW63xk6FQUMGgdraeVo2vQqgAZXQbIXISskAwq/yipdFGyZ0tfm7TmoDY+bqtltPZAbyQpprglAB7aiyHePDPPHCHSU6pvz0KhDAJNCqowoec+l9LuaM1ARKASn/kQEVyDVgXIpxnzNEqgaQOnDD+XzyE+jkxWhl21BPvH6TcIQKbHCuZlAqCoRDkPXaHMH1G118SENGt6do6Gf+xmYtpei9xCBNUmXjk6j6nzF4r3A1GeItaXdpaR9bR2mmmcnvphq2wkZR9c6fc8xLE/mLZXJKv+UbiSLrSWMNfqHO7Rug09OyKL2M7MR8hzErY3kxXKFlm0qknCrFLUXQRLRbGnIvP/WrQqQJakSm3sRFakPY5spUxWjpqfoVWiJDBp9Uq6K4DVSCsUAPAYW4NgJxc+SPv1vZjI47E2p8yuBQE6SxFefNfD6Xnd8qKr8Ry/hjxoCmOaBIb1rLR4bc0HVzTycWVLPkOLaQLmNXL0KmVQ7uhTNRrA47SsiycYj+xE8kDPz7Z7f3TEsPBHHXhZAYpda5HOuCGygGFFkU0NGCYGMnWKJ8VaOvtMT4yylXkEVjb4BugbR3O8dlYj5CaPVLIyYqkswdSDmgT0tTpxM6gU6BlBMkkCShpRonaXEfIzVB7H/jvUlMDeyMI2+7QSTps+VreFyldLsxoUzo0NYd0wQKIhOBokbZQ9jDQFim5dkcZoXYK+U5MUqrDq4smG16dzp/r4ztEuA4bMTB3ZoZut0WFwo7tW9foBhawfJDl64JON0LMv6o5kjl+Vtxf6Lwc/+E2FJBsjAcsYEMUU1EgrZk2d1k9/bYAEjj63tirYt62GsD1vNlW3VBSTd2yvjT5cR3dXkBaivHV0Bl99YwHHLmphexdB1kany45q3ZoeGSa/9QGSelAQ+8A+iVF6HHidil13E1Tpb5NoAWnSR6pFnGkVS2GNAlWl/9ItMwwKeOz17gm4Hq0K0DDMXhluD7VnCNLkaA0P7Gkh7s7YAKj8i0YJiueuFf7IcLoB8sqFo33t8Dl86eVTODMvjnjY1gqQdDqIdWfeDWrjZpFujtY9uGKRUgUhZj42lbB0aN7aKLF9abOGGarTsakc335lFpfmJcB1e1ee7ysBla6tn9bUoJXgiFYCpDJWB+7ZXkazIWNcNMKiEjo+JaS6zX6lHF6LskTmiyF43MOLb13Cf/raWbw6VaF0MhipMlitUBCkSR8oyWwTHKFjg7wsCgRsyIpBjDOKRTRwZCHHn724gP/+Z2/g8984gktL9D4UUq15U59yG8teP62pQStJgFxNJTZgWyPFwUN65lpxC6UCF00pqDPFM6ffW89apEX0GmFI6Lv6eQuH33Xxu58/gq8eTbFAR7zMSFXrID5IUjf0LlV7UKHGzNjGxAvYnhJOLAf4/oyPP/3OJXz2iz/EV186i7enQizzN7810BkC69uC0I3ZuGtq0DUpj9Aqp7j34F5qgPIcTT3wHEfT3gqtE9OmGyHdpVdqthi9jhGkMvpdHxcXmvg/L/TxR99cxIl3LtENdQdHfzDkKCkfPB4gJ8uX4hinFkI8f7yDL3x3Bv/rK+/iay9ewtuncyz1GkwN6ujTN+mBtnbHhuQ0rbCejWn+6o8jG5i3oeaspkF52mYSGuJbc1vwO//zbeYEPJ5RD88sfI8AVr7DRPd6pGhcix+VY2X2LkyX+VWdp6doVLu4e2uGR/aXcdeuFiYnRjA5VkKNoiUjJEFxKa1KKxRXFfedF7SaiJlSU1uLGIbm2nKRQSGp6aI089CmdbrYjvDufA+n50KcmYlw5lKEizMx8zdZCdYX6HabEiO3PtOOJfy733gUd7VomuWLFdWq6jXV4Pq0KkA3QnmyzF6EOI0J/IfPT+Gtty8xcpEOUWIsaNA7D3o0ebrX89p0XW0l1RsRdoz72LdrHPfuGsXusQCTTaAVZKgFefEuPTHckuFi22hQtQTHhI5C4GouhlKhOwSFrJ7qqecVdvrMxaKI5jTG1KKLi8spQenj1MUeLsyGaC9pHkz1am5L5+qOCNXLi1MqK/THv/frO7FrvIGqNUNXXdGWddD6AZLfSSO03SYTzQx/8IXvo9PTW4MpTanG2yjLlZoNlF6PbgSgYjiJDNYzUSuZvVfuvn3jOLBrBBNN3xhSc0O0fCaLZLzPgMWeyCjxJYPUHj2hXmDM69Z4RoUxwbLbaHQL6DwwPdvFzGwbS8tdHDt9kqDJuFWYh1fJaGq4+RMx20wE65CFUCBxCwKUsnMKO31GNh0G+//899/A2bk6cwOaKQKkh0F4pRaS/tzgjLXpRgByPd3Uy9SQQiHN1KMnlRsJiEq9iqqevV0ncM1+8TqdShWVahWlkhb3i4niYYowSTFNdel2+5hfaGOR5ktP0peJzjM9Pq3M4317rIDdlaD8znI8Aa226vGXero+fa7dJaEE/RYESMsVdG9NYK9iqeGrx3P8ty8exSzxcAOGoQRQN+wmfYrmdeiGNMjR4go6X5NYnkNt0hN7i/yLwkCBkJakYZ9gUnuUkxE8Y5O0J9Xj/pXHMIjRDCd9jz0fjr5C0aZ0RZqhAEcKUmnt4HdGl3qoYKz7nhKeJ2BoESytkN8jMDcZINa8PtJLbRl58uIVRl19PLbXweOHGqhRijO9ziZhLNNfHBy9cVLQ4FX0dhWaUQYUGmj1qwxrq5TygCY1n2db6KireudczRinWVu9ZENFc4bFU3kDexiupycL019mNGNJKACK8EAvDPFrZfSWptBbOI+oPUursET+M0EViMZssY0BwPrZd8O0gSvIH9DUUYr07oMRRnA/9/hOHNxDe513+GuMuK+h9s2hmI4iXOgx3KZUJvQFGbU01hOHKcF6u3GmUXWPzGTCG+luckaZ/NQdf/YEKyY2HiMJeyhweRFuaZnhPUN3TxohrdJAL01bnz5UJdbNZnokTJ+Y6I5BwqH3PFAwihET+bFbGiBJowW6tnLSR4RD2z18/L4x7N4ZcB8jnCIQ3hxSTCsTQ3Mj7XRQhh4N7QVb+OMIwagxZlF0JZNFrVKA4OtO8kHRXet6Gof1mKBBobZWxBbTBC77In/j0SK4DAr01Cs7h3VZnbQYCtw0fzOslyeosptK678Ce0U3gzzU83toIvjdp/3+6IEGnrx/DK0G4QnW//bDqymgOSvVyTzduk9mSepdaUSZYDDRtdflaJzMcq+BtOtWf5XiMSk8JjVTlkR6pYHe6qgcrRjkVYKkG4jhMflx9aoAvS9I77CTyjF1MG2RR+G1lLxaEluYxZtJ6wZITWMTaQqU4dPGZ4VD3T0a4GOHxnDPviZtvZwpXaU6Yp2Ss5Zz177Bpclos5X2Z7UyIJmUoE6GKzEkSNSANFlkNKfnetP/MEnMsVw86yBUlEcTxZJrlIMpgb1jwgo1MKL/ifX45TqvoJumpRrMcQhwHC0g6s/wNwYS/E3P+S4GajWzy9268Zipg2aLC3yU8/GDAqBPSwXUJQkvD2BvddC6af15EIsuLTbrRUbao6UQMVupp8ofPbmIz339Vbx6YQ871OFxbGyqB/SpswxlyWQniPip0WFK6RCwIQ0iuxuK8P6GSO94kPnTgKjC71qjin//i9tw9w6aXnZJD/dQuF66gWR9LVq/BhGd9y4uZdJni0JSNgg4tH8EP/fTT6LMhjdHRghGBX6zhsaOJqoThCuntPcixMtsvM1KfvgojbXghRpM36iVs1qgWalTIxnDmHumedRTvjZC6+aMTLKCg5WkW/TLmgan0Gti65G7yvg3/+RB7BpLzZ/meYkAqmOMirSyMotRqtLMfADO9maQTHhQki+ibUuUh2mq3sFiGCKMC+nVio6N0IY5IwOkV3/ZhkCjSnspoyPmQnrs8aO7Hfz6p+/GIw9M2mPN4rbypAoDiBaqoyNI9eTDDdrpvynSw271YkM9AN7zx2iuG1Qa+q0yoz4KquRXvmgjtG6AzMQpSiDJTShA0OiBWkRPA71gqUxHXnEW8JEdDn75Y1vw5IMtNGvFi6PMDzGh1AsKV8YCHy6q0oq0KGx6qCsTjW6Erh5/o2TXLIR4sjHhW78GKULReBQ3lXPEtrxK4lLkIRoj0/48qaISt/HE9gi/9BEPTz1SwvYdOpfJZFurTZs84ypb+SEhvbTQcesWMdqYY7KEpNOm9A7VRlMnAyleJ60bIN3Kp5dS2HaRwdFQidHFtg3759ynXIMha85w+IHtffziJ7bg0z8xiT07c/jMN3Jp0weQT9wUYuRpT6oPz6NWuYgDezxMlNmvlP1m35XUOvYo0fXTusNsts6KrRglWDGdouZXtNZeWq0HX2ioX1PHuheopPcOEbPYKWMh9nF8OsdfvXoWr3zvBObyCdZ01czjhyDM1oL1ajnEnvEYD+5v4b577sWn9nThlpsQV12veDv+Rqa9NwYQTVzCxM3Tk3vpLKXZunHWEjYCo8FkJ5xCVt5uT2bUQHCVv8ntiGYJ6uunLuD3vtLD0sJVWvQhAGjv7m34xENb8OP3AwfGKKSMlRpLZ+HW9yAkJjJweh+FHmy9XtoAQCKeqrOJyGU+FlbPyDY1gkCTZz/zj/YJQBGTboajCc62Ozj2bgffP7aMwyciTM+49jJdj0g6nlZsalSAJ2UyGRpnkxDwu0tQKQnF++PIHe5zLesfXEDjaDZEY1e1czRMo9GPYnWOTLGOL6YMiiXMViWvXbdhJb2PLmO+k/ZnyexlTE6U8dC9e3Hort14cHsZOxpOcfcCT1Uf7e0tmrfiJfVdaSyvzK310QYB2hxa7PbQz8uYC12cmsnx5ukIb74zjXMXLiEigA61Ms+b7DEz94LXRTFS81n4XUtubZxl0CMbYrIN/R/s5C499NYGU4Ni2puw8gACzUhUtyZqOMp1Irsrvd5w7e7sPZN1HGCSfYCf20Z9jNb0ah7YK0FvJt0SAGkRumILDSh0yMBLHeDdmRCnpto4O93D3EKIc3M52l0yl77NxsPIRPk/aUUx2ClpZ4dMqwSHUBluF5/8YxfygjGCIc3osZ5iIlAveK9WfdRqviXcu1o5Jkaq1JgWtm+pY5KgjDOxa/C4sqOJSk3YSQN50ZtItwRAunPFlMLR7CwtN5mtLGop9HB+PseleeDkTB+XlkJ7wkm728dyp8/PyJ4mr2RRU/B6l7fdZkggpE3SNk0TFAOZ2sfqfRetht6EJSanqJUyNOkYxxo+tjTLGGWplX1sL6UYp5psGanYmyN145VLM6qoTeOKUjq9vpqJnLpw0+gW0SAxS4zUApPBlDLtuL2iTYs7tJemnTmgXsyPxU6M+eU+5plH6XO5F6HHA+YjH/Oxxr8IBAFRkBK4zLIY6urlHIowKyy7qxlqdByjrSrGR2oYa3loEgT5EpuZ4PWybhdlzfvYtLmIuZsGheXrTDvVRI2Erz8AuBG6JQBKCIGFEbptRUUelgw1KSVXxRJ7z4GNVGgSjUyhWUt5iCIn4jtYI8FT+UdmzyfgAkTOW0w3xovzYv/lqY7io/hkBVYKk+jYLTXDk3ROcbDMaixfRVNbog+TRt5MuiUA6mXLlHiPsRSDADLAZi/EbE01lxmhEcIsiqlYNFNeUEiuoi8yT67FWKtekIcFCLb5nlJUyoP0fxDxme+iD8m5PYTnMkw0pcXSrSsA6BImP9zQdczsWeU3j24JgIrhEDHJnj1sjBj+kalyyZGY25Tr4p+Yy392DMvQ/2tgw14rupL0I4vyKf3TebkOlCBwW3UOTlcTLpMMm77aUBp/lNkUGKpO+zUOyQDQ9t9MuiUAsnuz1HlPN6TTERtMGqGjttCO6THWevi60hQxx9hKjRBwhYeQf+B+C+N8O0IkzbBP+3vl0+6RJVn8wH8atrK8ysxYcY6mwIvjCaM2BKjUVBcaHGOPKLjJKnRraJDwIOXGFIbQxhpjnZk8c0JEwvhnvxjH+Jt0QDTsAr9dTkwLWq1z5uwHpCN1pffRANzLJGDssvwz/E2fVx+3yXSLmLg7tBbdZAt6hzZKdwC6xekOQLc4OfPzumP3Dt2qdEeDbnG6A9AtTncAusXpDkC3NAH/H7QAwkDGs3q0AAAAAElFTkSuQmCC;" parent="1" vertex="1">
                    <mxGeometry x="341.29" y="79" width="55.41" height="65" as="geometry"/>
                </mxCell>
                <mxCell id="15" value="" style="shape=image;verticalLabelPosition=bottom;labelBackgroundColor=default;verticalAlign=top;aspect=fixed;imageAspect=0;image=data:image/png,iVBORw0KGgoAAAANSUhEUgAAAhQAAAGECAYAAABu9Lk7AAAAAXNSR0IArs4c6QAAAARnQU1BAACxjwv8YQUAAAAJcEhZcwAADsMAAA7DAcdvqGQAAP3fSURBVHhe7P3XlyTHnecLfszM3UOmFpWlJQqSAChAEiRIECQIkARJkM1mq9szO/ecnTP3ac8+7fP8Afu4Z8/u3t25c+/0dPd0NwUUCYIgAAIgNAitqlC6skRqEcqFme2DeURGqqosoACUsE8dr8zwdPeIcDc3+/rPfkJYay0ej8fj8Xg8HwO5coXH4/F4PB7PheIFhcfj8Xg8no+NFxQej8fj8Xg+Nl5QeDwej8fj+dh4QeHxeDwej+dj4wWFx+O5hLCAyRePx3M5IXzYqMdzmdN9Cws3JINFdFa439ovu4dq4TqBfCBvrwFE/vN8vYO1+S7up9vcPae4I3Qd24rONhYQiPa7AToXEaLrOafrc3dYa53H47kU8ILC47ncsZ3/sF2ComN+7GgF0TWYg8UisE5QiHytpS0z2jutMYjnR+m8by4qhM3FSpjvZQGN7bxjW2IsCYaltSYXFWxAUKy13uPxfNZ4QeHxXAG0hUKbpQHdYtGdLQRmaeOOINBLY3T7IN1WjfXo6IS2oGj/QeUvLFZYDAKDACQChUQh6Sgf7DKriUWi80OtJR7WWufxeC4FvKDweC57cnVgAa1BhW61tmBTsAlWx1gTQ5YgMo1tpdgkg7SBTWbJsgyjNdZYsJYkbmKtmzYR5+ghKpUejAArBQQKKwWi2I8slJFRAaIIwhBUACJEqSLICCHD3FVCgwIrnIwQWBSmW62seMe11q1FWzF5NzGP59PCCwqP51OnPVh+TGx+HNtywkFbSFJIM4ibkNTdUpsjWZhhcW6CxYUpFqdmCVKNTDRBllCwTXSWgbUI5+YAxlkJnJVjLVEhsNaCDNC5oLBSkhiNCIoYFZHKkKC3l1JfP72DQ5QHBol6BxHVQYjKEBYhiCAMMDLEhgVQAULI/HPINc7ThQqKjW7v8Xg+Ll5QeDyfGjb3FWjfchKTP0HLzm240nExH9RN22nRgs4giyFpuvWNGXRtlrRWY/b0aeJ6Dbk4i5mfpjE/S2BSApsRWI0wKYGUiCRDaoOyhoK0WOs+iRTtj2fymQz3SZYPycKtsWByvwxD/ruUaGNBBdiwQEsbMgSoACMVCQoTFihU+4n6+5E9PQTlXoqDI1SHNiH7hqBYcVaWIBccQQGsAqWciBHdzpztz9sl0kT7dfdZ9JYKj+eTxgsKj+dTw+aOh26gswTofKALlt2GbTOBBZOBSZyAaNUgbkB9AVObo3b6BOMfvk9j+jSBbhFZTUFnhNZQymKKOnXvk0dxSAuBAYTNLQ7tAdchrXPS7MZJh+XrclfOZevI/STarhdWLG2ztL3ACidErBDEStAKFKkIiWWRVEZkUYXq1h1s2rmXni07sKUebKGKrAxCEGCVQkQFEIE7T53vAVjpVnUJCrEscmTlZ/Z4PBcTLyg8nk8Vi8FikcuGadm2UhgD1rifaR3qs5jFKepnjzE5fojy7BzJ1BStuWmKJiPUKQExIRkRktAYJ06EwQjn6ti+xYVdHqjp/rg0zLrBdwW5GFmOWAor7aIdvWFZa+xefRwnNCSZkKQ2xKiITAa0pCBTAU0CigNDFIY20RoaYXjbTkrDYwS9Q1DsgUIvSAlCgZCYzrdzcSU2/yeReYjqqg/l8XguIl5QeDyfEu0bzf1sSwoLVoNpYFsNRBbD4gLp9CT65Emmjh5k4cxRCtkioW5SxBBYjTKGIMtQViOEs3pICwEqDwPN30zYrogN0ZWyIrcYtH8FhF0tKNpTHqvXrh6crcinFTpv37Wv6D5OPtwLgUFihERbgRECaQSBgUxKMqnIpCSRIc2wRKoKxEGJnrGtDO/cS3n7XkRvP/T0Qd+g+yJSARKNJMvjRQoo1Bqf1+PxXFy8oPB4PjXag6oBm4FOIG5imgvIeJr09EmmPvyAbGqCdHaKqLaAymICG1OwGSEZ0lqkFUgLUhtEOzRTAFYiRIiwCiEykFn+fvlgalkRDprLhbagWMNCsSQy2vu57qIjHrpo+4Oo9tfMPTktS4KivcaKtqBxcxTtiBJpnaiwQmCERQsnNLQI0EKRSUUqFYkKSSubCAaGiTZtZuzaG2FgBKp9UK5AVMDKkIwARYD0PhQezyeOFxQezydCO/FT5/EfMFjdQmR15wvRWCQ5eYy5k4dZeP8lqC9QylLCpEVkMkKrURgkFmnzbA4WZ7q3AmHag7vzSXDvFebCQiNktuwTdRsMOsKg/arttrECl0Wzm/UFRdtqIa175Wh7YHRn0lza1n0bC9YgrPsO7idOJIml82iFQEiJEZBZQRr00JCKpFAijopE/cP07PkcPVu2E4xudpaLUhVEyTl3Com1Is/h1fW91pi+8Xg8F44XFB7PxaD7LhImT0mdOwIaDWkTkzUxjVnU9BEmDn7A3IH3CefnKDTmGdSzqPaInyeubI+nbrhz/gDu+O73laGcbns30LsxcvVA2bndc/+KZeQD+nLy16KdxTJft2biK9lVgyP/EvnnWc4a2y296s7xuQohnD+EBYwFLSGTAi3csiBGyMr9iIFhenbuZWT/ddC3BQZHyKxAFasII3MfTeu+i1z//Twez8bxgsLjuRjkWsCN6hpwERZkBhZnYfIUiycOUT/+Ia0P30FmLYomJdIJocmIaIHILQJLuqHzsz21YfMVn7qg6HyoPGriMxMUzrXSAhrhkmq1M20KgU0kJihSFwGtoIgolxE791Pes5/qzn2oka3Icj+SIoLAfY5lb7fWOfB4PBvBCwqP5yKwpCdaCBJozkKzDqdOMXHwPabefZNiY4FyWqeSLiKwKNGeymj/dL4RnbG7++BiaeC1+SC8UlC4P64/GLvjtndaQ1CsNZh2HCy691tjO/L37giV9hdZ4/OsuV3Xn9eYTlmiK09H/pnan6RtzdEijxxBoZWiHlZohlWSUh+D+29i0y1fgN4xqPZDsQDS5QMRBAjyLKMej+eC8YLC47kIWJtCVkc0F2Bxivr4EWYOvkvj8PvIuE41jSmlMUUTE5kE9xzeFX5p898taw/WuYWi/fvKQZj2XucSFCxZPzYsKDqvNyAoVloe1hMUa27X9eocgqL7dNncE6MjwtqHafuTWLAIamFAKiK0LBCHZZJymWDHdQzuv4nq7r3Q04eNiqCqCFHqfjuPx3MBeEHh8ZwL2xmbwKVuWhq0hXH+EUZDWoPpkyweP8TR558mXJimzzRQixOUoxCZpgRGE1iNtKZrsG0PzC4pk3vP/JcVY/b5BAUsTXmsje0KG10+1eBWrSUUVgqKzqid/+xGLN9OdH2XZazcrvtzrB2S2sYJijzPRO5IKtun023hzqXF+bFYSCIXgSKtQqiImklZjPqol/rJ+oa44dv3oLbugPIIFPqcT4UMuq5z3gg6x/d4PGvhBYXHcy7yNA4aECQoMjBBLgZaUJ+B+Vlm3nuNmQ/eIDl7iv54kZ60QUknKLsi0uIisGoW4mojt050iyqnM84lppaTySItVaAWFlgolSmNbaFn900MXP9FGBiE0gCIojuyzAWFUJ2Mn15WeDyr8YLC4zkXuYVf50/GyhpXQyNtEp85QnzsA46+/CfK8xP0xgsUgaLWRFkKaOzyx2fPRcV2iasLG+IFLsNmKgOaMiIWAXF1gHrPIFu/+BWq+z4HfWNQ6MWGRScg2lMxF/ZWHs9VgxcUHs95cJJAo0ig1YSZs7SOHeDYq88RTBylEi9QSusUshhpQaE6dTHcNIW/xT4xumdPNoyrqopwqb81Cm0laRhQDwvUoz7YvIeh626hb/9NmL4hZKUPRIjB1RDZuC3E47l68ILC4zkfOsYmC4jFKepHDzP19is0j35ApVWjT9eITB1lDNJKV7VTyHyupG0c97fYpYXNy6o6U4O1zr3TSoORkoQy86rKYqlKtHMP22/7OuHwNhjYBoV+rJTeSOHxrIEXFJ6rkrbdoD0w5ENL16u8xobWUJuF+VMcefxBWscPUW3OUE0alE1GRIIVCRYFNgKjkcIuhUV2TPF+CLqUEO2kY1gMxrUFqZ1LqFEkFGiogIWoQKPcT2F0D7vv+CHsuAHKvdiQFa3H/e6vsudqxgsKz1VFW0hkXcPA0nAQAwqJAqtJaqeJ5k8y9fqLTL/1OuX5SSLToCeJKaWuIFcn4/WysM41WDOCwvNZIdZIt93thmHybjGTiqaKaKkys9VBhj//Jfpv/jLp6DVExRJWBAhUniTLWS78lfZcrXhB4bnqaDf4trggT2sdkJcOz2KYOUN68gDvP/JvDLZqlOIaJV1HiJggsyhXjWupDITwguJy4nyCwk2DgBXGFSejSC2oMBcUaPWPsf/bP6awcxcMjpGGVQQF136wK8KBPZ6rBy8oPFc5Ol9S0Abqc3D2OGdfeJrmwfepNmcppw3CLCYQCZnKUCaviIlYSrTEynwKK/CC4pLivIIil5uSvC6LCTCySENF1MISi8V+Cvv2s/Wrd6K27IawB4IwL58eAC7EdI238XiuWLyg8FzhtJv38p5dAxLr0mRnDbApzEzQPPAmh576Df1zkwxmBmUzApuhTAYiI1MmLx++MgGTFxSXE+cTFAAI48q3GwtGAiFWBbSUJFYBC2GZ2eoQe+74Dj033grFQYgqoIogIrSQyHWquHo8VyJeUHiuYJYmNbpntk3uLRFiCNIaJIs0jh1i8vnHsEffobc+Ta9ukVqNEkVCDcIYt6daul2W3zheUFxOrFU8bZWgcB1kbqHI81YEgkwaAmKsKVEv9jJRKJJt28Web/4FpdFtUB6EsEomFDJvJWIdEePxXEl4QeG5crHdg7wFBDrv4oO46aqCTo/T/PBNxp/5PcOzRylnDaTOkFZjrEXm5bJdym0D7UKbbYGwKppjPc73d8+lSvvK2fwyuyAei5WCViBpBZJGWCDu3cXmr91N6dovwdBOCIq0yBBtV1/rGs85SpV4PJc1XlB4rlyWawmsAItBoBG1szB1ghPPP0nj3TcZrDfoN3MENsWa3Dlz2VNlO1FV5+hLo0v7dy8argo6ucoEpMotmQhIxQAzlR6ia29m553fh74x4uowFonMY0Gk9X4VnisXLyg8VzY2n+OQuGDRrAHNGvX3n+PIs49RmT1DX6tOWUNkYoTRgMG2BUWnboMbRZY77i29EGzESuG5EugWFEa6tOxGKDRldCliQoaYsZ3s+Op3KOz/GqZUxoYRiABl8iJwvql4rkC8oPBc2djcA5MMWjOwOMn0Ky8w9efHqTZnqMSLVNBYoQl1kNeEsF2CovtAywWF28LZr0V7oPFc0TjhuHItGCFIwgBpBQkBjaBAozJA6Qv3sOn2O2BgFKMqSBP6qFLPFYsXFJ4ri/zJcRkZZPEU+syHTL/0LPGbr1HNThEmmooUBKaBEDWwPWDVMkGxxGqnSy8ork6WiYrONbcue6Ypoo0gtRmmIDld3kz0uS8y8pW7iLbeiJRVhOocyuO5ovCCwnPl0GnJxiVUFqAwUJ+CE4f48Le/onjmOP3xPAW7iLS262FRA6t7+uW3x8opDzp7e0Fx9bBMUHSLVwlY5/RrrcUIQSOoMhNWicd2c+0P/xJ2XAOFIhDl+Sqky4FC2BGnHs/lihcUnisHm5sNlHWddNqCxRnqbz7LqRefozx9mv5kkaJuuMqh4EaEc7jduxyaK9etxguKq4u2jui+5N0OvNY6l5pUKlqqzFzYS2NwjG23f4Oem74IvaOgKhgCZEfMrt8OPZ7LAS8oPFcObUEhY2jNwvQE2cF3Ofb4L6i06vTqmIJuIUlcGChckKA4143iBYVnpaBAQCYNmohYFlmQBRrlKlu/di/VL9wBA1sgLIPJ26AP//Bc5nhB4bmCsGAzaE3C1AkmnnmC+tt/Zqg1QSnThO0IDqm7Bv/zCIqu28Os2d+3fSisS4LkuWpZK3GVFdY5+lpJIhWNQDFdHqH/ljsYuuNe6B1zmTWjwjnbocdzOeAFheeypMu+0EUC2RycPMixPzyIPfwOQ7pOpmuUMkGoJdIK51thnbhwR1jRkXf7SXhB4dkgqwWFdI3G5OYrqWkGlrhYZVL0Ee35Ajvv/CFs3QbFAZBhZ8+127fHc2njBYXnssTmi8YQYBFWQ20epg5x4IH/Qc/ZI/TFC0S6hZEZgSEPCRUuH5Uxy6c9VrDmTbF6s3U29HgAxPJpMGHR0mJkQEsUqRWHaIztZe8Pfwqb9kDUAzIAGS5z/l2r2Xk8lyJeUHguWwyQkFEkxcydJT16iKNPPkzp7FGGk3nKWaudhGIJkWsA45u95zNCWAySpiwyWxoi3baPPff8FEa3QnUAq8oI1DnkrsdzaeIFhecyxQAZGQY7dxLGD/Lew79kYPIsfWaRim2hTOo2tecLB/V4Pj2szBDWkomAuijTLA5xtm+E6+/7McGOvdC3GWWreSl0j+fywQsKz+WJzUA3oDbDzBvPMPXqk1TOnmBTI0GJBkLo3BwRrNwTvKDwfJYIgyADwBKibZkzpTL1zVvZ9Z3vU7jmixCOgCxic0fN1f4ZHs+lh3cr9lzytP0llmEszNeovfUyp594hMqZ4/QmDQKbOOuFVWALYKOVe3o8nynCFMEWsEgsBkVCXzJH78wp3n3oAZoHDkB9AYwTHW3WvA88nksILyg8lzydjtQCmYGsBbWz1N95hslnH2JTY5L+OKGghStJ7rJCdNw2PZ5LC50LA5UXn9NEBir1BqPzk4w/9kvMoZehfgaRNV15Ousm+byg8FzK+CkPzyWPS6QtUIBIY6hPkr7/EuNP/orq9FF6khbKBIBCCZcB83wmYt/sPZcSqYwAgRaChbDEXN8w1/7w72DHTVAdxYQltHCp4pV30/RcongLheeSR2CwxBha0DpDdvQNDj/5MJWpU/RkLUKbIkQCuZjweC4/nJNxaFIqcZP+2VkO/u4hsmPvQjyNFQmS7lBnj+fSwwsKzyWPwBKaFiqeJjvyBkce/zd6p47SnzQIU42wIu9ozbL4fY/ncsAK8kJ1GiESCrZBX1KjZ/okRx9/EHvsA1RjHmUypLeseS5hvKDwXFJ0O561pyVMFkPcgBPHOfjbh+mfO0WfbWCtxogIQxFrI6RVefIqj+d8WBBm+fIZPf07jx8DGIzM0EELZIPebJHBhSkO/uYROHES4njlrt5R03NJ4QWF5xLDuhliDcIIrNXIrAVnTnLo0QepToxTbSwSZglCuKe7tTvUdle73uK5erEgXNm3dvE3S96W8qU9zFsEVrilve6iS1bbeSewAmkVCktBp/Q05ilPHuLok7+GqWMQz6NJwRgXzJR7GHk8lwLeKdNzSeHcL6ULztAGSw1OHeTQI/+KOvIOY+kCkW0hrFnVjQpAXvzu3nOlIVzLWZIS7eeqtmjI1UW+qt1BClxJDrFGSfuLgjBYLCJPxCYIsELQCmA8rJLu+TzX3/93ZCM7COgBociki2IK8EmwPJ893kLhucSwaAxaGZB1xOw4p5/9LcVT7zBg5glp5Vv5puv5iFiJsAJpBdJKpKWziFxiGGkx0uKSZGukU7hYoTHiE/LVsbIjJgAQKUK0CG2LAd1EHnmXM889hZyewhATSzCoPP7J4/ns8b2y55JCWFBkKFuHhZPMv/oU6XuvMtScpWqbKDRSCISQCCFWLR7PRjBIjFAYFIYQSwg2BON+GiJSEZLJEGsDsAq5bFlmz/iEcBYUZS1Vk7A5W6D22jPU3nwOpo8T2gaB1ShvZPZcIvgpD88lgnXds9FgYmjNUnv5SY4/8SCbm7P0pXUXGop16bStYOWkR9sk7fGsj5MAmXQ5HxxuokxTIJMFtIJUClIFgozApoTaEmYQaEtgdZ6RdS1vnC4zx0eWG11+GsJiBWRSYoRlPqww07uFrd+8j55bvg6VQZAFEOHSPbTsN4/n08MLCs9nQve8dG5kdq90Aq0F+OB1Dv7mf1CZH2dIx0RZDDLrSqvtEl514wWFZ20MLrBYAQIrDLEKSFRIKkMSFaJliCgPYYt9iEJIFggyCUZopIkJkpSg3kQ0m0Rxg3JaQ2lNYDQCDdagbJ6pVYC1Iq8Y+lEaZFtQCHcsAVoAwpDIkAkTkWzey/77/x527IdiP4hCvq9suzV7QeH51PGCwvOZsNTobCdkDgy0anD8IId+/Q/0nz1MwTQp2JjAOuczm//n9veCwrMBRIawCmtDjJCkKiMu9LIgy6S9g/Tuu5HhfddjCn3I6gCUSxCofES2kGUubLk+h12YpXn2BFNvvwKTk1SSBqFpEZJR0hJU4hqhVWBDrPjoqd/XmsLTKGIZsRCVqW2/lj33/TVyx3WgiiBULihklyjxeD49vKDwfKa4xmeAGIgRx49w6vHfog+8wUhjisBmSJHm1UNxYX7rtFgvKDxrkUk3tBohaakiC4UKyZZrGLju8wzuvwF6h6HSByhXMlwIsO3Q0iICV7HWJnUEKWR10sUzND94j+a7b2BPHUXVpimbjEi0ULhka9jwY9WSWVNQCIm2zufjbHUEcfMX2X73D8iGNiFEBUEB4WOdPJ8RXlB4PjusBSFcqKhpQP00E797iOZrLzLQmKU3rWMQIM2SoLDrG5G9oPCshQirzGlNo1Jhvm+YHbd/h8rOW6B/MxTK2LBEpgKkBWXbFT7zuQYhQeaTctYlwBIusBlaszA7TvP91zj84tMMzJ4mrE0xEAiUsVhUbn3rRqyyrK3HWoLCTdsohLEsFCqc7Rmk7yvfYPSO70JlDCsr7tPl95bH82niozw8nx15PgBhgFqT5L33WPzgdarxNGVdAxKs1NgulbCxrtjjWaKhQhZ6R0j33MKe+/6eyhe+DZv3QHUAW6iiVYDB+SloKTEyFxJCOree3IZmhcQSYK3CWIUtDsDoTkq3fI0bf/TXRFu2YUtVdMdXo7u12ny5kEF+rdZunc+GSIhsjWo8xeybL8KhQzBfR+j8ffJ7y+P5NPGCwvMZYsGmkDbhzAlO/PEJyotTlHQdRQLCuJj/ro5VnGPxeAQGhMUISSYDEhUxWawQ3vBFdt7/9xSu+yoUhiEsYZTCOL/H3OugnXfSTXcgDVa01xi3XVfOCo0A1QOVAegdZnjPNRhVIEGSSUmKmzrp+AhdFPOZdZ9JGSQJ1axOdW6CA48+DFOnnQ+S1f6O8HwmeEHh+ezQFrIazB/i2J9+SWniCANxnYLWLp2QUK5okjVgLBjrMhWeY/FczVhAY4AkiFgIq8wWhyjdeidjd/4Q3bsJHRQhdNMG0iiUFSgLoYXQCkKrCGyQd40SgSTIFwU444UG6XKioBtQm2Pm/bd476W3MDqgGRZYKBSIVYQwAkyKIHPWhQtoo9bmU3xdS24rQRhFlEl6Ys1ws0Zl8hBTr/0GGsdBN8HKrn08nk8HLyg8nxlGZ1BbZPG1VzCHP6BoFhDGlyD3fFQE2ALCSlJhmStEBLfczugdd8PQVlRhGEsENgL70bs+Z3NQCGJYOMPia88z/swTBGmNqVIvvV+7l/CmO5gP+qmHRRIVYZAu+OMTMBwooSnRYO7NP2MOHoBmk8y0fUE8nk+Pj35XeTwfE5nUyA6/x/Srz9Nfm6WsE4I8in7Z4h+yPBtFBiQyYFEVYcsehr/2XRgYI4uqJBdpIkBgkSaGmVOcffGPHH/xGQppi6RSZeed36P4lbvp/db9yF2fYyYs0VQFMhHke358Vn4HYTRFkzDQnOPDJx7FnjiIiuveOuH51PGCwvMpsdS5WWvJsgwWp5h4/TkqixP0ZE1CI1ZNYXgx4dkwAjSaZhDS6hli7x33wKbd2KiMFC6KQ0CefKr9Yg3WW99GJzB3ltrrLzHxyvOwOIspFhj96l30fembMLoXRnex7c7voodGaKkII0MnKD5m5IVgta+mRBBqQU/WIpo7zenXnkM0ZjHGO2Z6Pl28oPB8KnQViQaboesL1N9+lfjYe0TxPAEaadUnYxP2XNFYAUa4zKktG9Moloi274exa7BRGWEVylgC69I+WbK1oyDaJrFVuCJhoMGk0Fxk5uWnOfWnJynVFwlKZbZ97U6Gbr8H+sYwqoSJqtix7Wy59Uu0giJGuaRarkj5mm/y0bESZRWB0fTYFo1Db9F47zVE2sodNJ0C8drc80njBYXnUyGv1YglwbamCA+/yZk//YHeRpPIBFgRgGwhpV5V8OtjPtR5rmBsXl7cCEiUwIZVGpVNbP3St6AyhJAWKxQmr4XhFEOERTnt2rW0XR67FxfhkWKIQc/C/FHmXnyM0889TtiYISkVGf7a3ZS+eA+ytAls7sJpI0TfZqIbvw5D26mjiD+hoqBCZAjVQgpJVcPQwgynn3gQTr2HEE3Iq96kK3f0eC4yXlB4PgFWPwupdvy8biBrk8y+/TKFeIHQJATWIHBFkCz4eQ7PBWEFWOGmE+atYmjPtchNW6FYwdkk2u2qbSNb8mXosputiRMUGoWFhTkmXniKY396jChtEVcG2fG1exj63G2owRGXt6JtfRACZAD9g5S27yIrVMGGBGYdI8jHxbr/lM0ITUKhtcDUa8/D/FlsVgdsnu/T4/nk8ILC8wmwVhdtECSI5jyN999g4YOXKWWLhCZG2bSz/VpzxB7PuXECwSKwfSMM7LkWSr0gQqzJM16u0Sq7xcTKv7WRaKRpwuI0k6++yOnXXqKYxehyL1u+fCfVL3wNhsbWTrAtBJR7Gf3cF2gWetCicI53+ji0TSyWwGZEJqacLbLw1vNkh95CtOYRJMg1nTTXWufxfDS8oPB8KliArAnTZzj2zOP0Z9MUdZ3QxEiT5gZm1p7I9n2e57wIl8Z9YAQxug0KVYwMII+u+MhkKcxNMvfK0xx86lEKSYNYRuz45r30fvF2TO8gaVjMq2eslCYCo0owvJXi6HZiGZEoZ4m7+OTvbzWhSSjrOgPNsxx79g8wdxay1jo30lrrPJ6PhhcUnouMzWdsu9e4PIO22eDsa6/SuzBLMVsg1C0Cm0Ke9Cff2OO5MHJnCINEV/qhb5BMBq7k90fMN+FcJw3UF5l46TnGn/kto6KFCEJ2fv1uCrd+k7h/iCyICJAILcAa5wRpTb6ApABhD9WxHTSlohk6f4+LybJbxmYImxKZJmU9hzxznNkD72HjOtpPJXo+YT7a3ebxnJduM7MmMAny0CHqr71ET1qjFENkXRphl/FHg9FYNNa2lzxD4MpDezw4vwkAgSAVBaYLwxQ274RiL0JIVG7iF4illNl5p7fWItBAhkFDWkNMH2b25d8z8fyTFBt1VO8wo7ffS99X7kEVBylQJTIRwuTRSfV5asfepnbkNVg8BWndCYtSD3ZwiLoSKC1cJdKPyFrZMzsZMTsFwQQYSaihoheYfPEp5MkjCF1Ho9391G1I8XguEl5QeC46XW5wCDTSJjAxzsmXnqUU1wmNdo9p7bntricn63b6WFZqz9VCt3OlJBMBY9t2gAqRUjkrwwUMnM4mYZEkiIUzTL38DKdfepYobZFVhtj0xTsZuPUrmFIVZOjKnXf8FzQTB97mrQf+jfce+jfm3nkF9KI7sAoo9fQioxAlP8Eut8vp1IkoSWQ04eIsJ156Fjl9BmUT7/Ps+cT4BFu356rFtueTDZgEkhrpkXdonTxElDZQ1nR5xLul/dDmdYTnwllSoKJQAOkG1M66DTYqgSEgQdYnmXrzRc78+UVYmEcXKox+8RuUv3AH9I1AGC1ZAtpYQ23qNOX5KaozZxj/84vQWMjvA0FUKBAolX+ui0tbICzTCVYgrCTUhnLcID76AXb8kCseZpIl4e7Fheci4gWF5yIjXGEicJHvaR3mJjjy/BP0tubpExolDEgXSLpsMFhxJI/ngukaJDtjvqCT0+RcCJPCwiRnnn2cY8/8gbC5iC1V2PmN7zJw+13QO4wOik4UiO43cD82bd9MgZiqbhLU5onn5kEvJZaSUmI/oeyVa1kdhJUUtKFfJ/QuznD6paehNg+mBWTuU62xn8fzUfGCwnPxsa6f0jaDpMHpd95ETp+iHC+gWnWkNUtPSB7PxaR7gHTGgQ1hrYX5KeZeeZbFV19kMG6hFWz6ytcpfvFbJD19ZFKiDAjtLGqdxFg45wy5aQTdW6RJijUW0bCgDRgDyyqGfhoIQBJYQ0En9MQ1WicOUTv0PmQtRHsu6NP6OJ6rAi8oPBcXC1iJtBKRCZKps8RvvsRwMktEA6vyiA7hREWnP2v30N2Lx3MOXDkOSyYNqUoRouVSvCeAVWAtZq0U23nWVtMeUNMUMT/H2Ree4tTzfyCcn6BZEOy+67sMf/HryMoAkSoRtBWEkHkirS5BYVIUDbLaNCJrYURKXbScm4UBbIBIwZpPdgRfun1cbJURFis0yjYYbE2z8OZTsHAKdOyyj/vbzHMR8YLCc3ERua8aIFs16ocPIsaPUcpiVLso03Ipkf/W7p27F4/n3LhWYpz/g8lo1eZz3x2nOGye8H0lndYlNNBi8cAbTLz+PNXmNFGo2fXFz1O64fMwMOYyXtrc4xEXXWI703rCteAsJTlymFKaEAiLDBWFnhIo6TaJmyijkeqT73I7d5ggdzQ1SGEo6Jjs+EGSQx9AfQ6kcaEvHs9F4pNv3Z4rnNUdkhYGTAPmz3D6pWeoNBcQRi+FvEGnk1/qlD2ej0AeDhoaS6Qhm58Bm4JNsF1eOivbqczdIw2GTNeZOHWIKK2jkgZhMaA8MgKlHpDRsv2Wkx9dWEhTWgePEKRgVRFKVYo9fSCVK0TWXECZBCU+7S43/4wWlDFEC/Mceu6PMHsWSNAu6f2KfVa+9ng2xqfduj1XFMstDe111qRQm2T+tefpmztLHy1Ed16JTn4J0ckA4PFcKDb3jQwshBqKmeXshwegtQjKtU1pZPcz+8pDuIRrhZC9n7+V4uAQRBVazZR3X3qZ5NhRaDbX3A/aqw1WG+KFBU4c+JAsqNAsDbLtlq8gq8OufTdr1GfOEpgUrPlMWrsAlLX0k1GYPUPt+AfQmltH0K99rjye8+EFhefiYiHQFhbnmD30LuVkHksda9esduDxrMHKAe7cCAOBgUBDMj8D9QXI8tDIdY5l8+dygUKJIdi0gx13/YhW/w5CXaRwaoKjv/016aF3SOPEJY0CEAKBROWdp9HuGT8oFpAjIyz0DlK59laqN34FisNoYyBtMjd5CmVirHU1TD8bLEpmyOYCpw+8i15YIEgvejF1z1WMFxSej0Wna2w7jAsDrQXiD99HT40TyBglDBKBzP9vm2Hb5ui1Qt48Vx8ue0S7VUhsvnTaSt5OrHB50QwG97zvsmIWTUyxOUM6fRx0jCXPYNl55m4/ebvF7Zmb/KN+xI4b2Xv/35Js24lBEE3Pc+z3v0MeeQtaUyB1nj+l/XlzuSIEqtLHjT/+99zwk/+JXXd9Dyp9YA1Kt2B2kubJE4TaUMjMJ+q24BxV2/eVcUtejF1gCTNBn47h2PuYY++AWECTkXXKta9ePJ6N4gWF52PT7nSEBUyKnT3N4Zf+REnHSKFRSiJXJLIC4To/32N5OuR2A6E7A6BbchWBwAiBFu6nzX8aCVYYJDHlVo2ZD96B+RmEdk7AywfG7lfu+MoABFDph8272f7d+5BbdmKlgInjHHjon8gOvwmtaSDOVYRrxkJI54UcVQg276O87xYY3gqFqstTsTjDxJ9fpBA33ftc7EIea9C+rzqCp41171+yGX1JnaPPP4WtnUEQd/68cvF4LgQvKDwfi+XdowbdZOHIu4iFKYK4QWBsXqDpk+9IPZc3Ng9xNEJjZeasXYC1Ei1CErl8yUSAlopMCLQ0WKGppJrah4fg9ElkWieT60d5uBbZ9TcZYatDsONG9tz9Q5LhfpAx0dQJjj7+IPrwWxBPAUlXcxYgFIgQgggtq1jR4wSKydCnjzB35APCtOXKh58nudYnhcApDSe8NGHagtkpFj78AKlbBGSrBoPP5pN6LmdWtiGP58LoTHVoME2Yn6B++A2qrRnKpkVgNFiFEAK5YvF4urG5IcIISIUiDYo0ZZFFVWA2iKiVytSKZWrFCouFCrVCL3HUi1ZFLCHKCIpJSrU2x+RrL0FtliCfNJFtS0eXhayziLz0OZAREZdGEXtvYv/3f0xh+3bCENTkCT747S+JD78DesGJZ2w+BaJASIzLDevSYNgUFidpHHyTwvwEFRMTCJtHfchO5s6NZPD8uHQsFhasMiiRUTIx/UmD+ND70FoAYkTu56RXnCGPZ6Oo//yf//N/XrnS49kQee9vJEg0JHU4dZgTzzzEJtOibBJXt8PKvOP1BtWrFzeiWeFKV62FWyuxKFJZoBlVqEcV6j0jTPRtR2y/hoHP3UZh740U9lxPOjTA2VZMEgRYoTBWIK3F2oD5RsLAlh3QMwBR1CmYteYQmedGEYAiDx1RClnqpW/zGMdPfkgxbmHrTc6cOsvgpq2YSi9KBc46kTdlkaeqkGQoXUcfe59jTz7AUFKnrGOUzQDRVdLsU0aAEQZFhrIuK/hUI6FvzzWo6gCIAESARnTCaj2eC0HYTy8XrOcKpN14hI1h5jgnH/tXojf+QE+rQdFahDV5fJ9YVlXU7exT/141OAebLhcCi7ABwiqM0GghSAlIVIFWWKIZFAk376SyZRf9u/cjx3ZDsegSRUnh2o6OIWmhTx1j9v03aR16n2h+kigztFSJ2sgO9v3F/wTb9kGxkmdcyx01BbkbIksio52dVbjPh9XQnIEzH3DysV/SGD9JaiIY2cGee79Padf1UOgD8lwVwpAJTZAswtmjHH34X6kcfplq3KCYixbnBupScXfzyXfDzl/EfQaDEYq6iJgt9BJ9/T7GvnkfVMcgLJO4CRtvvvZcMN5C4fnIWCDLOx6RNTHjB5h55Y8MzZ8htG3//K6HwnZH7bnK6Pa+tUt1JJAYodBS0AqLzAUV5qtDLI5sZ8+d9zJ4+3coXf8lxObd2N4hRKkHilWIKs7psdAL1SHk8CbKY1voHR1lceoMNBYomAQT11ls1endthsrJCKKsATu43QERZfVQrSFRltcSFAhRAV6R/o5feIYZa2RtTmmzhxmZGwzolgBFbmpDJsgkxrMjDP73JMkb7/EaDxHZF1oaXtm47OyUAgsGHfeMyExUhCgmW/B4J5roWcQGxQQWG+h8HwkvKDwfGQELn+QFSDieeofvEbr7ZepZnWkdc9iyzqlle7ntn0UzxVNZ0rBustvFNIEWClpBZJEFFksDJJu3s3Q177Jtu98j3DbHhjcAsU+bFDKC3t2K1MLInMeC0kTmjVM0qSiW9BYRLTqBFlMsjBDbbZB7+hWKFRIwiJWgOo8rXcJimXk66SAQgDVPka3b2Vu4iTZwlkKyQJnTowzMLIZ2dtPEgZYs4CcnWD6j49Se/05hvQckU7cOwh3zLXe6dNCdO69PEoGCVaS2ohodCvh5m2YsIyyOvfr+Cw/redyxAsKz0cn75OFMDBzkrPPPkZl6hhFE3ec4JZ1SZ1ONZcan82DmudTR7g2gnW+DiLCiAJNWaAW9lLv307h1jvYfs+PiPZcj+obg8IgiAoQ5LlLVlgTEBBrODNO+v4bnHn+KY698DTx0ZMEjRipNcJqRJbQmq/TrNXoGR5EliOkdJ/FhXzmx1pJl7UiRZIEZVQYMDjUz8LUaajNwMIic2fP0j/QQxBp1MJp5v/0exqv/Ynh1gylrIkUbRmxxnt82nQKh7kCZwLhfEasoBUUqezYg6j2uM8r8oI8Hs8F4H0oPB8DC9ZA1iR98wWOPfRfGasfo5AlzkJhXa6JtnJo+1CIdrIh3/SuXHK92J7pEKQgIBURLVUklQUWSwOkW65h59fvJtx5HVT7nEVAyDVm8fMqtQisyTCtBurscQ78/kHMmaPIeBGjBMJoQiEIjCGyhtBCHKc0KlXSbTvY9a3vEW7ajSgOoqKym6pY01ugLQAsGkMKFGnB3CRMHeP93/wj5clpsiRFbd3Mzq/exsm33oHjB+mtzVHVKcI6i8xG+MTvBeFyfLTdRNqxL1hJTYacqWzjur/9X9DX3IgqlIDipSGCPJcVXlB4PgbWBZktTDLx6L+RvvEEfa1xCtoVbBLWPVtinam13dA6XbVveVcmnWRS7slcAMYYrJTEQch8sZfWwAi9N97OyOfvgsExCCt5VU+dNxDngeMkBF15HDNozpKdOs7pJ39L/dj7BCZFRyUK2/Yg+4oMDw2TNVroepPm9CzJycPOx6dYIO4dZOSWrzJ47a2I3mEoVSEog4jcOwk6AthhsFZjhfMrII2hNg0n3uT07x9EnT2JFYY0DCjojEJcp6ATonzAFhtMtf2J3wvdgsKSO4cKsJIkCphQQ1S++j0G7v4RsndkydHU47kAvKDwfAysq+x44j2O//J/pzD+NhUzRyHLBUXXE6rn6sElqHKCoi0qmpnEFqvUQ0W6cx/b7vo+atet2OJIVzr2Nu3fu9dZLBrRmoHJYxx48J+pnjlFM2kghjex42t3E+y5BaoBhCFoA5mBRov4rReYeOlZivMzGB1Tq1Ro9A2z5/ZvUtl5DZRHoDLi5gOUExVWChftjEWYXBSkqYu1bNVh5gTmtSeYe/VZio0moZVI4TJOCljKLWEupRo2eehuW+jlwiJRsBgNUt95M1t/+u8xI3uIwuLKnT2e8+IFheejYzVkNZLXn+X4I//EYO0UJVMjdBmPvaC4Cmknpmo/6FsBmTTUg0HmogEGbrmVwS/fBWPXuGgNGeZ7ri8oLJBgKDRm4dhBzjz1KMmx99F2kXRkB/u+8yPkvhvRPQOIzCJlAFKCtqAzaE3QeOsVxh//LaO1WUTaJLYBrVKVcPt29Kat9GzdSXF0O6LahwwDrHJREFiLyjKUSWBxjtrZceqnTqCPH0NNHKLcnKOgMySqE71xuQkKLWAx7GGyfxvb7/97Std/GcLqimvi8ZwfLyg8Hx2TwNxJZh77Bc03nqEvniUyCcpq13chOv4SbdxAkw8UXm1ckWhp8sJeIYsENCtFFitb2PfN+whvvBX6N4Mo56EP7QH3XH4MGWRzcPgwJx59iHT8CEpp0rFN7Lv7fth7E7rQS4qgiFo2EBpA0oCpcWovPs3ks48yFM+gdIqVAYmKaIVF4jCiIUtQrFLp6aE62E+lp4fZmVnSRkwyP42ouaiNSKdEOqFoWkQ6Rhk3MdPOseHsLXkbv+Sq7LrP2o2wAbUwYrLUR//X7mXgW/dDdVPux+LxbBwvKDwbZlVXpJtw4m0O/B//D4YWT1JN64QGIMu39YLiasTIFENILHtZqIywsGmMfXf9gGDH9VDodzkk3JZ5q2JdQWGtxTbnkBPvcvzhR0hOHEOFgnhwgO13/4zKrv3QM4wWIWBRXcmpTEeuxITpApw8zKF/+S8MTR6hlC0SWJcWPpEBzUCRiQCDxEowUjqBYAUqg8AaCloTGI3CIjAoYVHaItyGGOXa/XJB0U6edekiTEgrhLlChZmBHdzwH/6vMLIPlJ/28FwYa93FHs8qbPfS7iN1TO3UEQqNRQpJQqgtcln/uWyvNRbP5c6SXnR5DTIpyUREI6wyXR7C7r+V63767wn23YKpDGHCSr59W0y0D9DdLvK/2RTRmENOnuTgow/SOnUYEVqSoUH2fu9+KtffBj2jGOMmHJRd3Z25oV5hgiL0j9C3xZUml1iU1SiTUTAJZd2iJ60xmC0yrGv0t2YZShYYjGcZyubpTeYpZ3WKJiayCYHNXLGvZf4fTmiAdYXN8uJmlzwiJTAZhTRGLc4SnzkBaWtZUTXbrl3i8ZyD1Xegx7OClTJAaws2g3iBxvhBKkZTMgqp5Wp39U4yq3yhK7GV57JnKduIRIuARhAyZSpM9e2g7+4fselHfwlbdkNxEKlKSNm+8DJPhb1SUGiwGYYMGjNw5gAfPvyPiGPHQRqaQ4Ns//YPCPZ8AaOKGCuRKjfNCzqFvsiznQQIIkKkrYAs07QCSwZWYG3gMmhaKGSWorFE2hImhooWlBNDJbNEmaZgLQEaiUZg8vwSBiEyUCmoLPcb6hIVneVSxoJsEVhLSQsqWczssQNkaQ1N1klO7mw9l4lA8nxmeEHhOS8ru/wgFM4hs75A7fQ4SmdYzAV4YJoV5m7P5YoiBTJSAfUwYCEq09pxLZvv+D79N3+doDzq/CU2OB9vCGiJCNmsw7EDHHvsV9gzh7Aqw45s5bpv30953y0u5TUCKc/fhWkAaUAZrE1IMWu2vLU1bvfatbdw5FYJzIpd2uvXesdLA5PX2ZEYCiZj8fhRgrSJMilYd64umeRcnkua89+NHk/nGbSrW0wWXbbA6bMEpoUVGVbarvTInisdIQRISaIC5oMiU8UBmlv2sefen1H+0regdwtEPa6K5YYQCDJUcwbGD3Pgdw8RnzzqAkY3bWH/t39IcM0tUOp31SZE7mOx0iq2Ept7U9RnkY0FpDbIFeXDz5VqeuV2a2/VJk+4stI4ce6dPlNkPm8lbUYhiwmnJmF+GqGbyI4Y8kOF5/z4VuLZEAKXW8L1kSnENeY+fJ9is0ZgEhA693K/hHtOz0XFWkuMpBGUqRUHEDtv4Jrv/xVi381QHgRVwAgw61gEliMwxk1zBOPvMf67XxNMnEIJSdI7zPY770Psug5KvWgZYhD5HH8+hXYOlJBQr8PkWdKpCcpGLDlvfhTOues5/3hpkme7EmgKJqFUX6Rx4ggkdSDNz/P6gsvjaeMFheeCcANDAnGN8fffppwlBPm8shUWk097+K7nysONwQKQWKFIsCyKkIViH3LHdey99y8R226EwgCIdn4J3HTYuvPvLoMjZNh4AXvmKO/++r+THH0PaTRJdYhr7/1LKjd8BXpGMKLtdyGWfHLWxObvmbnslrOTnHj+aeT8NAUj8qqbHxHb/m+991+j9a+12SWBu54gEBgCm1HOmpx453VIWvkWbUHh8ZwbLyg8G8aKfNrDZNCYI5s5RcGkCGs6DmlGGoSVnYUVi8tP4BbfSV0+WAGpBEOI1gViG9EoRsxVB+n98jfZ+dO/wW7eC4VhkCFGgsl7F0GUZ8NciQY0CZpW8wz2zFsc+8MDVKYWsYGlMTrInu//hPC6L0PQAwRIFDJ3uJQohFCdEM02bpg3QAtjFmDmQ84++yD2yOsMiCbG6LxeyErc9MlGFowBY7C2veDaOM4v2VqBtS61tVt/Kbd1BdZVINXSEog59OwpmF/MP7td7Wzt8azBWneVx7MuEhA6ZX78OIUs7awXgLDtp0LPlYawEGqJMhqjNPVKkTP9mxi4/QcMfPUHMLQLEVWWOea2n33X62QsoNEUmnMUT41z/JFH0MePkMmUbHg7N3zvbyjsugGi8spd18cCZAiakMxjxo9y9g8PsfjOa5SUIgkKpFGhk07LkwuwFXpHNus0z4xD6sqvd6xCHs85WO9e93iW0TbuSiw0asRnT1PSS4JiCd/pXJkIrA1pqYiZqMJU7yhb7/opQ7ffA31bQVXzJ92NCkqLIEXFM3DsIMd+8wDZyZNYY0gHR9j7rR/AruuhZ2jFfuLcEQcCRFpzDsOnjnL0j79j/r3XKVhDTUYM3XALWVjAbiA65COxcmS+jOj+5IW4RTJxFpoNNz3kna09G+ATuqs8VyJu6thAq0UyNUlZp+21Oefo6D2XNRZIZchc1Mvi8C6u+8Hf0XvzN7EDm9CFKkbIVS1hffKy9815mDrB8T88THziMEIZ9NAo19zzE9TeG6DU4yqQrjpaW1SsxAIxxA04cZwPH3qA1gdvYZMWWaWX3d/+PmLrHnQYfoJ2tMv4HminigHKJiOZmoC4Bbbj/urxnBMvKDwbwnUo+ZRG1iKeOkvRZHkSnyU2nIrCc4njLqQVoBFkUlEvVIg372Xv9/4K9n0JWxpFE+RZFPNhdN2xtD0kGbApplUnPX2Md3/1T2THD6KEJhseYv99PyHY+3noGwGpOi6b5ydvoc05koPvc/CRhxAnj9NnE8zAMLu/9yPYcx1nGympSRC+oa6LAIpW05w6A1kMuUeKP2Oe8+EFhWfDWCxxVic9cxjRmCbQMWFmXJIrC9IIlF53RPFcNrgQQiMsTSSLqshscZCFPbex9Qc/Q950I1m1hFUhkiKSoEtHiHz/ldrC5YLISMmaZxHjf2b89w8Qjk+ipSDdsp3d3/1r5LZboDIAIgJU7n5JlzdGnuehHTjSHumsJm3O0XrzJQ7/7pcwfRQTZiQ7trH/b/8jXHMDFAT6xIeEtgk221gOi6sE51QNykKkQdqUdHECpo+TmMaGAn89Hi8oPBtCABJDaDJmx49SsBqMcemHl23luTJwg7ct9FArjSD2fJnd9/yYYNe1EPYBJaTuFhIraVsk3KKxZKQEzTmCk0c48NsHiU8dJbUZbNrJdff8jOLO66DgMmAufx5e8S6uMYLM60ukTZg8ztyzj3DksQeQ8zOYsEy0+yb23vPXqLHtEAQwN0frzGlKsc4rhHrWQliwWYbSCXMnjxCYFLnsPvd41sYLCs+GEFgUINMm8+PHIW6xOmDPbblqAPBcVlghiQmph1Vmon7UvlsZ/dZ9MLYdW+onJURY1ckyvfxqd69pCwqAFJnMwvghjj/5e8TkGfe3kU3su/MHsP16KPZCEF2AcT2DZAFmTjL94h+YeekJwsYiJojou+Ymdn7nJ7DtBnRQgGaT5NhRomaNKNVILyhW0T0LpBAEOmP6xBFkXEfajinoAq6P52rDCwrPxrEGFudI56YpWINa2bd0xhIvKC5njJC0SlWmysMUb/4qW753P+zaja70ovNcEMouv8xLv65x7Y1GJQvIs8c48NAv0MePYLOUtHeQG37yt4h9N0G5DxMW1nCWXC1ZAJcXobYAM8c58ccHOf3np1G1WZJCic23fY2xO++FLbsgKKFUBAs1jrzwPKWsRWDsmlLYsyQqlJCEOiOZnYLFOYRuWyhW3vQezxJeUHg2hrWQJqTzM4Q6IbSmM7vtuYIQglRKZqMixZu+zPAd92BGRqHgikcFxqC0BpvmUw4uCfa6WEur2SQ5+iFHH/kVlbPjBHEDNTrCnrvvw47td+m0c9cINjJcWSdSsonTHH3yQabf+RNFs0grLDD2re/S+9U7Yct2iELQi7CwSPPDwwRzc4Qmcwm3fNM9J8pCaDVh2sQ0F/KT7k+a59x4QeHZIBaSBq2ZsxRahkg7OSFE7jYn8mHF9zmXGQKs84VooZgr9nOivIXibT9hy3d+jNi0FaIBsAMIG4FQIJUL5xRq+aE6FnFXvSMlI0vOUph4k2OPPUh2/ARxoGlt28bue/+a8r4vQbEXI0KXAdMKhO22HXQOCDq3XRgNzSnssT9z9rF/Jn37FXoNpOVBdn7/Zwzd+iVE/xCo0E3SCQnNU8weeZHeYIFANMiUk0Hr2D48QKgthcygkox4dh6kWCH1ur1i24vnascLCs/GsBoCgVlcINCZazh5b9zulG3XU6bncsKSiYhasZ+ZgS0MfOO7jH3j2zC8CR2U2t4zXdMPXUOxXT0suyJxKWF9luD4ETfNcfoYIpCY4W3su+uHqC17odiLFQohu+pzrCIXFMKASaA+iT30Noce+QXNo+9hCdCD29hz1w/pueFW6BmBqBdE5AJO6y3qB96hdfIoqlkntBZlXRTKqsa68vXVjHAO11KnpAsLoJN2IXiPZ128oPBsDAHoBD03j7QaKzVWGN8JX+ZYIFGS+bDKdM8mSjd/lZGvfwcGhzAUyBB5EOh6rFaRhgRRn4ZTRznx2KPYkyeREtK+QfZ958eIPTdD3zCoIC8bfi4EYLC6BfUJFt97mTcf+RfE6eMIpWBsJ7u//WMKN90OfVvIVAVNCEikjmFmmqMvPEep2aAiQ5SRKGPzNPGe9TDCIERGoDPiuTlss75yE49nFV5QeDaIhVaTdHoGqTMMGUb4J5bLnVRIFoIS0wOb2HH3j9ny9e9iKsOkFElRSEI3OXC+cb89PlsLtSnEmSMcfOgXZMcOEyqBHdzEdffeD7uvy9Npu6RV50a4lEpZgmjOMPfGcxz+4yNEtQmE1ES79rP/+39BcN0X0OVRUopYCrkISaE+S/LenykvTFHOEpSx+TRIbqI/33e6ijHSINAEOqM5Pe0qj244rbrnasULCs8GsGAyiJu0pqZR1pUr9/Omlz9ZENEYGGPw63dRvOFz0DOEtBGhiSiYkMi66p4b8o+xliSOMaePcvSJRwimx4GY+kg/O777I9h5I5R7IW89Tk64dmTXsYSkSUo6P8PCC09y+g+PUJ2fBJkir9nJ9u/9NWbbXrJiGY0itAEBoEghmYeJI0y89hyldBFpY7TUxMqSSoOVbiplmaRZ/fZXLVoYrDAom9GYnXYl4LV/gPCcGy8oPOchn8M2BpqLZK0JAq1ROkSYaOXGnkuAtjdCt1eCFaCFQosITUBdFZkuDzE+sJ3+b9/P8G3fQPaPgiqDKi3bufs4q7AGhMHQguZpotOvc+S3D5KNn6BlY+LNm7nxR/+O0t7PQ3UYRAFrJcIqV94e4XxvRJ7Y3UqssS6dd7ZINHOC4394iFMvPEWY1ciKRQZv/jq77vl3sHkPstSHRBGi3bx/lkHWhNmzHHnqcdT8JD1xi3KmnaOhtij3hl1GlXZZ8hXf7SomNILACJRJsbUzCN0E010McGUrW7eFeK4ivKDwbAALVpMszBHYFGUN0oK4jCsrXk1Y4RwlndOsJJMFGuUhZod3sPlb99F3/a1Q6gUKWIKVu3dNZ6xYn5vGtY2RjTk4c5RDv/slYmqcLMtgeAvXfPuHqK3XQKGKJcgdPN0A5KwSDmlNno3RYE2GqM/AmUMc/8Ovqb//MjarEZfKbLntm2z65g9gaAdWFZxTZ340Z+3Q0Kwx984bmOOHKWQLFHSKMgaZ505x7Tbfq31efFNehrQCaS0KQ2RamMVZF2HTYaWY8CfQ4wWFZ0O4KY94YZ7AaFTe8bu5aM+lRne0jcnFhBFuYiETklpQYbayiS3f+D49t3wVeodBVeBcmUXWEBMAMSm05mHiJAcfeZD46GG0SdD9Q1x/9/2ovZ93YkWGK3d1CBDW1Q4RNkHaFjJrwMQx3vjX/8ri+6/C4hStYoFr7/4xPbffA6N7ICqv7dBpUpg8w+TLz1GtT1PIGsi1U3quEhErX1/NtAsBSqsJrCaen3Ohuxua+/JcrXhB4dkYRtOYmkJlMdJmCOGSGnkuLaxwV6VtlWgvFkhlwEJYprZpF3u//zMqN3wZ2zMGsgw6BOvySmz8qlpEcxo5/iFHfvNrgjPjRFLA8Gau+c59sO9mdHmADIlZ4dDX8ZmwuXVBZKAbUJ/CHniDgw/+M6XZM4Q6ozA0xnXf/SnB/tuw5TEyyhiCjsbpZK6wGjt9ilNP/Zby5An6dZOSyWWSWFpEvsiu34XwuTOXIQwIjSSDNKY5M50LCm/O8ayPFxSe82JxPhTN+VkCQKJdHQUf5XHJYrusE+3fW0GBeHg7m+++l+B6l+5aaEks8oRVne5gHXNEGwHWGFqNJtH4UY4/9jDy5BGkSbBbxthzz0+J9t0C5V5sp0CExRVCd8KiPdlhkc4PI01gYYbme69z7JF/pnz2GIEWqM3XcO1f/idK198JvVsQqkRgXGVbYRRY6VqkNjQbDRY/fJ3WkbepZnUUGmmK+TarOc+3vKqx+QODwBJgaM7Ngs5WbubxLGPtO83j6epwhTHQqiNaC6hlA4Tvkj9Luuf/O0vnrwpsiDABWpWpFQZZHN3DyLd/QOHamyEsg4qwKkQ5M0H7qLnFoHOgJYTBCAvEiOZZCuNvcvChX9M6eZRUaZLRMXZ++6cUdn0OykNYI1Gu8sfSjIMFYd1gJUWKEmke4jnD7BvPc+zph9G1UywGguL1N7P73vth2x5XOMxKl2CtHSNiJSb3yVCtOvrDt5j40wNUkwkCEbv3sS3nV2GtWzDYfMGuWHx7XsKGrg1hCRTUmzMgWkCSn3sAm//zeBxeUHjWpt1nABgLcQxpE5kPWs7q6buSz4z2dVixLN9AoUWBWtRPbXgXW+78AaUbPw9RFWSEQWKERNl8WMjF4lpagnz4aA/+TB7l6BO/xJ49gZACPTjKNd/9EeG266DQi5URiACBRORRHViJFSJfcNYKvQALpzjz3O859fxTiNlpWkFE8brPsfmbdyP3XOfEhJRuyiL/JO0fAiCpw+RxTj/9Wypzp4iyGsKmeQRK2vnkS8PfOotvzh0sAViFyAVgljbB5OKss40/ZZ7leEHhWZvuUcVa0BlpmuWOcK7mwvpDj+ezxmJJpXPAnO/bwtbv/JjC574EhSqooqtxgVh/SFi5WlgytIvmOHWMdx/+FbWjH4LKYHCUa7/7U9h5I6La5wb/HJdbQnamJoyQZCKf+Gg1YH6KqacfYeKFPyDn57BhH5tu+Ra7vnUfYutebFBFZ+3IkG6copImgdoZTj7/O6JTBymkCYFxxa3E0maej4RAWoEyoOstSFdPca68Kp6rGy8oPGuw8tnDotMEa60LB8wHiZVho+5pZtkqz6dMe+ojDULmogoLm3az6a4fEl1/GyYacNEcIsrDNzl3pdBujEbG03DqQ04++TvU6XEiJZFjO3IHzJugMoBVwaoEVe13sIDBEGIIkgaMH+bMYw8w/cqzlLMY1dPH6Be+xvAd98HoHjLViyFAtfWEFEuLyC3yixMsvvoUycFX6G/NUE41hQwCcwFt0bYFjx8euxHWCTOlBUUj0I1mPnWU/33lDp6rHi8oPOfBiQudZWRZgmhXFW3T1at4B/BLhziqMNc3yu77fkzPTbdAsYpUJZfYSgSYvFLohmpaWEvWamJOHODAw78gPvQBRSx2YJhr7vkZYvcNUKxipco9MJx06LQUYbHSYmWGoAWtSTh1lMO/f4CZ158lzFKSSj9b7rybwa/fCUPDEJRRiC7/jpUNS0M8Dcfe4eTzT1FtLGJtSmicmJDruIF4NoYVriCbsJbACkINyrRTlrfTlq988PBc7XhB4VkT2+nCLaCRWUKQadSyXnppC7osFBt+MvR8dKwbNKUFZUBZjRQJRhgWoiqtsd1c/9O/R+y+AVEZxCIxGER+1QS5S0L3suz4LvUyxNCaRJx+n6OP/RY7dQoTWOLhEfbc8zPEzhuhOoIxbkrD1crID2idFUvgwoyliQla06SH3uCDh/53zOkjhCIiHd7Gjrvvp3rLHdC/GSsjrJG52HHiRAuzNHTpFmSzxIdf4O1H/pH+2jTlxgIFq1dZXFY1xVVerCu/uAeceJC52JSA0Alkae7Y2j6rK21RnqsdLyg8q3D+7u3OwgkKpVOKFnTqnNw6I1BXn9zdufiO5pNnSQcId8WEJjWGWrHC2Fe+CTv3Q9QPhBic9UBiO4vbf+nfEhakwdgUWrMwc4xDj/4P7ImjWGvIhoe55ns/Jth7KxR6MIQIGeXTYG76wAmY9gdNIavDwgT6gzd49+F/oTh/iiyJSfu2sveev6B8w1cwlTFQVYR1zpwuUsW1tqztDmhTSOswcZSJpx+hMn2cntY8ZZMS5pkc29Euq8TEMvXUvXhWIjpRMfkJNTFWdwuKpTPsz6CnjRcUnvPgOo40jUniVteapb+uxXrrPRcHK0DnS6osrUDRVEW0KmJNwsLUaWjUXO4Aq5AEyNxv4nxoYAEN8TycPMrhB36JOX4EZIIa3cL+b/0IsfU6ZKUHY1mWsVLgUltb63JfZBIsGdSniN97hYMP/Rvl2RmaLUFh781cf//fEOy+CVkdRcqoq+HkxxRO9EgCNBLSFkxPcPzxPxAcOclwaigZZ5pfape+9X188rMprBNonbBaN92xPFrG43F4QeE5DxK0QWtNlqVg9bInkrWeTrwV+ZOjfWrbg3WioGkDFlU/zf5dNEtjkArGX36ZxddehtokiBRhDUKbTiGs9REoDCqeRJ38kGOP/wZ75hRSSuzmHa42x76boWcYi8swuRLRNpNjCUwNMXWK+af/wLFHHiRaXMAWe7G7r2fHd36I2H4dlIZAhO2dXASKWF4yPQAKugWzZ5l96Y9k77/KQKNBRScom4GwTsgI0zXYbRRvrVhF9+mwljROaDSa+Wl1Es95xfohxLOEbw2eDWCxVoM1BIHy/e5nTW7S19ItSc8A8c79DN/3FwS33UFc7iMyKSdefIqZl56D2dNgFjAqWXGglQOvQOuMrL5AcfwQR37za/SJI2BSxJYt7Lzrfth7I1T7MDKXDPnT6rLhW6QgWyi7CHOnOPLkb5l843kKpklS6aVy/Re4/vs/R23aDZX+5XU+nIljeRuzxk2ZzE2w8MqzzL/xLEPJFAEtrEwxUudTdHbVrhvDi4nzYk1XhIc/V5618YLCswrXXbTd2wQYi00zAqncbHv36NHlhHkhz4SeDbCG/6AWKveHcKXI62EPzU272HbPX8D+rzD0jfuo3vw1WoUiUVbj1Mt/YPblP8DcKWxSQ2BcTTebD6L5RXOFqTNUaxY5fogTjz0Kk6dAGZKBIXbe9UOKu2+G0iBa53lIrMhN4HapRgYCrEHEizBznKOP/YrWu69hajVapV4Gvvhltt51NwwOQ1RylghLl7jJIwmMzI9vQbQQtTMsvvEsM68/Q099gqKuI0WyFHGQGzREft7cubNdqb/PRfu9N7Lt1UTX+djQefRc7XhB4VkD1yN3+nltSetN5Eox0bU1+RjlpzsuHt3DXHvJhEIToilSV300N+1n+70/h+03Q3UXDOxhy7fuZ/jzt5MWFGEyxckXHmXmlT+h5mbAxF1iYun2zzDodBYmDnHwoX9EHzlCK2uSjgxz/Y9/Trjn81DsBxuiZMFlv8SVuF6GyaDRhPHjvPsv/wfxWy/Sl7TISoNsv/M+Nn3rXhjdCsUCBO1KZiypAFjqlqzAkGLiOebfeZFTLzxKZW6cStpwES4YlJVIq1xGTpH7c+SZODuZMddqtMvwYmI9lpyz6aQvtyyl3vbnzdONFxSeDeA6Dq8VPntCo9FCMlfsobXzenbc+xewZQ8UXflxVAg9g2z6xncZ/vwd2OIgxUQz/twfqP35TzA7jZHx0gGFAmsoNmaRhw5y7NFHCKZOk1EnGNvB/jt/DJv2IoqVrgGfXJAosAHCuFodoNGtGez42xz9/S8onj1JwQbMlEfZdfePKX/uNigOYigD5bxexEokINESMt1C1ubRBw4w/cen6Zmbo5jGSGuxK3w3nPz1g9snh6914jk/XlB4zkPbU448WdHSQudJxfNp0UAyU+xlYfMettz1Q+Sum6Ay6kqQt7v8oArVzYzc/n02fekuGkGZ0BhOvPQ0yevPImdOQque68QMmjOI4x9y8NGHaZ04ilAKsX0P13z3x4i9N0LPILYrnXYHIUCCkBnCNKF2hvoHL/H6g/9A89QRYm1IhrZx00//HeVbvgr9YxjVi6XgqoyeA4ElaEzDyYN88Iv/Tt/kSXrjeSLbLk61TsSKcFMmwgWxutLl3mx2wXTKy7dfWfLQYif4XNvptip5PF5QeC4Q3318cqz0l1iLVnUAvX0v1/7gJ0S7roVyP8hi5+/Oui9diu3eMQa+8k22fu2bmHKVIK1z5NmHWXzhaVichHgBGrNw6gAf/v4B9NnjKAXZ0DDb7vwR7LgGKn1oqVzeS9G2AuQq0losCegazJ5k4fVnOfrEryktTiIDhdyxjx33/hR27oVKH4gQgVomUbvGrC5xmiBb0zB9nMOP/iv9tXHKep6ABkKkCCxyLSG7cmrjXCfScx7aYkGssEzkF8qfVs8aeEHhWZP2s4jrpF0sOl1di+h+4fl4dD3odQ/Z7ineFdRKZEg9LDPdv5kd3/spbNuLKfYAK6YNOr6SAmQBBkYZ/tLtbLr5NpIgpKgbTL30NK03/wRTR+Dsh7z7m38hHj9AoAx2cIT93/855f23QXWsUzHUIt34LDOQGUidp2ZuYudOsfD+q3zwh4cIJs9gjUKN7eLa+35GsO9GKPWCCMA6H5zO9ETbabLdCwkLNobWHGb8AO8+8E+EE4fpM4sENJFkCDQCg7RmDb3gG+RFJfeXtUJgcp+UZcqvIzA9HocXFJ5ViHZfYcj9/zUE0nUqbW96349cFGzul7jWDLUhwhARyyLzpQFqO25k91/8B9iyH6I+pIw6GSnbi25fNuGcaTES+jYzdNtdbP3inSQUKTbnGP/jA8w99W8cefC/URr/kKJK0EOD7LzrR7D1Fij0uWkFEyBsp6qGc5KkhaEJIoGzE0w+8wSnn3iEoWaNQmGA/pu+yb57fw4jW1FFV4wM2y2c3C8GSFzaKwwWa5oumdapE3z4219QmTpMTzxPQWeEFiKjCIxEWoMQWed8OfN8XuDLtsul+0foj4sTE5AJQZaHKNN9CVc2WM9VjxcUnvMTRIRhEdPVR1uWnqo9F4eVUx6CjEwoGoV+asO7GPveT4m27oFCDwTlPN2Te95vCxKZpxvCaicv8tLzRln6r9/Lpt1jQINya4rsnVeonjkBCNKtu9n1vfuJ9l0DpXDVg6gyTrroXORIncH4QRb/9DvmX32BsJWge4eJvvBlNn/7Lhgdgah6Tl8JiSBA5nYYjYkXsWePcfixXyLPHKGa1CjpFqF1Qa1AXhvENTzf/D5N2tfRJQ6z5EXCvKrwdLH+3e7xdJ5CBFGh4Fbko53LN+C79ItJt9XHIqlZwWJ1gHjrNez78d8idt/kpg9U5C6MTRFkKAwii1FZC5EsQH0C5k/B2cNw9AC88wbzTz/J+G8fJhsfp2xiisSE6SJBskghEFx7yxcpjm2FchFIluo4dCEsRBiC2hycOcqxx3/N6T8/BzqhWaqy6fa72P7t+2BoC7bYR5ZLhs7Iv/qQea5FDfVJ1MxJjj75MOr4AQbiBSppi9CYZe3MdrXB87G6RonnwnHnTwqFEEsVYJaXmfN4HMKeOw+v52qlY09OIF4gffsFjv7qv7ClOUFBG5TVCKudmVm6KXvIEx5B2/DuOQ82n6fukL82KKajPppb97Pn+z+DXddjCj3uCcBo0KlbrIGWqwRpF2bIFmeozU+QTE5iJqeJJ88iGvMI0yLUMWWTEtGiFYCwIcIENAJF+PmvM/yt+2BoDKJeML3dn8o1CGFg7jTm7CEOPfUI4uRhrBQkfUPsuuNuSvtuxfaOoYI8YRW07SXrYJ14SWoweYTxPzxI8sHbDDQblHSN0Ca5qUYgbeY0hG0PYt0Z1VYPbN2C11VN9VwoNk+k1gxKnO4ZZtv9/zPl678CxV4MAQqdn3f/XOpxeEHhWZtlgmKR+O3nOe4FxcUnd3brnG7hwvUyqTg7vJ9dP/kb2H0dlAbcJHZcBx27ZWGG1uQZ5g5/yOKpk6T1OWRaJyCjGCeU0owwbhHYGBsYhJAIG6AlLEYFtCi5mAsTM6tK9H/ha2z51j3Y/q0INdTVBvLKk60FOPE2b/7mn5ETR+m1lplN27jmnh8R7bwO27MVpSsombef9caa9t+IIZmH+QkOPfxPhIffZqC+SCGzhLYFWEz+VBzYODeWtYXC+QRFez0bzJbpWY5zxNYioKlKTPRvYttP/mcK+7/kBYVnXbyg8KxmWYtIsOki8Xsvc/Jf/lc2N856QXFRyaMd8tNuhCSVkmYUMPCD/wW590asCkkbDczUWRoT42TzM5iFabKZM9BYpJIlhCbrmqWwRDomNIlzpLWurHcKtERErTBEPLqN3bd/lfmZaeZfeZ1KXKOmFH2f/yrD3/geyfBeIpFbF1INrQbNd//E+B8fh+kzWKEp7dlJ/3f/ksrW/YioN3cizWt75UNNPvRjXCkxN/TY/NPEdZg+zanH/w194FV640VKWYtItxNvuSN0N8e2RUfgHYM/UYTB4gRFXZSZGd7Ktp/+B8K9n0cU+9AoLyg8q/CCwrOaVYKiRnrgz5z51X9haPYEhUwjrXZz38YLio/HckFhhUQLSRxISjtuplXs4+TUDDpuUdUJZZOidII0CYGJUWiUAZlHOIAbaYXNkDZDWnBuCIJWGDFf7mW2fxs3/uW/g4FR0IZTf3yCxddfpGwT6sDgrV9k8Kv3EIxucZ+qPk/r1ec58cLvCJOMmIi0f5SbfvZzGN0BURVsBCLC2KVZjm5B0UaA+0DJHEwc5djjD9H88DU2ZfOUsxahzpCmvYcXFJ8ZXYKiqarMjmxl51/9J9hxA4Q9XlB41sS3BM+6WAHWCoSQhGGIkK5mQtsxKx8ePBcJCSgDgbGEWtM6/h7pwVcZmT/BWPMsA80z9CxO0NuYozdxpbuLOiUymsBoQpu5xaRO7AkBKKyMiMMyi6UBWqO7ufae+2HTbqhugsooW+74LoNf+CrNqEBJt5h95RkmnvsNnHkfJj/k9DOPcPTZR1DNGWIJQzd9npv+4t/B2H4o9rlqoXkmTSlA5nmPlsuCtpiw0JyBMx9y+pnfkh78M0PpHOWsTmjjPAh27bbV1qpLhck8nxxtievqo1grXJp2XEyOY+3r5Ll68YLCsy6dB0AhEUGIEK4zcZ7zS6l5/YPixUHkbgHKOlFRME0qWZ2epEZvWqdsmhRFi9DGzkqhDVJbhDUIoYEsX/TSc72Q1JBMhyHNsa3s+cHPCXbdAKV+CIpQLEP/CCPf+AZ9N15Hqgz9uk7jraeY+eOvmXrqQaZf+xPFpEFaqjJ8y5cZvuMeGN2FifqBggtfbU+PnKsxmAxas3D2MCcff4DkvVcZShfo1U1C40JDjeiWH2sMVrbd+jyfLEuCAiBQAagAkJ21vrqPZyVeUHjWZam7EBBEyDDKX7kMhybv2dsPjKbrKdLzMbACZQWBMYQGIg2hhsAal0xKxu6nzVy+CaHRQqOlRkuLlmCEc6pLpSLu6aE1Nsrue+6FTTug3JeHhbacY6QxtAqKkVtvYNvnriMgZSiexrz5J9I/P89As0FMyOY77mPoG/fB0HYo9eJ8L2U+x5Ff+Hy0WRp02r+kEM9B/QzHn34EeegtBhuzlHVCZDIEAk2AJlgxlC1HdLIzrreF5+LQFqRO6aoogihylVw72/g8FJ7leEHhWU0uFAQWpMCoAAp9ZKo/zwOA60h8ON5FQOS+D/kiwAqDsAJpFRKDIHOLVQiKQNFln5QKpMrdHTt9f74IMqGYL5SZH97M7nt/AtuvhagEugXNaTh7jOzQ26TvvkT6wp9ovPQKC0eP08ogSKpUkwLVVCGCItu+/W2Kt9xOXB6GsJwPJM55sjOkyHauLQ3tyBWLe7/aHJw5yclH/g116C3KSZ2CSZ2YsAphA0IjCDr+E+4JuPspWGDWzI/hufi4BwOBtZAISz2sQqGEVaqT3cNXePWsxDtletah3VkYLBoxN8Gxf/h/0X/keSppC0EGwqC0KzXddsqUVuSFm7zYuCDE6r5ZrCjRvR7LwyLdPsIoElVkurePzd+9D/bud8JloUYyM8Pk4aO0ZmYQcRPbWASbIHQMOkEaS0GErlR6mrGoJJu+eQc9t/8U+regwwqWgACNzT0w1/qkFhA6c+JlepzjTzxMevRNButTlE1MqM2aRb6cO2DuKwFdT8vdbcr7UXyiCI1FksqQuajEwv47uOZv/iNUR3HpzUCSdKlIj8cLCs+6tAWFdYJicZJj/+P/S/WDP9KbtlA2w2JRRnQEhUAgjBcUF4uNC4qVa5yg0DKiOTxMtOda5kzAwuy8CzlNUmRqXFioNchQkUqBLZQo9vajiiVKfb0UTMbZd99BpU1aIYze/n0Gbvsm9I+hVQW1yoKQi4h2j2KNc8CcOMzpPz1G8/0/068XqMTzBEYjrUSsKEPuJKxjSWwsCYqV2UQ9nwwCMEhiFTJdKKK++mM23/uXUB4GQnedSduuxCt391yleEHhWYe2oMAJitokZ3/3z8iXf0tf3CCwrqSTtK5omBHuiVJa4Tz5vaD42KwrKDqrLVixpqBoJ8eqq4iGKmJUGWMU2oJWAS0rEIUiqlpl87799O/cC9UB6Bl0jpoKMAmzTz3O3BsvEiWzzIUR227/Dn1f+hb0jYEqYDuDyxLCWNAuIRrjB3jj4f9G39wZBlrzROkCBZvm0zQBck1B4Y7mBMVSO/SC4tNDWIURimYQMhEVGfj+39P/1XugONBlkfCCwrMcLyg869AtKAyiOc3icw+z+Pg/MRA3KJjUPZ9a5QXFJ8R6gsIJCOdhgM1nssXyqhX1MKQRFEBENGWE7ulB9o1SHN6OqPbSs2UrhYEBVG8fJiohwxKIApYIRAEhJUZb5MQRZl/4LTPvPYNYPE2juImx2+5m+Ct3wfAIlt7OwN5+f0ECjVk4dZRjv/s35LE36dUxhSwmsE2EgEyESCThimbiBcWlgsKgaAQhk+UeNv30/0zl5jtcWnYvKDzr4AWF5zzkntytBfRbL3Logf8Pm5qTlHUTZS2CAJ2PJM5/QuCalBcUH5f1BYWL4HAvDIkVJBQg6iUNy6TKEPcOsVjsZWzXNfRu3UU0vBmq/VCquFSWUSFPaelqZSzlF5C03e0MFqUXYH6CE8//kfpLvycioy4i9n/zexRu/Qb0DkPgon86NCZg/CgHf/MA1fEP6YvnKNjElR3P25MRuQhxmmgZ6yesWvmHtc+P5+PjpjEVNVXkTGWE6//+/4LY8zkIql0Cwie28izHCwrPecgFRdKEI+/x9j/839nSPENP1kAZQEiMdJt4QXFxWSYoOkXEcq8F2+7ILYsyZD7qJRnaxugtt1HdNApDIy4TJhGokovMUCFWti0ZYo0B2a1r2wQMmoDU1fCoLzDz4u+YeOMlRLNBTMCu279N71e+Cb0j7j1Mhm3NIsYP8uHvHkKOH2O4NU9JNwhYbl1Y+j5th97O6nMICs+nhZaQCUktLHO6Zyuf+4//NxjZBUGlS0B4QeFZjm8JnvOQDzxCQrUHggIGhbV51jzhRp+VQ5PnkyC3TFgBVmFtQKwK1EsDxJv3sOcnf0v16/fAjV+HrddDz2boGYXykBMUMkTkBcNXX7HlAsNAHhwYQHEQKv0Mfu07DNz4JbJClSBrceKFx5l65WmYPesqhrYWsScP8t6v/pHC+CH6W4sUdYzAhZGei7XkjeezxAkFIxSl/n6X1CrPhrp8G49niZUtxONZQZegiCJ6R0axMnBmT+uy5rW7FcF5xw3PhdIZaXOfCQAkFsWClUwGEbMjW9h+949g5w1Q2QJqCEQ/UHYWimUd/3qDgFvftk6469qeH5eYYj/0bmXT1+5h7NYvk0VF+kTG3PNPs/jyEy5N96FXOf7wLxmcPs1wa4H+LCYyFtVOfLWOahC0c2d468Slgou+UVgRMLBpMxTyKbJVF3Dla8/VjBcUng0gXBKlQpHewWGXe8CqrjwBnk8KN7i3h3iJsAYrDKmSxL0VGltG2PP9HxDtuQ6KfVgCdPcUd/d8Qj6RsTZuaqs95i+N6wKNJCEA0QP9Wxj66rfYfNsdtGxEtbnI9DOPYv/4AJO/+xeKZ45RzBqovDAZOkSYItiuDJi+2Vz6WIm1CisUhVIVG0bY3O/F41kP30I8G0MKCENk/wipFBhhQFiUXioGBX6wuPi4aQ4jBFZomomkIYvMlsrUNu3mmnv/E4VdX4PSGJgQ8qd9xFozG90v2tJh5eLo3lUCIbgMmEEF+nYy8sVvM3jb14hlSCU1zL/xFpUzJ+nL5iiZJooMVAphAirOs2cu0W2I8E3m0sQISSojTKUPQSmfLvN41scLCs/GCRWydwAdRGjZfnLOhyJvqr6oWOGiOQQgjUAaCVZhCiUWSj3MD29l+10/Quy4CaJBLNFS+KbtsgSsGq1XCojVYkKsEBTCGb87VhJUBNU+Bq+/jv6hAUKtqVpDKU2JbEKAQQqDlRqrMqxwWVXdd1ouJmCFuvBcElhh0UJiohKV0c3umq9uTB7PMryg8GwQAUFI1DtIGhVJpcSslTcZ/AhxUehywDQSiMhEgVqxyMLgJvbf9zeE130RWyqv4Sx3LtZUGatYfUTnCAoGTBNqU0y/9w71qdOENoEsyY+6yizidl1LSHguWYywpFKShkVU7yAob53wnJ/V/YbHswbtGfZoeBNZqYdEBTgjtuwqbtUeSNqFw/wQ8tFY4YApQuoyZLpQoj62l933/Bz2fZ40GsGqIjb3mV22nF8zXCDWTVs0puH4B5x98lEWX3iRSlInMgnKZGDtRy5pLcidMlf+wfMZYNFAIgOSqALlHlBrCEWPZwVeUHg2hAshDKHSR6FviEwGqMjN2XsuDu1pjna2p3YSqCSQzBdDWts3s/fevyHa9QUI+vL4i+UZMj8SHW/JZb8ux1qoLcDJYxx75JfU33ieajpNZJoENnGhocJ0Ak5XZavyXEYIRCDJVED/5u1Q7gXhLRSe8+MFhWdDuJLFAagC1dGdZKpIkqYrN1s+GHXHAnZiAtccrjwAuVeKwQmLzBZohEWmi84Bc+udfwe7Pgc9g9g8qPNjs+7l6IoGMU1onsG+/wwf/PK/EJw8wKakQX+rSWRyS5QwYA3CWpd6vf1F8kXYDQgfPy1yyWBRmLDI0K49mKgENvDDhee8+Bbi2Rg2D0GMSgzv2EssQgjD1Q+jq0aNtojIl1V/93Q7YDrhJrFIGihmwjJzg5u55ns/J9z1JSj2gJCfmMd9WwdoNJBBugBTR1n485McePSf6V8cZyCZp5I2CHSKMhY6EzR2uW7seGE6pXCuPBNeal5aZCiysEhhbDMmLKx1Y3s8q/CCwrMxbN7lqwCGRwh6+4k7RYKWbbhyxXLO8+erDgFgnaCwAmkUwoRoEVErhMSbd3DtD/4asfNGTLWKFU52XDSWHcrkJaljJyj0PMweYfLZR5j4/QMMzE/S11qgmNWBGFTaifQhv7TrCQbP5UViFYWBYejpQ6L8DJZnQ3hB4dkYUrgFCeUKhdEtJLKwogmd5znTXuTB8EogF2oWAVairSs5PlfuJd1xIzvv/kvUNV+kVR5Ci3bq7I2eQ7t83mGda9Px3SBFEKNsg6gxR+vAn/nwV/+V+M9/ZNvCBINpk2LSRJosF0HST2NdocSyQDQ8BuUqIF2OtJUbeTwr8ILCs2Es1oUPlMoUBoYxQbEjIdyQ4nIlrPuY6gefDk5buSkgN83h8jSkhZB6T5n5TcPs+M5fEez4HEQ9KKRLLvWxWH3+jZvYwGCwNsFkdWjMUn/jZQ7+4p8pHz7AcH2egonziQ3p6nvYKF98F3Il4CrYumR1ACYsUh4ZA6kQyFyO+nvXc258b+DZIF2hjMUi0dAYTVVCS4ERzmRvIXcV7Op4ls2jb/TJ+mqgnVDb/cx0QCsImS2UaGzaze7v/B1y9+egOoS2gmDDVgnWFA5LWMBg0Wg0FkMACGMQzQbi5CEmn3qAU4/+N4bnT9Kf1ohMiiB3uBQGZL50nlkv5LN5LjU6xeqFxQhoBorFMKQwMgqFEgKJc8n019lzbryg8FwgFmstPVt2MG9CMqEwHZN5l4Bo/567Gi5frmLalolcfoHECEGmKsyXepgf2sLu7/6cYPftEFXyaA6VB4du5Ny1j72eqHCDh/unEaSItIlcmIWjBznyyL+y+OwjbK4dpy+bJ7BxRyxKXB0RKzSILF/Weg/P5YUTihaXHbMWRtQKRcKhERcqnutHf6k958MLCs8FI4IiDIwysHUnLRWhhYI8LLDjNGh9IpyVuGAH909agdQSaUIMEbWioLFpB7vv+QvYdR2m5BJWXTjn6vWdyHDmaxcpIjMDU6epvfI7Pnzw/0d48h2qrUVCbQlWDCSWJU340T6b51IkD8IBBJqAWBbYvGc/lHpAFZaalL/mnvPgBYVnw7h+RQFFCCtsvvZzNIMyLa0QwlWTNMK7bq2HMy1bjHC+JpkIqYcFZsu91Ldex+57fk7hui+TFQcxSn3krJPrYZCkKFIMmgWC+Cz26BtM/f7fOPX4L+ifOsJgc54+bSlkgshA4CN9r3iMsHmwcogRBeqyyOg1N0CxD0QuKCTnEasejxcUng3SfoJxj6YKwjKF7btJghJWFjDaDZidqQ9Ph44DZn5qXAZMQRIGzBUj6pu3suPbf43Ych02qAAStZFEUBeIRBAai0gXKMydof7KHzny4D+QvPscg615ymlKqAWhka70uc6t4d2X1Prre+Xh8odYA0aEiEof0ehWKFSWhXb4K+85H15QeDZI9/AmnSm0b5jK5q0kkHdK3Y56niVyB0zhwkMNIc0wYK5YIt68h13f+RnB7lugbwxD6NJpr/I/2QjrdfnOMoKOoTFPdOIo0088yuQTD9F75iB9rSmqNia0Zsnxri2COpM0bffR3D7evXgua4SVrr0JSYygtH0n9I24e5yl5rfRVui5evGCwrMhXGey1FysiqDcixrdjI6CPHrQekGxks6gLNwiFE3KTEdlmlv2sPuev0Hu/jqUqxhjkcJ17ksJrM4lKNYa2ds/ux0dMjANWDiNeedPHHvgn4lffJqh2dP0xXMUTUJoMyQaITRIg1UWK9siwmLtUm4zjFha1v1snssFYV2BP42gESrM6BiUekEE7vL6UcKzQXxT8WwQly2h87QiBIQFenddQyMokSiFkW4rTzvYpe2AKVFaokyAFgH1kiDdvo9d3/kJYts1UC5hsO6cfiy6RIULvcGSQTJDPP4eE08/wMlH/zvFk+/RHy9QzDLkut6V3vRw9aAwQhIHAY2wxObd10MQuTYgTFfRN98mPOfGCwrPRyeMUDuvIe0doiELZCL0TSpnqbpF/vQnQxphiYWeQRZH97L7nr9C7bkFUx0hQ+b5O1Y+8a98vR5ty5DBGo3VGdgYWrOI2XHqzz3J0X/6r8QvPMHg/DjD6SLlrEVgs5UHWhvrrqr3y7sy0UKRypCaKiA2baOwaXfufL2SFe3RR3J5VuB7f89HRypszzDbb7yVLCyiReAG0KuY5Q6Y7TkCQVMFzBQj5ofG2HX332I37cMU+9CovEteRzwsG8C7X6w1sguEVFhroT4JJ95i9ne/YuqxhxmZOslgPE/RJCgb5/kxtcuOuBHaX8VzxdA2ThkEmQxICmW23Px5iPLpDo/nArm6e3/Px0Shwwo9+64nLfWQShc6etUigLb7YscBUxIrRa1UprVpB/t+8vdE+76I6NsEKCQGda6TtkxjLE1ptG0SS+sNkEBrHjN1isbbz/Puv/6/ab76FMOLZ+lPFijoBGuXPp+Ry4/iuXpo554wecqYVAaYSh+F0S1Q6AXhhwbPheNbjedjIAhkEYY2kQ6P0QwCrEhXbnQV4R7jrZBYAdoqEtnDbLHIwvBWdn3n72DwZmyp7II4rUBaeY58E22zQLfiMGQYYgwJYKwAYyGpw/w4jfef5+Sv/zemf/dPjC0cocdMEck6UrcItEFagRHS+VN6rkraYsIKSCUYm9CSCjEwRjS8E2zgrVGej4QXFJ6Ph5RQ6adv6y5aUYVMFa66LIrLHTCFc8DUIUYFLJYCmtuu5Zr7/ppgz3XYchEhhJuWuCBsfrtKAhQBEJIibQuakzB5hKlnHuPor/8b6sirFGqTKG1R3ZkuV14XK5yHv+eqxOIsYDGKVlRm097roKffVRX20cGej4DvTTwfg9xkHlUZue5WGsU+WoRLdvqrJEVzp2gaEoxCE9IIi8yV+1kc3cWO7/wEsfMmTHkAo4J1xETbh6J7abOyW7co20C1pmD2OI1XnuLEr/479ReeYmRxgh49TdkmFDSExiA7OSRcAiOPZ6l5CVJVolkaoLT/ZggqINutZeWyxs3s25OnCy8oPB8ZC2QYUEUY2Ubf7mtpEnYNe+2uaI2O6Eog95lwXzj/1kLSCkNmigWam3dyzb1/h9p2A7rUjxHBmmG1nd1XLquwTsAli4jFGeJ3X+XMb37B5FOPEBx6m6H6DH1Zi5LWFLUl0hAYXJXQtQ/oucqxgA5KjF57M1SHQBbR+Z3r8VwoXlB4PhYW0CKCyiCDu/Zjy71ooVZYJlYPopc97UJfol3sQmClIFGShUKB1qat7Pz2j2DX56HHOWAqC3JFT93RD21rTmdZUhbOAqLBJlCfgpMHOfGbX3LswV/Cn19gaO4MQ7ZO2cZExlBIAwItkNZ0WU/ctAyinWJrtT2kvXiuAiyAxBKi+obp37UPyn0ucitvMyvbxZptY82VnqsVLyg8HxmBRWFRRgAFilv2UuvfRC0quwqk7e2uyMedPFJCSIwwZIQ0qDBbKtPYuped3/0PyD1fx5bKGAvSOv8HK9oZHdqL66qXSsBrhEi7ljy5UDxPevot5v70Lxz+5f8T/eoTbJ4/xVA2TyVtEGUpUqduoBDG+XQIi8lPflvgCWvzxV2X9RbPlYmwbgLMTc8VaYkB5vqHUFu2Q6Hsmg/kaexcfpT2sgovJjwrWKOVeDwbRSDbTSiKoFKlb+c+FqMisQpdVc0rjLYDJoAykiAvQZ4FAXOFkMbWa9j7vb8i3L4PSmWsPXcGTGFBWUtgLMpYV1NBB5CFYDQ0p2HyEHz4Kof/9b9x+slH6Zk9TX86T1HXELIBQruD5UKgowfyt70a/Fg8G8PlHXGPAol01W4H91wLPQPQFpord/J4NsiV1+N7PlWWElkZqPax+ZbbaFR7aciQrJ1t74p65O24N4J1DpitsMR8oYfW2G623XU/7LwBeoddTdFziIkOwoI0+aJBt6BVg8mTpG+/yNnHfsnBf/3fqJw+xKZ4gZ76HL06JrQxAt3Jkrk0gdKm/br9ia+k6+D56Ai0ULRURNw3wNDNt0Gh5CK2LMilEnEezwXhBYXnYyDyJmQx1mKLJdiyk/7915FGZdI8x8LlXdI8nz0WHRnRGbQtkpqQTAYBjbFdXPPj/xPhrs+howFSgrW94lciACEAS0aCNYtQOwOnDzL99G85+sj/wL7xJzYvnmUwXaBHtyhmMdJkYFxeCeieq1h5rjtlyVas91yV5PeiRhGHRQavuw76RyEqu8ZorU+p7fnIeEHh+fgIixaSmBBb7GFw37WYUg8iKmCFuOx9xts5JhAuoiMfwkmVIO6p0hzbzJ57fooZuQ5bHca6ckuoNcNDu60WeQlPYwCNbM4SnzzA0ace5PAv/gvJi08xOjdOX2uSSlanlGUoTN7XuxSHrsx5Ltzy1R7PmgiLEQYrBFoqqFQZ3H8DFHuxInLDwTpt1uPZCF5QeC4CksBKIhSCAuHmm2hUR5lXBRIpc7P85dxRWawwaGEwQhBnIU1R7jhgXvuD/wWx80vIag9Y51XSNhYIKzvlod00iXCzE0KQ0gK7AI3TcPRF6s8/wslf/Vfs60/QO/s+A9kEFdMkagsIDAKFlQoCBaFyKZK7RIQTFe0KkRuykXiuEiwWrRISpamVCrRGNsPWa0EUlqwSyg8Jno+OsGtn2fF4NoTNhzrXjFz1CpIp7Hsvc+TX/8jI/BmqWX3lbpcFzplRIDBOFFmBtUUaQchipYf66Db2fO/niG2fg/LAsuFbtMVD7hFpJOj8zwFg0gVUPAsLk9Q+eJv5V14km5+krBsU0xoFHaPMkkXkXL4Y1i6Vll5/K3Krxrm38Fy5WGHRMqUeVJnt287u+/893PgVkL25L5Q4ZzvzeM6Hl6Oej8Xy7kdghYBCL2LbbsJt+4iDHpen4jxD3aWKbf9nBEaExEGRxXIvtZGt7L7nLxC7PoctVVcVU1o5vEurCU1MaBqIZAo1dZTan5/m6IP/wKknHqB86iiDtTkqjQVKWYvAps7RUtjza4A8TfJ6rOte4bnKEBgbUlMVyjuvhc070bLQlZXE4/l4eEHhuSgI0X66UWQUoW8zgzd8gZmgQiyLmMvuyac7TbXAyoCGDJgqFKiP7mLfD/4Wue8LJIVBtIwwa4zWLpFUXgU0rUFtGmZP0nrzj7z1P/5XTv/hQaLD7zBSn6KS1inqBpFNEbadq/Diep9cblfAc3GxCBJVZD6sUtp9A5SHsKLcFanl8Xw8fEvyXHTs/5+9/+yyJDnvPMGfmbm4MmRGROrMqhSldaGgtSABgiQIgE12D7eb29vLM3Omz9mvwA/Qc/bsvJjdPTvdPdPNPk3daJIgQAVNAASqUFqr1CIyMuSV7m5m+8Lc771xIyIzK0NkZKX98ljGDQ+/Lk387bHHHkOCrVI9dj/28GEaYr0VNXdn1uvFmcjVhACsEKRS0ijFpIf2cuRzX4EDj0E4hgICxJoImGCxIsPKNtgVuHqW5os/4/Rf/CHn/+q/sO/yKfYtX2Wy06SSdd2wigVpBdIESKPcZx9oynPTrC5jRggaKqB29Bgjx+6F8jguGPxw2fR4bg7vQ+HZcox1vhQiWaL72rO8+8f/hb2ts1RMC2VTwKJFQGBNvs7E7sHN6HBKQmCwViFNiBYR86N1pr/6O3D3k9jqNCKM80p7gwrZZtBaxJ59hZf/8o+pLF+l2m1QS5dQ1s0CkT3/B3eM/vTOwkKywbEHGVQc132cN3A8z/sAgUWiVYawgkyENIIKs/EEd/3Gv6L84IehNOpCuhP4fOHZEnZnN9Fz22OEgCAi3neI8qHjJEEVTYi0CmWEi59w3cZv5ygsE4LCSqDAKroqYiUq0QxLiK7m0nMvwdIiIusCOr8FuX5R0hk0Fnn27/6K0uIlRltXGUmWKOmE0GRIOzj7pT/E0beN3GAlXzh/2uI710qeO4EiHysjEFahRUg7KDN+/AHKB49CGOd7mqFvejw3zzq1oMezOVwgK4FVEVTrTN57H82oRCojrFFgBMquHQS5teSWCesqYGsDUlliMR7h6tg082OTaBGw9NYbzP70h7BwCWwbSx72ej2sJl2cRSzPU03blHWH0CTDe63CN/ueLcOANBJhA1IZ04orzNz/KExMglK5dO2vuePxbBYvKDxbjmsUBRqFLdWoPfgw8ZG7aQYlEqFACEy+eNXuIA8LJQAkBsUyioVylfaB4xz58j/jyK9+jXT/AUJpWXj1F5z5+/8Gl08h02WwG/TyrCEMJBVjKaUZoc4QG+07wIALh8dz8+T5uYuiHVeYeOAh5MmHIIwxeah24+WrZwvxgsKzbRgkiYpgdIz9H/kQyUidThCglSBRfc+BW1WlrXLAtAKswWJIQ0VnpEL74AxHv/Dr2BNPIh/4AKOf+RRMTaKSeZJ3fsHl7/81XDwF2TLWrmN5kApqY4zWJxE2xBCuWoXV49lqipEvIyxpYEiUpRuFdGs1ph57AurjZCLIhYTILRS3qgR63m94QeHZBpzfuEIQEICqwd6HKR9/goW4RkcJApu6wE25T+KtqdLcMIdBYIWhmypaqsRiuUZr3wnu+uy/Rh1+HFWdhmCUkeNPsvfTX4apo6gEVl59iXM/+BuYPYforOTj0YU/hYQggFKV4OBh2pGzyqiBoBJi9d7OvdNbJjw3SZG1jHBB1KyAjgpZKFUpn3wU9hwHWQFiBOE6M688ns3hBYVnG3CCQlqQVmJFCGP7mH7sQ6STe2nKCGlVvwbcYdY4YFrXnOu4zEp1lJXpwxz5zK/BoYchHgMRAiGUJ6kce4Ajn/g8TB/Eas3iay9x/nvfhivnoTsUEdRKKFeI9u6jG4UYJZDDS7oXXph9b0yP5z1TFKUiGxkhwAZ0VAkxc5iZxz+CKU9gZIAkROTrv3g8W4kXFJ4tp19NFS2kwAYSpvdy8MkPsxyN0qWClTLvlve+sP0InGVCWIQVCCMRRGSiRLNcpjF1gONf/Drq5KNQqfRLiFBuzYPqJOF9D7P/s79ENjGN1CnLr/2C89/7Fly5AEmjrwtEAFJSmthDFlXIZNibF+LxbBXFhCnbE8s4gUxMI6wx88DjMLEPUarnUSds/tNHoPBsLV5QeLacopIqomcKIUhRmLE9VO59FH3gBCvhGB0VoIUz0e5YM2udA6YLviUxIqQhQ+bLFdoHTnL081+DY4/TDSdIRe7oYYUTFIRATFqZJr7vSe76zJeQU9MoujTefoEL3/1LuHQK0Wn0Z+NJRTC6hySukajwWnNCoPApuWVDQJ73C1pIGqqEOnyC8v1PQG0aCHtL2bv1aVzyeLYKLyg8O0KARMsyTO3n2Cc+y1K1RjdQaJkLih1rQd3JhNVYYemGisVSQPvQfu76/G8THnkUgjoKS2idAHGtu0SjSAkJqICaIDz+EAc//0XaE1Nkusnyaz/l0g+/DZdPQ3cRSEFK5OgE5YkpMqn8ao6ebWG4/GRS0q7XOPLRT8HEflAVhGaHzYGeOw1fu3l2BGlBEGDDGsHBE4w+9hHmVZmOCkmMRliT95y2H2tBJgEdWWI+rtLafxdHP/1VOHIfVMfzxdYFmRAgRC5CnD98zydeSFRlgtrdD3Pk01+BqSMIkzH/xs85/aP/DgunoLsCNgCpGD98F11Zopv4HqFnO7AYaUgVNIOQq1Gdkcc+AYfvhbDiBEc+3OfxbBdeUHh2BmtRCCCGsRmmHv0QevowjbCCFkEegrsfeHo7EUKCjGnENdozhzj55d9CHH0YwrKzXuSyRuce84NjEEWBsVjnI1GdYuSexznysS9ix/chdJflN5/l/I++BQvnodMCKRk7cjddFWH8tFHPNlBI8VQErAQV7IFjjD32UShPgIx3RKh7PF5QeHaG3nxICSJE7tnHXR//PI3yHlJVx4qIVModWZXUCks7ytBTkxz/9C/D9BEoVV2AKpMhdUZoUiKbIZ2sKOQFYLBk2F5QoBBZHqF28kGOf+FrROOHKHUz2i/8nNm//3O48jYkbQhjKqN1ROjkSq/D6PFskny+EoEOsaZKUtrD3R//AkxNQ1R1Oc0AZifkuudORv3+7//+7w9v9Hi2nDwcN/nMCpREjo7QXVqhc+UKJZ3kyxntQOw+AUkgyaqjVKf2orsJYmkRkbSgPQ/tBdAriGQROl1IUsi6ztqQJQidYNFIJTEGrFBYFaHiChNjYyyeP0sl7dKeu4BtLVBWCnvuHVbeeZFqskSkNx7a6W3faAePZwgrBEYEZCJiMZ6g/vjHqDzyYRiZcRbBwsFiMMjJqvzlM5tna/CrjXp2iDzok3U+DAiNMB048xrv/Ml/YPzyW9STFoo037c/tXPLKzwhSISgFYYk5RGSeASCUbIodLNOpMAqiRZQGp0hKlUZHR0jjEJKpTKUYohit8BSXAMVgMnAdsE04dzbzH33O2QLswSVCK1qmHabuLvMuMwgTYevaBXF3fqC6RnGDQrmYeutm3NthCSRIStRhaWZE5z46u+i9x9HxSNun1zLO6/M9cqSN1R7tgYvKDw7xICgyIcdZJZBax7efpZ3/+K/MDV/iYgughRB5iwWZmsrOyucP4cRLgZGAqQ2wKoyqXABgawQGJn3/FSMFQHaGOd7IQSptWgpESpEqJiwXCFQAkvG2OQIotlALCyQXL5AyXYxVhFKSSgs0mqscY6Za4SD8CrCszEuv1hXloTBILEoMiKaYY25yX3c9cv/jPCeJ6EymeenvPwIMOihyBPus49G4dkqvKDw7BBFWOrBTQZMB1pXOPc3/w3xzI+oJQ1C00bRITTaRdQsnCA3SREAyOFab/cv/3vRnguJEHn4H6HyMWqXiigWNl/+o9dnLNZQ6B0bQpNSzbq9MxYUAx7DgmI9y7THU+DyRSEoNFpKDCXassZcaYL6J3+JqU9+GUoTbj6SyIpv9nJbf45Rf1v/k8ezOba2++fxXJPVLaWRliyQUK1x8EMfQR6/l7aqIE2I0gpZWDNWfWurWHtUaUFZCIwlMBAaS6ANkTZEWhNpQ6w1cabdT50R64TYJMQ6oZQllHVCWbcp6xaRTfIYG85EXaRrYfOZJcNxBTweN/onckufRJgIa0q0gxqlex9k6rEnoVTKg8VtnM+G/5JLlDXbPZ73ihcUnh1ibYxtjUEjyVQZZo4w87HPsjQ6yXIQk4ownxGyXiO8dTJDIJBFEgKFQALSmjxZFyPDGoTVCKvzBc4NQZ5Ca4isIcT9LFJgQYre0QfS8JPweG4MIwRaBhgR0VUV5oMy7emD7H3qUzC2HytKLgosdiCXDeY4l+N9DvRsB15QeG4ZxZoCEEFYQ+67m0Mf+xjL9SrtKHKrgOari0P+oZeGj3bzFNWtC76VH7qnWTQIN2aN0C7JPAnTvx4swhZJIKx0DqV28Ax5Ko69NZrI8z7HWSZchnFBsyWZDOmUqyyPT3DgI59A7j8GQT1f39cie4Ji2Ny1hQXH4xnCCwrPLUMiUXmPyeYLb1UefILJJz/MUrlGJ4gxInCN9apYEDfXEg81633xUNTXw/Qqchd/AgxWGCyDyflgrP764JGHGVAt6+yywWbPnUouJAz5hA0hyFRAK5BciSPGn/wg4QOPQmnEBVorRGwvQ8o8Q7mc5f4f9Aryec6zdXhB4bllSFT+T4JVWFWF0cOMP/kZ5N33c0XGtDKFEIWD2aCYWE8BXIdhI8dAyv/cT6sMCf1/zhtzIBUBg6zF9pLJ0+C2Ig2dZ+Dy1rsmj0dg81gTlhRLEoTMxQpx7DhTH/oUdnQfRKW8NrdOHvQCxA3KhcH5HF5UeLYeLyg8t5B1qrFwBCaPcuSTX0AcvZukUqYlhPOpsGp14y/6PuvbhhV513CD5PFsE0Y465cwkiBTBGmIFIqmNNh9Jznxma9BfR9CxAMCgvXLlcezA/ga0bMrKJY5txYIRuDg/Rz45K8wOzLNYmmEriqjrTPpOjGxcbRJj+e2RxR+QgKMAhGjVZkFVWZxdC93ferXYPo4hGNAMPztwvFieCvkdgofe8KzHXhB4dlVWCATAh2Noe5+jP2f+RUaI1O0CbEiclYBkQ99WDdjov9NP07guZ0ZbOQLHx1ASDSS5SCiNXmQo5/9DYK7H4SwjkFdI9t70eDZWbyg8OxKDCG6NMnYox9j5gOfpFMZJw0rWBliUFgkIh9yKMIRFw5sHs/tRzGVU+T+DW4GlBWSTCqWZMCVUoXqQx+k8vhnoDrpysDwYQo2/IPHs314QeHZVUgBgYAQkKpMGu9l9JFPU33q01yp1GmGJRJZxlq36JGbcz9Qf3pvRs9tx6CYyAWytWBCUsqsRDEr1TGmPvIFZj78BVCjQDkfuMinNBcMjHT05yatTb6UeLYDLyg8uxYhBGEYwtgUE099mvjEoyzHuZkX0NIt4OWm2bsYEB7P7UfRxLv864JXSbSETEraQY3goScY/+CnYHQahK+2PbsTnzM9u5+4BhOH2PvxXyY4/jBLpRGaQUCiQMvBUNVeUHhuB9YOzQm0ix0rLJmUJDKgGZaYj2vE9z3KzMc+hxndiw3Lq753IwwYLTyebcULCs/uxyoIanDgBNOf/hX04ZMsRmUSBVkuKAbp/+qrUc8upBdoZFBUuEisRhpSKUlUwGJYgbvvY/Jzv0Jw4DgmGsES+Gzt2bV4QeHZ/Vjc7I64BnuPcvhzv05w1320g4hUFquBAggX7hoG1ivwta9nl9ELXDbgTJzPXDIIUqloBTEcPMaRX/oKZuYQmSwsE8b5V9wAw7l/+HePZ6vxy5d7bius0SSdNvrUi1z+u/9K5dxbTCSLhCbNd1ADVefgwmI7EATL47kBhM19JoTBSovFYChjrSJVisXKKJ3Dx9n/2X9OfORhRBgNSIHNy4LCNjJ4RI9nK/CCwnPbYYxBtq7Cqec59Xd/QfXim4wky4QmAxti88WRnJOmWWe1Uo/nVjAgcIWbySEQCAtaxHRlzFJcJT16L4e//DWYOgGlyd538y9uWgIMD7Z4M7Vnq/CCwnN7orvQWaDz+nPM//TvsKdfZUx3kalGogmsRtrMrYMAm66EPZ6twAqLEdo5EVuJsAGg6KgKK6VRkn1HOfLLX4VDx6A0CmLQOlHgfl+v4h7ecz2Gv3cj3/F4bgQvKDy3LzaDziKce423/ubPiC6+y2i7QWBTItNF2RSJwaKuGYrY49lRROqmhoqQjBgtQuZUHXvkXu7+wlfg7gcgrOU7F9XzWjvCsKWB4b2G/5hn/0Fbh8ezlazNpR7PbUOALk/A0fs4+su/gT50nESFpEKhBbmjm+6JCdubXurx7BzD+U5oizICS0BHRTSiMuUHnuTwF34Dc/AEJqyDFqAHj+Jwg3g3GJyq0NBeS3t2CG+h8LwPMNikTevUq8x+50+xp15mPF0itm2k1ZQS0IHECDcLRHn/TM+2srr1tmK1VcB5+ChassR8aZzo5GPs+eSXCfYdRZYrbrEva90KokNCYNAq4XWCZ7fhBYXn/UN3Bc6/wvkff5vu608z1lmilnaJumADi87tccKC9Lnes804B0w3qVkUq+Qi6aqYZlBiqTzG2OMfY/IDn4GJQ1Cu9WXCwHLkw1l140GQ1fihDc9O4wWF5/2DzaC7CItnOf8Pf0n2+guMriwwkmRYZbBk+TCIQQ1Hw/J4thJhsVis0CgrsEZgZEhXShrRGAvVceJ7H+Hop74Ek4dBVQYkglzl77BRBe0FhWe34QWF532FJUF0G7ByhfbPf8i5H3+H0dYCYdqhIjXKJkCGGh7Y9ni2GmHRQhMYiSakoUJWKiWulg9w/FO/TPXhp7C1KYyqutVpelXx1giK6+IVh2eL8YLC8z7CYsiQRkHSgpUrzL/6ExZ//i2CuTlGui0quosSKVIXkTQLpA9+5blJ3GLjRoDErFrw1giBMBFtFbFYrbAyM8m+T/0Wo3c/BqVxkDGrnHosXlB4blu8oPC8r7C4YEFYAyaDzhLtU8/y+rf/itGrFxhrz1G1TaQ2+Vi1RKCQeRAsj+dGsAM+DkBPUCgjENh8kS+LSTStcISr5Qm6++7ivi/+KsHhh1wYeVxUV4tF9FYQ9a275/bFCwrP+5vCr+Lc25z5/rfpvvUio91FxrIGyrrepMy7lP2C4Ct1z7Uxq5YQz/OPsAQGsG5GUUdJumqE2bhO9YEnOPixL8DUUSjXsEKuMj04QeHznef2xgsKz/sfm0J3CRZnWfjpDzn3sx+xv3ORStYhNhlSpFihXY/R+ordc33WCgq3WqgyCkNIV0Y0g5iF6mEOfvxTlB94BCYPghxxs0KHBjK8oPC8H/CCwvO+x1iLJM39KpZovv4yc//0F4gLZxlLm1RoYWULpUsIu+mRac8dwGpBgRMUsoOmwgoVGnENMXOIAx/9GurkvVCtYaMKwgTYfGXRQbyg8Lwf8ILC877GYknIiK0Bky8V3VwgnX2Zi9//LvKd1xhpXUWJFUqpQm408yOfBuiWR99gH8/7DvemnU+EgF7U1WFBYbFkytAMaixV9qCO3ceRj30GDjwOQkEYgpCYgbwz6LzpBYXn/YAXFJ73Nc4Ybdy0PHCVts2gtQQLF1h6+efMPv1DqgtXGKWF6LaJhUAZ902tDFpYJCCMwDUnfsrpnYHFhaMCLXGzOCxIKxBGYoWimaSocomukLRLdS5XRrjrk19k5OSjiImDoKp5xMs8sFXuzDm8AK4XFJ73A15QeO5MMsC2oTVL9s4rnPvRD0hOPc8EKXG3TVUYhOiic+0gLLl1wlX7XlTcAQjjFKlwYsKSiwms+926JcdbQUwjriAOHufoZz6PmToM1RlkMArSrPGXWA8vKDzvB7yg8Nx5OOMDVloELUhWYP4Ki//0HeZfeIZ6a4lydwElmoRa5sMgNg+l3O9den+L9zmiP43YiQkJVmCkpRVajK2wIus0KuMc+egnKT3yARidhHgEqIGRoLyg8Nw5eEHhuTOxrtdpsECGsSlRe47may9w9ekfo868QbW1QKwzFBrRS26qqRtP94LidmY9A9OqoYhCUFgQ+YJeBkUiFO0gZDkeQR1/iKkPfJTg8DHE2DSWAEmIJHBhTcTwQTeqbp3dy+O5nfGCwnNnYvue9jYf35a6C8kS5vIZ5l94mpVnn6PSvkiUrRCalMikBDZzQx8bTC8d3uIL1+5lcBVQ1mv7sbmosGADUhnSUSGtsM5iMMWRz36G8gOPwtg+iGokQuayYzAfBPnPQjBsFDzNCwrP7Y8XFJ47kHxsHFwlngsKAVjdQZgONBfpnDnNwos/YvnNFym3l6gnDWLTITYaBVgh86WonbOes1oMnCZvH3wB210MWib678ZtLN6hJBcSQpIYQSpLrJTrrFRqjNzzGFOPfh55cL9bIVSGQIAWzr/C5YiCQeEpBs44nCu8oPDc/nhB4bkDsbmn5dBWSx6gKAM0xmSohQusvP4CF57+MaXLZyh3lqjqFpFNnRCxbuaHshY53Pn0gmJXMmyZ6NNv+AUWrCWTJZZsiXa5TnvmIHd/4lOExx6kWz9MHMT52x0+2oDDriik6jDD3/OCwnP74wWFx5Njrc4FRb+yz3SXMGuhL59l6fmnWXz2OeLmZWK9QmAzIpMRGE1gDXKdkrTOJs8tZj1BIXKrlRWSTARkMiQTinY4RjJ5lD2PPkLlnvthai9EdQjGiqOt85YHBcXQn3oMf88LCs/tjxcUHg/kY9s6r+RFfy1Hq7DWgGkiWvNkly9y6SffJz39BkFriWp3hbpNUKaDQPdXoM4ZjjfgufUMCorB4Y9MSFpW0Q2rtEqjMDJBfPhe9jz6MUqHDkNUBhGBCLAqgIE4FavxgsJzZ+IFhccDeeXezT8HfWe6ot63AG0wHVhawF48w5lf/ITk1KvUu8tUu4uUdRtr84iKuZgY/OzZHWwkKJpRhYWoxnJQY/qxjzBx8iGivUehNAEqypMCUbhWuriXa2XA+ltX4wWF5/2HFxQeT480/ynzhcLyX4ufwrpFxGyKaDehvYh95xVOP/cz7IV3qDbnkTolzFIiLAEGaTViVU+2iEogELn/RXECXxC3EtGLG+KWpscFKUMiAYNEC4mWAW0hSYOA1tgM4sDdHHn0KeThe7C1SQirCEI3x1g4v5v+2+qLxwLr3uwNiAMvKDzvP7yg8HhW0VMPQ9v7uN6pRpouJE1oLsK5U5z5px+xcOZtxrMONZ1QNh0C00JYJyyKmQPaAkiklQgsNu/prm2ePO+N3CRkXePsLBEGZS1WQCYFhgBpJKmIaImQFRHSGp3kwKOPMXbfIzB9CGpjEFRIRAlQvYmfq6OODHvgOnpi8brv0gsKz/sPLyg8nvfIKslhE2fZSNvQXCE5e4rma8/TePdNxMJ5amYeZTSRSQhNhrSgbZg7f7qOL0Bg+g2h52ZwC78V70b2xjUsncg4y4RRaEJSFdKwNcTeIwTHTlC//1GiqQOokXEIS0AENoR8MlARv+xGBYUThtezU3hB4Xn/4QWFx/NeyRua/GNuQAeMgawDjVn0lfNcevVZll//BdnyPHXdIew2qQtBOaMXddONw69eydJzMzhB4dbcKKJBSECSyhCtYlo2oF2uko5PMH3/Bxi75yGY3gelMVBlKFYQtXKVaiy0iRcUHs+18YLC49kMFudx2StFzseCLIH2Cixc4Oq7b9B493WaZ9+hlraodxqoPOpmYDOUMS4YkuWmGpX1vnHnFWo33KGFQPemfgZoEdKMRklqE5QOHKF+10lGTtwL9WmIKhCEIEM0EpGLhmLoyQ48W4vN9yjwgsLjGcYLCo/nPTHYkNiB9TxcD9lRNA7GDYd0mrB4BeYucebFp0nPvIJtLlFKWpR1lyhLiY1BWudLAabnSJiHWOr7VwzEyCiQaze5nvXQptsFUTS3q9pXsWrWDDi/COeVkru9CkkqAzoyoBPEdOMaojpC/d4PMHr8foLJacTIHoirICMnH6wFIfpL1Peed/H83Hb3l8ELWv/p9re6fTeWCMPf33hPj+d2wQsKj+c9MSgaroVrkuzAmiFpmmBay5RWLtC+eJqlt15h+d3XiZrLVLsdykogdYrUCYHJUNZCb46IczJ0vhfFMV3jFxi7dlpqfnnDm28H8gXCMaJwrBQI61Z9dcHDXPCxTEAmJQkSLQJsGNMqj5BURhk5epL60XuI9x4iHTsI5TqBChBC9WZr9Fk9mDHIwJyc1Q/zeq/f47kD8YLC49kWCkFhEYOtvQUyAboFrQXM8hUWzr3L8msvYhevwsIs1bRFOe0gRReBRlqLtBZhnSMnuGMK61Y+ldY1uKu69LeBhWK1BQKscDNeiiuXVrmF2MhXhhXSeZwIgUGSyYB2UKJdqmNG9hDv2Ut88iSTh48jKuNQHseoEkiFkBIhcg9LOawGNhYUq/CCwuO5Jl5QeDzbghMU/c9FC5RP7bAabNcl08V2u6Rzl0gvn6Nx5m2uvPkalWQFlXQoGU1sMkSSECiJEgZpUwKTIq0GJFYMRGe8Ddq7wtGxNxmjZ28pflMIIpKuxgoFcUTXCroqIAsimtaSjY4zdeI+aoePE84cJNizF+IqVsYIUQIRYSwIoUGYfMhCrvNwvKDweLYCLyg8nm1hsHFktaDo/SnLFyKDRChk2iFIWpC0oN1AXzjDlXfepDN7EZYWMCtLlNAEJiG0XULTJbQJyhpEz+ciP8ugv8FuLOHCBZoyAzpIWDBCoIVCi4iECC1LpDIgFRGyPgqjE1T27mPPkbtgZj+UR6BUg7iKDuPc40GAVb1hICFsPqsmD061hhsUFB6P55p4QeHxbAs3Iij6vhBaSlTxPZ1CloHQTlwsL8DKMiwvMPvmyyxcOI1uLhBnLULdoZJ1iUyGsDYPoOWGSCTOt0LYwgvDnd9as6pdLba70/ev2Q3XrNcAX4M8FkQ/SJcYuHfb8wWxCDLpkkVg8qXgUxnQUSWSICYtjdINShy+5wEmDtwNE3ugOgKlClRqIGIXDtsKjLFYIfszP/NzAEibz6IprmfVLQ1en8fj2QxeUHg8245ZLSiugcX0GvWiaFprXMISJG1saxnRWKR75Tztq7PYhUXS+au0Fmcx7XkimxJmCZE1KKsRWUIkcMurG3LzfxEHA4SQkEftxNqeIyLWrpnbsBEWm4e6NmSqiMyhEATOqVIINIbUgpb5lE6lMGFE1wZk0QjVsWmiiSmY3ENpbA/1/UcRtTGSIEbHZcIgREqFELk/RI++KBisznr72N5/6wiKDXA6r4fxdgyP57p4QeHxbDs3JygGt7qev2vcrUkRuoOwXRfzoqOh24W0Rbp4ldbSVVZmzzN39l1k0iVIugRaI9MUqTXSZIRG58uua4JcOGCdoMBqkF0whaBwsysExVCKEyAISGQ/2mdh9tAizGNAKLQKyIRCqABUQBYEdFUIUczIgSOU9hxgfM9e1OgUhGWIFdQCCMou2JQNnSOmdKtwrB/dYb1tA2wgKAa2rGUdQTG437rf8XjucLyg8Hi2naHW6ZoUMx1WU3y7H17JYEjdvkbkwx3GDZeYFLI26C50O9jmClmrSdJq0mk1ydoNaLeh08F0WmTNBgJYWlxCZxkCgwg6WG3AgiwERZGQYN0ATTdfN0upgFq1DkCpNo4sVRGlMsQlgkqNsFSmUh9F1kegVIVyGVTshIMIIIjcXUrIhEagkCJ0i7QBQhTPZL3neCOCovhw84Ki4Dpn83juWLyg8Hh2HWsFRY9eIC3c8ITALS0mckNGPmAh0Qir3bFsCtbFbkBn2G4bIQUkHUjyJdutcH4b1rhkWpg0w2qDFLIf58KSN6f5ddTKeVyHgSZWhRCVIC6746oQhMBKBUKBiJzFQijcFbvvFm24O9dQk90TFOtxnSZ+uIbzgsLj2Ra8oPB4dh3XajxzijCRBb1G0jk99vwlJBipc/+G3sRJjO4iisW0rHB+CUUTmwsEm2UYbZDrOGaKXnCo/rLe7oQGLUW+fqpEEAAS5wECCklQrJUhIM2/WpxB2YHxhcIkcl2u08QPH+ImBMUGh/B4PAN4QeHx7HrsUPO3Fc3ZThV7d60bNd5D7fYGbMf9ezyercYLCo9n11M0qHdyY+qfgcez2/EzoTyeXU/RiN7JDal/Bh7PbscLCo/ntsA3pP4ZeDy7Gy8oPB6Px+PxbBovKDwej8fj8WwaLyg8Ho/H4/FsGi8oPB6Px+PxbBovKDwej8fj8WwaLyg8Ho/H4/FsGi8oPB6Px+PxbBovKDwej8fj8WwaLyg8Ho/H4/FsGi8oPB6Px+PxbBovKDwej8fj8WwaLyg8Ho/H4/FsGi8oPB6Px+PxbBovKDwej8fj8WwaLyg8Ho/H4/FsGi8oPB6Px+PxbBovKDwej8fj8WwaLyg8Ho/H4/FsGi8oPB6Px+PxbBovKDwej8fj8WwaLyg8Ho/H4/FsGi8oPB6Px+PxbBovKDwej8fj8WwaLyg8Ho/H4/FsGi8oPB6Px+PxbBovKDwej8fj8WwaLyg8Ho/H4/FsGi8oPB6Px+PxbBovKDwej8fj8WwaLyg8Ho/H4/FsGi8oPB6Px+PxbBovKDwej8fj8WwaLyg8Ho/H4/FsGi8oPB6Px+PxbBovKDwej8fj2WLs8IY7AC8oPB6P545m46Zv47/cLthtuIsbP96N7/n+4A4UFNuRwbbrqJ4d5aZf4E1/8b1TZLT8lGZnz75LKR6IGf7DjjP0em4T1r/i3fNUr8/Gd2AG0lZwe77hnUJYa++wJ2OxeWYQWLDCJQTkP26GNM9iKk+9/HaTx7t19J8PmIHL3+jhFAV1PW260Xd2GXbgMq/x3uzAvYred3T+DET+5tf54lYxWFJFX0xIcNezEfklDe7i3vK1vrQxIv/nPucM1rHb/NqLU7nTaQQaQZZ/rm6QF3cCQ3fgnURwC6/lBrCAKPJ08fIk1tWM13ydw7/fKorrdG8fSoDQgLQgsoG3UaTN4s7ono11z8HKvA3pP6ziuorntFue13ZzBwoKx3o3PZgB3iuDzeqqyv1mD3iLsEO93tUFIi9Aq1i7ZfDb6/11NzJcgVK8R2HyqmrgpdpoILPk3xQ7VHUMXGRfGN9476t/F5u7zv6bLZ5cXpOuYb1tm6c4q3sGJhd7FkmA3PBathHrMkyRU0SvY5F3VHYp6+X74i/9ZtM1xMVT3U23U1y/ywECWTz3HFc2tqds9stSUWcOlkPp2oItP+vu5s4UFIN3LAD0UGZ477hMM5h1CjU8uG33Zy1XOAd/dw/L9VnMUEMievfZ77NuVEHtbgYrVllsMIBM8y7PwJ4mt0NJd4fFExr+f3sxQIYly6vRjc65UZUmV5eDm8Xa/BQCg0BjUQP2i62WlNbmolYU53ZvzlXoAoHchrNei+IhFqVGrCkBrqQUV7RzV3YjmAH7mgCk1bmA1rlIVmgC7EAu2113wEBZMD0bsTUCIURf5281RfWX5z6DxpLlb1phCfLcuBuf1/ZxZwoKBluQDpjEFaBNt4TCFUIBSAVEvYzlDr6OyW0gY+4eNNgsr1DyltUYV4FbA8aClKDyhlXkNr6iuhHB8AFvA+yAJcJAp5vfj3H3XCBMv1a1FqIKCIXNKzL3KrfvhRZXIslc3iV1Jld9rXMO/K1X2q+1//UY+G7RGkmwSmCFQhD2TMBiu2p0nYJuuZNLCUGAM9eHOyon6PXkNSZrolToNhsNUmJEDKtEzjp1wC1iTXVnMzBd0G23UYUgIwwxGonaVVc/SAq268qmBYx0SQQQhJvM6+vT17IJkIA07vkhQEQYUcYO2Mq2/gp2J3ekoHA3bBG2C+0luHqZzsJVAn3zrbuWkEnQSlCqV4nqNXQ0jY1GUUptXLGuKdW7gKwJWcNdnDUk3Ta22SZqJXQ6LbIsI45DVLmMrY2jAoUIAogiVwkFIxvfUH6/Ntcgu6WwWWtJ0otI00UlGeniClmjiV5uoPTAkIewiFihqmVUpYaqjiIqNQjqaFnNe0UuDZ0hb3g2139OAbAoukharCxcwsxeIUyy4V2h93ydDBHu8vPPdlBdvAcGfI4QBAaMEHSVwJYjqlNTUDuAVRW395aY/ItrlRhj6HQ6pM1l4stvoIWCcpXS+CSqNgJBHcQONHs2/694z6aLXXqHdGGFbqtNXKsQTe2B8kGMCFy+6eX1Hbi+69C3PLor0q1ldHMB3biKbi8S1kaJxyahPIoJamQixEm2vqS91fRqa9uBZJmktUB6ZQG6hiwuUdm7D1GrI2Xcl0O9L23uPgyQdRvYxgKsXMU2lwnjMmp0Asoj2MooWkbImz7D7ckdKSh6tK+iX/ghb37vHzCLC5RkQhAErrhZi8W4gieKbhgDFWr+Oc8uFjBSoJVASwlKMnrwBAfufwz2HoLaBIxMATE6/5ZwdtrBw2wPg284NxH3NurcKKcM2DZ025A2Ye4indmLzL3zBkuXzhN2WsRZF2sMRZZJpaBdKlObmmH66HHq0/thYhrG90IYY1UZiBAo1/mnf6+DZtbtxWJJXa8Z8uGtFGFCjE2RugNpG+auwNIZrrz+ErNnTqO6HWTaJdQaNeQ7YqVAS0WqArKwzPShI4wcvIto/1GoT0I8BtVxECFWid7z7lfhNy8pDJDZBNIlxOw7vPiNP6K8MEdJ69576TvauW/I4v2LfgPSb+jdWxjIETmDxxhkMO8LQqOxwpJJSVeVKJ04yZFf/hdQ3wsyHvruzWKd9choaM/TOv06L33zG4y25pAG0qhMfPAoxz79OeyeA4h4AlTFGdOkRuYWgq2geMbCQiYFAQauXoBTL3Phmb9lcfYi1gpMWObwA48z+vHPwdgRLHH+lNmRXL8hltzC6CxtOuug5i4w99xPOfvsT4iTFQwZUlWIx/dz91OfRJx8EDs6ju35p6zHzpTmQVz1maH0Mu0XfspL//ANyu0WsREYGREdvIuDH/kU4ZF7oTRGRkDfdlpUvDeDxdKFc6/xyt/8GXr2NNWuoSUsYmSK+z/5ReS9j2HLUyC2KufdHtyRgsLiehTZudd4/b/+b4zOX2bEGDArzqrfq14HE2sqUycscrNWMWFECoyQWCloByU6cY2sOsbIsfs58PDjsOcwVCcwQiFk3K/7Bz2JtgXbK0N5lYjFOUOTdiFZhOXLtM+8w/wbL5FeOkeyvEA5bVOyKaHJkNY4QZEf0QhIlCBTIV1VIgvL1PYeJNp3lKlHn4CxaShPYFQZISNXEIUbWdy5QmaABEuUj2hqN1TQbcPKPHb2PJef+znJ6VOYxmVE1iHUmtgYQgwS7Z7UwAVb695xJiSJDMmUoqMCumGZkQNHiWaOMHPvIzA+AyPTEIVYZD5nRuQN3E1iwZgusj3LqX/4c5Kff4/xbotQp1jLKr+CIon8e0LQ61GLVaLYfV5VEeQZcz033MHvBMYJby0DsrjGpWqdk7/6b4hOPg7lERgYFVnvSDeGO4cwbbj0Ji//xX+hdu5t6s0VAmtIVESzXEfvPczRz30Zefg+iEbRqoSy+fDcFmGtK+gC0CJBLV+m/cw/cvH732akM4vI2hgkqYhplUapfP7L7P/Yr2FVfRP3v8VoC1KDyNCLV5n/7l+y+OxPKC1foSYSN2KApBPUWK5Nc/LXfpvw4cewouw6BzD0Roucs3XP+UYweVmWK5d584//I+rUC4x0WsQajFAsBVVakwc4+YVfR97zCLY8PnD9m8HCykXe/Ms/QL/5DLX2PJUUslCxLMo0Jo/w8O/8HnLmOIYAuRMWs12C+v3f//3fH974/keTZQ30pXfpvvxTxlrzVNImSncIjWs8XdJEJiMyOk9m4HNGZN3P0GREtr9frDPKOiPMushOA9FcJrlymUsvP0fQaFAeGUOUFEKFYJUrlzuR53LnQoPEAgoD3WWYP0d26lXe+ps/5+ozPyK++C615VlG0wb1tEUlbRLrhEDr/Jnk92kyaqSUsg6lpE2l2yRYmqdx9jTnXnkJ3WhQr1cRUYgIZV5RAUikySujHalljRN+1oJJobMC517h7I/+lgs//DtqF95hfPECZdMi6KxQF4aKySiZjNBmBFYTmIxAa5TRhHk+CI0myLqUbEol61DP2qRXL9OZv8TsOy8hszbl0TEolRHSObbh7n74At8TwmTQWuDK0z9iz8JFKp0VYp3keTEltOlAPk6JdJFHNaF1n2OTEuX7BDb/jk37n02R9EB5WJsinRHYDGk1OjWkUYicPEpl31GIy9h8Sp/ojSi/d4ppjMJ2SN55iflnfsBU6yr1tENsOsSkBDpBryxz/sJlpo4ehWoVE5SQOi9fN3fqDRAICzJbJH3rGd7+228w3bpKpbtEjYyS1pAmBCrkUlRh74lHEFG1J/G29FLeIzZ3XUUYyFqIqxc5/e0/YbJ5hbG0QU13CK2mbBNk2sYIA7U65YNHEFFloKJa76EO/769WDTCtDFXL7L4zD9SWzjPeNalrBMi20XqDN1us9JsMnr0KKJeySfz5vlp+IA3hHX1ydIFlp7/CaWr56ily5R0iko6KKnoBDFjJx8gGJkEGSLuIEFx59zpEIGCIEtR3SahbhLoVi4eMicctCEyBmVdL17mVkJpQFqLtMYlDAKDFQYrNFiNtAZlMipZm0ndZCZdZqZ5mf0rF+g8831O/9l/RL/6c2jPO4ee1X3DbULk5n7tKhWTQOcqXH6Dd779h7z7rT9m9NwbHO7MMZ0sMJY1qeomke2ghEYIQ+F6GFhnUJECrEkJbEbVpoyaDmPdRQ52Fji0fJnuL37ES3/8H2i/+ENYvoLMWshiRs1GFvUtRzjzj9XON2TlMovf+yan//R/R73wIw42LjLenqVslgjNCuUgQ9IFkaKlxgiLFc6P26Kx1jmnCmsJjKZESkm3qKcNxlrLTHeXmVi6yOiVU8z9/DtcfP4H0JoHmyF6TeNW4ESZSCyBdX7l0hauoYM/LUGeFJbA9t+fSwYhMoTIkCIjIEMJjRQWKYrvszblx5HCIop9JVidoXOHxH6+3tw9u6ZLgDWITpdykhBnHYTIQCUI0aJkVhhLl6gvXODqiz+D5gKY9f1KNoPzjzFgW3DlFKe//9dMtGYptxdQIkHYLoIOUWAQpkNsMjdUo/M8v7lHsWkstl/rZ12Wz7xOnC4S6WVi0ULQQYiUQHepmTb1ZJGFt16A5hLoZOhoN9ckbxUSiTACZQxhmlARGYoUK1KMaKNoUNfL6PNv0nrpZ9C+CiTDk8DfA4UktBAYAlJk2iIwXaBLTEKYdZzINha0GLAE3hncoYJCgA1RRgGCTFq6CpyRO8QQYERIRkhLRbSCPIWhS0FAKyh+KtqBoqMUiVTowuPfBggsipTQdinpDtW0Sb19iejiy7zx139C4/mfQPsKWjcBNj119Xo4t0CDIkF25knOvcIb3/wDxBtPMzF/jvHOEuWsRWQ00kiECcmI6coSHRXTDiLaKqQVhLRVSEdFdGWFjArWxkgTILUk0B1GOw1mGvNMz5/j9Lf/hKVnnkEsLKJMuoWN6o0SIKyGxYss/+RbLPzs21RXzlBpXqbUXUFZTSYDhBVI63rEmQhIRUQqIhLpUkdGdFX+U4ZuuEOq3vBHJiXSSkoZjHQ11WaDMy/+FLM8D9pNvNtsgdMCMiUhKhNMHmAlGKcZ1GgFZdphmVZQoqVKtFRMK4hoBzGtXhrIy/m7TGVAoEMCE6BMiDQhwoZ0lUsdFdJW0doU5EkFdAJFOwhoBZKsWqYysweUQBuNsK5PuDlDs+3HE7ABxpZIqQCBi5FgLaHJqGYJpc4il195nnT2MjJNyQZiDm0KW/xnnWts5xKdV58munyOStJCKAvC1SduSM/5bYRW5zOk8m/vdNZfB3crFpIOC6ffItQJIRpprWsSrCARZbSIUMZgludJZ8+BznpPgJ4Pw3qWih3CKDAx2JBMuvKnhcAKgRECaQ1lnVLtrHDqmX+ke/UC2nQw1/AQumGsINKSUiYoZYLAuHNmUqFFACbMr22zJf724o4c8hAYRNYhu3Ke1qtPU0lahFYibIiRGiMlrSDmajTCcnmMVlgbSvU1aUnV6VTHaQYxSRBgpMTqlFBJrDEoAQiDJUXZjDhJuXjhMmN79xFMTGKDyBkji17MmlkCm0dgEUYjkjZceoc3v/GH1C6dZ7TbomTbhCIhsBYrFKlQdJXMhVPIkoholMdoBCWaUYVWVKETVtCyTMdYjNAIpbEiwQiBlhqEIdSWSiKYnz9PqVomHJ9ChnVX0HJ/0O3FuqlwS7Ms//yHLP74O4ytzBJlKWUsoXUNvSaGADooulGd5XCEhXCUpVKNpbjKUlTrpeUwplOukEUxVkiSNCW0EZGJkDZDkmGkoasCVoIKUw9+kKA27Ya4YFM6XhpAWKzUVEfKvHP2HB1p6UQRzbhKM67QjGv55zrNuEYrqtOM6zSiOitRnZVoAhPW0DolEM4nRlkDVpLKiHZUoVUqsxCPsBSOsRSMsBRVWQkqLIdVlsP+z6WoQiMYYUWNsVSZJjrxEDOPfgJTGQOp3Pixc94YvpX3hjFgUuyFt1l58znqWZMof3eCIHe6VVgpMcay0mkzdtdRZDiKkHLTpweLEcaJYd2EC69w6lt/Qb21SDlLCHB+Nm4WhMTIgFTFdKb3MXHfE1Bys08km38Um8FZyQRkHbh6joWffJ/x5UuUMue8ilD5dRqkMG7GTFBi1mRMHH8Y4jrauABixUzl/lDWDt+YAGwKzXkWXvg5lcYCsc4Q1glZad37sFaTJBnl0iilA3ejgioYcZ3JQOspv2KbheYCSy8/h1i4TGwzZy0RkkwpWuUy4w89gRyfAhVsS12+W7kjnTKxmZtm9NrTXPnT/y8TK5cJjUaakCxIaBMhZu5m5KlPY2rjGzimrSYToHVKc3GW5uXzJLOXCebOMK7b1IwlzFIgI5PGOW3aMnOlKVp3PcCJr/w27DmIDUoInWfAPGjSlmI1aFeRvPvXf4R87Rkmsg6x7iBpo8gQJqQrSzSCCktRiNwzTXl8mvLEXqKJfZRKJQhDTLdLt9lk5cJFOiuX6Fx4m/G0Qbm1TCAsghQBSBtjbIX5UsDc2AFOfOmfE9/7FIQjoLZiSuH10JAtY956iVPf+ENGL79DRS8RYAjIsEgyGdOWFZpCkFZqBNMHCPYeId57kLGpGRdvw9pe9zJtL7M8d4nu7GWyK5dpz16knqTU0g6hbSNESioVi6VRLo0d5onf/X8gJ4+6KbWu+R6+yBtHg5UZWnQJ0jZcvUpy6Rwy6+TiaaDSyxG5T6kWBi0s0gRECxeZ+6e/J165SKAzylmKIaCjYpZKdfZ94vOYsWmsrCFkjJYubNWqilaAFpbABEgTYUojqP37YGQSE8YIcbNeE8NYN2yQtdDP/C1n/+oPnM+CXtvP7CpFW5VY2nOAI1/5HTj6OMQjufXgJrHuIaZolO0il2e5/Hd/iPnFPzHSXqCUJSgLWYAzuVtJKmMaYY2F+5/k+Fd/D+r7XFwEpzduIfkFtK+Svf5zzvzhv2d/e5bQuAnJBVKkWCyZjGiEI1w9ejcnvv5vYfo4RgRIK8ny4ruJJ7tJrItFcvEt3v6D/409V96iljWQdmDGE5CJiIYaoTV9Fwd/81/Dwfshrl2n7hm0xQxj4MrbnP2T/0Dw1rOMmwZBnhVXooDZ8b0c+61/S3DkEQhqm8t7txl3pIUCDOgueu4CrVeeoZw0CaxFWtBS0A7qNMcPMvKhzyKOPYycOYKcOXzNxPR+woNHCPYdYc+9jzB58lGSUHJx7ipZ11K2MvfHsAjr5u9rK+kkGVYFVA4eRkSRG6EWW9GjWosxBmE7cOEt5r7/LfapDipZRokuihSQZCJiOR7jSn2K6Y9/mr2f+1Vq9z5FfPxxgkP3wN67YPowYuYI4f5jVI8/yMhddzO27yCXL88jE4k0CUoYFBqkRkvjetYq4mqjzeTxE9hyBSGdiXhbMSksX+DMP3wLdeZ1qukyUqSUrMEK6AQhy1GVxdIoyd6T3P3532Dkg5+idt+jcPQkcuIAYmw/jM1gx/bC2F7U3kNU9h+lftf9jJ54hMm7H2TZwlxzibYSbrhAllkORzn4kc9RPXE/hOWBnsomWhTrpmsYoUCVkFEdNXUQOX0kz6frJzFzBLX3MGrvQYLpgxDA4hsvolYWnLiyBiMlnSBguVRn7KO/ijz5OHL6GGL6CGr6IHLmAHLmIHLmkEvThxAzh1BThxB7DiH37Ccrj0EQIuVWiYkcY11v9OLbLL3xAtW0TbhOX0gIjbKQaksTSe3YUYjqNx9sLT+FEcJFQ8yWUZdOs/T0DykvXKKsuwTGBcUzSjhLDwIjAhIV05k6wMS9uYWCgeikW/pwbhQ36Ckw0F5i/hf/iD3zClXdzYc7+gicb4wFMiNoS8HIoRPIyb0IWXJH29zyR1uDTaGRWyha80Qm7Yeiz29JGIkwkmaW0g5CaocO5zOQbvbKLbQWWH7lWeT8JefAmp8rUZJWuc7Egx9Eju0FGe1MXJRdwp1zp9fFTbcTVpAJSScqY+pjZJUq6TVTnbRSx1QmSKJxGD1INnIYpu9h5hO/xsmv/yu6d9/HXFyjOxA5U6CpmhZjzTmab7wIC5edWTePtFlELdhKpMqwV8/x3Lf/nMnuEkFjkcgmKJshrKBFxFxYpXHkHo7+1u9S+8jnsTP3wsQJqOyFUhWiskulKpTHoDKDnT5JcP+HOP6b/zeCD3ya5eoe2qqKkZETbzKhalLqzUXU5VPoM6+DbkDek9geI1new9AZ5vy7dF57jpFkgRJtN5XQChIZsRTVmK3tYfLTv8KRf/6v0Q8+hdl7jGT0ADaaxIY1UCUIy4iwjAgrIOoQ78WOHEHvPUn75BPMfPE3Of71f0X9o19g5eADzO85xujDn2Dy5BMQxeuvCXIzSJH3/HMbS1QmjcokcYkkLpGWyqSlCmmpSlqqkpWq6LJLRKMINQ3RBKgqmaxgROimPANaCFIp6AQSUxuBSh2qdShXMWV3rDSu9VIS19BRzZ2jUsKWQ2QkENthXesd8lpNmEWSEpk2tc4yzZefpfnWcy7OyE3jLFPurClhY5krLzyNvXSKWLcQogMihYGF9ERhFVo92/iWY4EMjTEdWLnK5Vefp2QbA8Gq+gibz2RBU7EplcYi2eUz0FzEGOecea03saOses4CrESgEMIlhSAyGXW9TOetF2H2tJsmv8W4ZyZ7P/sB4O4cvKDIcRWq+xwYTUAHITsEJiSw10qKwCpC60ZyJQIpFMgYW5smvvcxjv/Gb9A+coDlKKQbhKRSopVGig4lvYKeP0965SJkad432EryhhUgXaZ14U3KS3Mo20VZgTQKYUM0ZVbCOivThzj6uS9TOnAvQfUgQpQwSmICgZvnUTg+SLfIXmQRUegCdx06ycTHPk/54Q9wJajSUdXcWVOBSIlNk1J7gdnXXkS0G86MPXh9W4V1/1ksaM3Km68zQptItFEkxBoyUaKlaqyUJ7n7M7/G6Ac+QzSzH1mKEQJCDCU0yti8khpIuBZDSFAyoFKqEY4fIjz5QaY+/qvc989/j4f/5f/Ewc/+KmL6MFbW8qJWVC46Nz0XDjM3hiW/lNzMnLsPE2BQCBQKOZysQlj30wowQUaWOxAKExDqMHdEdfk/lS7WmbT5fA6rwEqkDQiMIhxIkVFEJkDZ/uodxX3lT39rERZTvIZ1n5x1q4nIlIAu9c4KS88+g1launnRmisDYSHsGjh3kdlnnyHSLazskKkErcxtU5NKBNakdC5fJGguE+m2c1geeJou4r57n8IaApNRSRNm330duitIGWyNo+umKWKuFHnOzcUaLKpWgJYGozIi06ayNMfCqy9AqzF0pPeaY/PzFudfFUxugF3xnHaO26QYbDG5cBRuZk8vWKQzWwmMNFhhncrs1yk9Rb5RknlFLwCkxagSJhyHmRPMfORzXK3soRVUXPVvJcpIYi2odFIuv/gctJbB6t7xNk9R7Wo3PbXTITl9hmpriUhneex5gxGCVhCxMDrJiV/6CszcTRaNYG0xaTAXOUKAkNjeEsduu0WCiCGsw9QhJj74WfT+YzRE7JaKsgJh3YyXUtpi5e3XYWHeOUsKdw3rNQ83hzuOM+12IblK69K7RFlKYFzDCAJjDU0ZUTt6L5VjDyAqI1jKWMpAjLAhwhaTK/M3K/J1S3pOhgNdoyCE0iiMHoTxQ7DnKIxOQVTKg+kUxxl8s+/9LduB/Fbg5hVs8E+4JIRECJG/OTf/2SiNlXngLgTKCgLjZigZmS8OJS0omzur9yeb9pLIZzQId2/bs4TUwPMufh8K3gWFj4sAq5BAoDtkZ9/EXH4X0V105nHr4mJsUP2vQ/6+rYHGLPMv/Yyx5iL1rkZpiTARhhC9nuOdcOH4i0eRVy9b+2jeI4IA1Vmhee5NKlkLaQUWjRHQDQIWozLJ+AE6YUwmVO5gDcpYGufOw8oS0EYY8mg2W1VubxZ3/uKR9ormUFJYStpSzjosvfYsXHoXsnYuQ9zsNxcoa5B1DtSjuO9dZoa6xdyZgoJ+3jDCJQBhrYtoKFxjiXFhuF2mKTTsRv9cHSetOw7CulXnbAxqhNpd91O+6z6asuTGv61CGOVERZax8M6bmPaya+S3tJwWB8ug2SKbnaVqUgLtVhS0wpIJRTuMiQ4fQ+y7CxvXkWEZK/pBp4v/+0JisJBJXEQOBWEZPbGfox/8GEl5BC2KmQ0CgSHQXcLWCo2zp5ygQA80DpulfxwBYDrQukpr/jIhIKxCWLciAYEgq1QYP34PjE7ki0u5KZPYAGulS0P3bPNpaUUv2f1fNE/S9epVBatKWBkO+U0MpmL7jddGa/fsH88No21c/Q0isG7GkXSCohDS0giUcdYMk4dmdouhGXeHhZhaJ/VX+Sz+bXz+myMPxtR7y8W7HkhCYG2AtAHKSCIs5dYib/3ob6Ex21/06j3gjpxBugSzp1l560XqaYtyAoFWKB0hTZ6n1vmuGXgQvd9vEe5SMmgu0rl4mjDr5Mu9gxWCdhCTTu+ndM9DNKIKqSym0Ls3GnbaLL79OrRX8gXzdN9f4RbQrzFcXBiEs06syZt5+GtlQWYd1NIsF37xj9C8irUdsIVFbfBehkvSei+uuIJ+vXOns7YU3GEI+u3Zdgw2uDNIqIxw5MmnMJUaaR6/wJk9NMImiLRFa3EuHwYovrdV5PeVtFm6coFQ5L1UwCDJREgiy+y/+z4o1xFBmC9utf41bPwXh6pWKe0/TDi9n5Yq9SwawlqEzZAmYXnu4kDgoa157rZo2kX+W5pAo0XSaKFwPXQj3JorjSyjEyrKhw5CHKMJN+k8da0nMlwxXauSujbv/Rtbw606b0FhYi/Eux24JitE7v8BhgCMQhlBOTNUUg0XTrHy6rOQLGFIi+gVN4TAuMWnWld462+/Sby8QKSdpcMFunPO3L3Ir6tYm6/X22vnsIisAc1FmpcvEFpDYC3K4pabUzEjJ+6BEydplip0ZYQlRBmJsBCbLvOn34KVhTzqbrbuPe4cThgXJuTBvDGYDC5GhJEWQUaFjOTCGbhwCtVdQdo0z1nv5e0Mn6VIg7yX470/uNFy5VmX6zQKMl9aWQZumeuJKYLpfSTSmUidWTlFGTd1M2ksbXF0v37DldkUlq8S6A7KJD0zt0aRyJi2qlM+dBLCKgQ3v6iTRTgnxsl9RPvvphFUSLRb+0IAoTWUSBHtxYHIe3lPe7g8vkdsvhqnO4wFbbCdLoERCG2wxpJhSQUEqsTI5F6oVJ0lAbV+0CFBf8xrXQorwWrWX3F0t9PPz+sajfrZ6bpZf6tx19O3fgw+cSMFWSBpCUtTSlLppulJm1HWCeOdq7TeeA6aC0jabvq0LSJNbdAWFNgM0Vmi9eYLqNkzVNIGymbYfIXsTEI7S8kEeRCj4qH07XjuN8cOPrK1WA3pEvqdNyi3G0QmQZrMOaGrkFapQvnocdh7mHRsho4qY2yA1AJpDDWbIBcvQ3vZLSS4pUOVN0n+7vrFs8gdA0lIt5S8sggSom6T6OolVl56GrqLTjBi3XDdcJ7Y8PYGC8HAuWzxecjn6g5hbU14B7K9r1y4YRQZwegY8eSePJpa30agSCkpTWt5PhcUG+bim8dC0lhE6S426yKtO3tm3Fzz8uR+qE2CCK9bCK7/VwVRhdL+Q3SC2AV3Kb5lDSE6H94ZHrPcHK4KL7K0C5HdXFomlAKMxhoDubUkNBJlnWujIERZ1wtby7ob7ziu/c53EGsRQvTEnxWQYdFKUhqrkZZLNJUgUW6IRGAoZSt0Tr8Op95yi8Kt/6Kh18cdIEtgZYnmyy8QZytI2liV0g2gE0A3AFErkQW75gkNMHAvFmf97K7w7rPPEGddgjwcfDdQtIIAOTaBmJiBsSn23nM/3SDCWIE0oKwl1B3M8hzplQu579NGz/HWIciHnPNrK67QAka4xf5inVLrtrj84jNkF94F7WLmOKn6XrjW/tf62/uXO1dQFItvDjhcrvLoEaLY2Pu5enR4nSTE6kPk/6zII/mFZWStRqL64/BgUdYQY9Gtlhub3JJyuvogKjNk7TbCaKxx63lY6xySMikIx8YgiECoVd9c5y7X3b4a57hZHh0jC9zsggKBRRqDaHegkyKMexEWrlHR3xii6Bu42gOMJe10kLjwxxIXW19YiUXT6bTzQe0AkxeFNe4Bg3csirMUP9feuWe7sHnuGXjquR+msZCIADO5n/D4fTTDcj5B142tl4G4vcI7//gdWJxFZ0XvukhFA9RviFyQ6RSSFTrvvErjnTcoZy2kSNBKo0WGVWUWoipi5jA6qLhv9g7RP9atYcAnwOZDgTYjuXQW2VihlKTE2j1NIxRdGRKM74XR/VAuU7vrBEm5Rjc/gLAGlVmibsaVN96ATqdv5dlFuLpcuPpNQDcMSeMYIyWhFsQaQgOB7RJ257j03M+hveKGrsxGzeGtfpe3Dxs9wTuDvI0YbBacqbpoO4odir2cOct5zLsxeZfy34uj9RzVeqdx5jShkOUSWeBMa8UUOGFBakuQbWWmdYWgOKJIDe2VJsbm8+WLP0gwyhLUShAqrAywA74ExZ0PpuG/rUYACqEigrjkomFag+iJBgHGYNtdaCduxlXvu5sruO7M+SEMICRRHLvJZPmrVBaUEVhl6bZWoNuBLKNbvN5hxECe6KX+e/fsBAP5wlqEAGuFS/n2BEW3NsXIo08hJveiVexM3VYgMigZjVi4TPuNl1C648b/ba5IekNa7lgu+xgXhXHxEq99/2+oZS0qOkFhMMJijCajSv2exwgPn6RtotUm7nXHjHaaAXuLBXRKZ/YSYdKhWqxbI92smEyWqO27G8qTzqJYHyea2ksahVjpbH8hISWtmHvzTZibg26266JAug6DK+zaQiuIMaMTtPKlFchy52GbUdIN2m+9ir50BtLONfozxbvccAdPjq8Rb0EeWb8hxl3MugP5m6E3HYFWu7VmPr5SErDUqjWQhTDabLbIW14lkQKEXT3Wai0kydavsioopv7iRq/DiLBeJxECIwuLEG41WGEod5qsvP0ySXYVM+B94dm9WNyQBzb36AcnGmye58anCI8cZymqkVICrbDCEBhNtd1h9sXnsYuzLoLquhSNZwatBsm7bzPWaVLqtokyQ5RJYh0RBWO0y+OM3/MQSblKR61fom8lg1ckbQpZm9alCwQmwaJdoysEKZI0qjJx+G4IYxBlGN1DaXyKjlSkkkKREJBQylp0Lp7u+6LsOlzgOm0VHaOonnyA5coozVIVGwZYCcoYqpml1Frm/PM/g9YcyOHVVD3vlc22HLcpQ84yduMm/uZwloxrHbNo/DZWxVtBcV/ODCKuYaJUSkF2cz4NRed+zR3rweO5v/ZjFuThxYXo93Ku47txI4j8ECIIIQiJxibJojImiDASEBlSJAirKXdXWHnjOaLmLFUaG0yBs7vD+Wwnyac/D3bMNv9mtoDcz0XkkSuLKKtFMgDRGFOPfITm2H4asgpCoSyUdEYl6ZCdP8PSy89Cq9l/pcV99oY0DYIUFq9y+bmnqbUWCHXLiRijyEyJhqgTHn8I9h8jjeto5YbNimnoFvJYNqvuYGezkXWRItzLS2DuIitvv0Gsu0CKFdatZSNCxo6egOkDLlS0rUA8zsThY7TDiG7uHyIwhLpLLW2wcuZNNyR0SzPGcM3T7zQIKzE2IgkrsP9uwuMPczWo0JQhGRaFoYShpldYePGnmAtvQrI8kBeuR3HOPCKmLaaV92uMXvV7B3GHCgr3oi0D046uR5E5rptB+jtc/6irTa39bes1bJtl7dUMnfXGuZGd190n70Xe2IO8CfKiLFyB1iqA0THqUzMuOqkgf98aaQ2x7qDPvcvCD78PC5ecA96Gl7XuDb0/KfT2QNpNd19U2o5C7OUXXZqE6SMcfPRDtKIqbSVRxkW/DU1CnDSZf+F5srm51b3rXqjk/Jhpm7mXXySbu0SkG1jbIZOGTLpZUZ3KGFMf+CiMTCOjOpEs4q3kh6OoX1ZtXvv7dpFXK+4OM+g2WLlwFtVYIjBdIMuHXAVGhoweOAph2Tk1mxBkiXDvAWy1RqpcMyEwBLZLOWvRmj0LKwtY3S3udPWJdzrH5BnW5h+dH0VIqkpQG2f/hz6BGZuiq9wMOyssVmhi02Kiu8LVl34BraX+ZRc/N3xf69xn3o5sQb/otuXOFRS4HgRrs8VqVmWOwUy04TfWxZBXLsa4tSTyitAIg5bOCSzttbPbZ7oobqcoeL3y814LwfZc3qYpKnF3eSFENeKZw3TD2AXoERaEGz+OjKbSarD47M9Y+tl3Yf48JCtg8+EYWxyxCHzjKs6bywG3F7vy3gYNi71ykgsKK9z71griOpXj99KdmKIdxGjh4teGQlO3bYK5s8y/+Tx0FvJosS6MvHPOMJB1Ye4CV994nrC9gNKpWzxLBXRkwEpcof7o43DwMERljIG0s/4Qyi17jsI1cM7FOgHdYu7NFyllXZTtR0fVhDTCCsGeGYhLWJEXHhFAdZRo7yG6soJRAUIYlNUEJqN96Sx2cRahO0Xtlt9r4eh6a3BWl8IylLr7KY3A3ruo3n0vnaBCKhRGOuuNspayTmm8/QbMX3bLuq8ytW70Bovtgz44njtaUDhuNCMMNiODaZCeIlhDhos4mDWahKkL/ivy9ROyQNKRAjVag0D1K8stZjDfF2JiUGC4nd7Dmdd7BLcQdynujhSgbAjRGOXjj9As19FBCHmQGykEoZVUtKbeXmDxx9/i3b/6T/DOM7B0HtJWfkCDRQ9F0bvz2EWveSDb5Z9EnpNNDFJBXIXp/Uw8+gTtsEIrKKGlROqUarpMrXuZuee+A1ffBToAuD67BZ1Ce5mVV58nuPIW1XQZpSWRDTE2oq3KLI2MUXn8CSiXIQywxiKlCwZ3rdgjO/sMrQs+ZQyYBJYuYefOEJkUiYuOKo0ikSU6EzNE+w9gQ5V/D7RS6NoYU/c/SUuOkoSha6gRYCVxe4Wl15+HzkpPULgSMmAxupUIA7LlIoMaBUGNPY9+kE5lgiSskVqJtAqpQyKhkPNXOPd338Q2rrgQ7b2q/FrlfvCN7uzb3a3cuYJCgBVuzQ6XhnfoU2ju9z6S7io84aL9Q6eNWVkkMBlBMdsCt9Rx1wTEtdE8ZkPRF95e8qE/d5XXuP/bB7E6SwtABtSPPkB8+B4apRG6QYAUGmEESgtKmaGaplQ7bUpvP8epb/wftP7pb+HMS9C8BKadv8NiTZJcmN36KnNb6Q15FL8P/vEWUFxPkVf719OXF73fhYSowvjJ+2HfYRIVuSENA4E2lDJNuHiVKy8+DZ0FrEgpAYFNnWPe4mUuPPtzqu0WceasExpJW8Y04zoHH3qSYHIfqBhEgJDKzWYqKD4OWlRydvw5Crfibmf2EqwsEZgUYd36PYlUdIOAiYNHoTyCEEG/oy1ARSVG9h8iq1bpGCephbUEVlMWhrOvvgSdRm7lKd7ErW1SXDYZzhMCgggxOcPYQ4/QjMoYEaGMJDCWOE0ZM4bk7Fk677wOrYXcSmny0GSDfhoFxTkGk+fWvv1bSdE4QH+q0Q3wXrJN4eIFBpE0Ye4yzfNniXRGaCzKCIRVZDYkVWVq41M9B0VXKLaW4UZw3TOsu3ErKFqE4iqKKxmUadfqDdwkQqGrExz5yGdYHJ1mIarTkTE6D33upo91qaYtxptXGJs7xfwPv8U7f/F/0vrxX8CFV5ArFxCNi85py2QYk+ULrhWrht5BFcstulWBO58rr6vzcZ98CEQICCowfYTqA0/RqY7SFBIrrZupYBJGkhVWXnsOLp1G6KbrxdsUmle5+PPvE8+fpaabxGQoYdEqZEWVyaYOM/Loh6EyhhUlIEAKuUY49C4nf07Crm2StpeijBlot0guXSBqrxCYBGEztICOcmv4TB+/D0SMtWE+vT0/hIyhOoGa2UsauGB8AIExVE1G3Fgiu3AWTILsWSkU1k3e3gFE3ymyV78UfxvInFI4y9XoFBOPPElrfA9JuUomnadFjKasOy5PvPhP0JxzFkr35fUz/KAlqmf5HdivGIq7w7hDBcVggzawrSj9A2w2S7izaEjbJGdPIxpLhNb1ElxBCDAiRsZ1SrVxN3a55tp2iM3e7DUZFhOi30KsOvEWX4QQiDCAmf0ceurjLJUnaIYjtAPllvGW2oXjtQmhTammHSaai9QvvMPcj/6at/7o33Ppm3+IeeWfYO5daF2CziLauB7McHL9uC2+h93CrbytVefuh7Reg3AWCi0CrKpSOfEgK+UKSaVEEiqQBiE0FdtGzV9k8YXn8h5pF5IWXDpH8+1XqCfLhLQRpAgsWijaUYWZB56A0RmMKqFtCEZi7HorVa5lw2veNqR7Hp02V958g3LWJdIZyhoyY0iDEF2tEUzvg6gKNgD6s1SQAZTqxPv2o6MQI11zoayhlCVUkw4rl85D2u3NkHISewfv1DJUp6yDAJQEWUZM7WfivgeZl4KuEq4OICOwKeWsRfftV7Dn3oFus7fyc18o5BQfe6crPgwoyOL3W1podp47VFCsR/HyDfkEoF4kuH52LWwOG2fe4ij9bGTdnPfFWV750d8TdxsEVmOFi+WnESQqpLb/ELJUh3zpop3IhqvvYBvOuKqwbz/rnyU3wtYnqD/yFPuf+jQLlWmaYUxHSVLpfFuktRghUNZSyRImug32NOfZc/Fd1Is/59y3/ozX/vP/h+W//wby4luo5VlIV/J1AAaWYC/C/l5jiq7n5nFj+O7TxggMElGqISamOfaxT7MYxLSkdAuICQi1ptpps/Day+iLZ0A3obPEped/gZqfpZJ1UUZjBW69GxFix6YYvecBbFzDiGDAqdtixICgsL3/biHCVe9Gw9wlsvk5wqRL4FauxypFU0hm7r0f6hOgov4jFa4OtEiISuy5617aIiaRCi1xKwCZzM2SWrzihFg+7HGtt3LLEBYtcSsB1yaZvv8xkto4nUCRSQG4kNyh7VJNV3j7Z/8IjSU37X3d12ihZ0POp8LvzjvfcbygWIUrSNJqAuPi1Tpx4bLNWkEx3CS7GQEmV+oWQHdgaZa5p3/AePMctWSZwGiMsGhlyJSlUykx89gTmHC0JyjcKgSr+7/r5u33QD/CYz+5ts+6dtCFgbyxorH+IwDc8VwEwvyccp2dtom1ZxJ5zyuEkWlGPvQFJj7yKzRKe2iGJbpSuoXLTERglbNkSoNCU8ky6t0u9cYiE4tX2H/lHPbH/8DlP/7fOf/f/gPLP/tbzOy7roebdkBn+eqUxsWDzsOKe7YQ4fKXy6rD+Vn287CAzGaEtTrhiSeIDz6IjUZJgxArQiITUNMQL89z9dl/guVLcPFtFl97nkqnTZwJAh1hbYluUGORKgc/9HEYn8YEEQEWJVLIy7vBrImLMRxEbsexAporXHnzZaK0TWAE0iiklWgZ0IrLdMf2YcsjGGXzpfWMEww6HwZWMaXJuzHlgzSDKl0lMcJgpCUwLZbffQ3mLmJ1F4kltDafxbaLsKCMW2wdUYHRoxx99JNkUR1pXfAzjEXZjIAW8tJ5kvPnoJu6inydWqUvKGxvyPwGa873NV5Q9LCAxgpLJgISGYOM0cKiMRski1vE15BhMLkMUKQEJMj2AixdhDef4eozP6aSGspCoYxBWomxMW1VRY7vJZ46gCyVoDc+vH3jkBtm+w0Ewm2NzQ0GxCDHYGyGiac+zp7Pf4WlmZMslvexEozSCEMyofrBiZTBqAxEl8B2iHWLUrpEnCygFs5i332JK3//V7z7x/+J7NkfwLnX3ZRT08UIS6YkWrkQwJ6tQwjhBMV6D1b0/nMVfS4uGJ1g/IGHmQ+rpKJKYAKsTBGqRTlbovXaM3D6FRrP/pRqc5myyZDGglXYPDhScOw41ZP3QqmCWhNu2jl27zqshaU5ls+fIsg6SJU3gUKgZYAJK4ztP4QI3AwVBp1IRdHBUIjKCFPHTpCpGC0kRjhHc4nGtpZJL55DdJook3d9tiWOzmZwlYDLMwoqdar3PkRnbIaloEwWRCAkwhhKnZS4tcylV5+FxpWBWP5Dh+sxUGnuwiyw09y5gmLIwctlCeEsEkYjTQakiCxDWo20GmULl6MiGRSGAEGQSwBhtTOXLc/D3GmufOcvePdv/jtT7WWqWYrSWe7QE9GRFWZllfrJR2B8Jp/h0XfgKiiub50qdNtY93x54zxMsXmDP1+DwW9tf0WkkWhRhpE9jD78cU5++XeIP/h5zo4cYC4eZ1GUaKsyHRmhUYBbr0VhCdFENqFk2oxkK4w1rzC1fJn62dc4/+0/4cw3/yvZCz+CxnmkXSEwXZTeJT3Vm2DYnWhNXrgV5EPU174WV3IG9zGqQu34w9j9x2ipGkZGbrlxUkpZk9GVK6z8/TfovvoMo0mDyHaxwmJEQEtGLEYVJp78EIxNQxQ7Jz+Rn0UwYBVZJ9184dgk1s1UWLyMWJqlZDogjJvsIhSJCChNzhBO7nMOi7aY8rV6aooVbhpu7a5jJGHJDfUgEdairCZKO5x57hfQabvhlZ29yXUoaq7CBbb4KZBIDAGoMkzsY/TBDzAfVWkFEVqCFIZIZ1STBu23XyI98xp0F9bUcBa3gKMlH9ksPnjuYEGxHkIgrSEyHSpmBVpXkI1ZxIpLrMzC8uWBNJuny9C5Cgvn4PybcOol2v/4N5z+k39P8+kfMLJwhVrSJTYdhMhAQCYDWlGN8K57mXz4KahNuDHLPN8OV5rDv28nRZFcc84N/7CZ+vLmv3lD5HVKUbVIpAsvXJ6Eo48w9clf58H/y/9M9QOfpn34BJfLoyxEVZqqTCJitIjQInTvRrjBrEh3qWZtqrrBaLrEnuYcpbOv8u7f/gkLP/l7WLw4MPXs/YEo/htOux0hkKoGo/s48sFP0q2M0VaKTObBrkxKLW0iZs9QaVylnDaQIiEJLB0V0IrKhIeOUDl2L8QjICInKHo2Eje8supR9B7WOo9o27L68ERzS9pt0bl6EdVaILZdRC4otBToIGLmruNQGclnlq3zYq3AotAqJpzZj6qPo3GLBwrcEEGcdmBpAZYXc0HBene9fQiGGny30X3KB6yLW7ICY3GzV8qjjD34JHLvYdoqQue+FAhDiTaj7UUuPvNjWL4yMOC8+jy2EF7bXIXdTty5gmJoTrvFKXNlLSWbYGZP8fqf/Xte/c//K6/+p/8Xr/yf/09e+o//y1D6d7z0H/8dL/8f/wsv/ft/x2t/8L9y+o//35z/8/8fi9//M0bOvcyexixjOiUwBkWCkYauCmiEMc2RPRz/1C+jx6cxInLe0UVZXOUM6rkZCp8W94bdcJQw+TKvInQ9lZH9cOhB9nzm1zn89X/JoV/5OuLex7lSneJqPM5KUKOtSnRVhBGBi3EACDSClMB2qWZdRrtLjC2dZ/EHf8fFb/53aF0F23Hrp/gXuDUUHejh7Wso/J5kbjeUENaJDp9A7jvMklIYGSNNgLS4hlGnRLpLQBcrM7pK0AkCOtURDjzxIahNgijhvGuKXm/vdOv8PnSV21qQ++fqtW1GQ9rg7KvPUdIdIqtRufJJpSKLKtTuvhcb164xZ8Zt11Ji6qNQGyOTYR6TxUWZDNIOqrXEyoWzzjFzR4d+XLkeNAP16/PVeaV4RQK3IJoOyujxvUzf/yjdqEIqArQUZNKibEIlWSG7+C7m4inndDqQq9Z6tO3kPe9u7lxBMUQ+RR0MhFow0myx/+I77DvzIvtOv8i+0y+x7+yLa9Lecy8wc/Z59p96jr1nXmTy/GtMLpxhojNLRS8RqjbaLmNFijUhqanRLO1lbvoEo1/4deyR+zHxeD6vRLgQwHl9ta110CbJi/KaorWb6D8/0bNPuDnp/XYGAQRlxMgR2Pck0UNfZP8v/WuO/Oa/RX/411g+coL5ep3lUommkKACulLQVQppFCpTYCWhEYxmhql2g9brL3L+h/8A81dAZy5K6q5+Uu8TikzZE+MueqYFTBDCyCQjH/4ojeoerC4R6oBibd0wjVBWubgERhKYgMSGVA8/iDz4BIQjAHkpdRlIIN2CYVZiTbDGIbM31JXPLLn+xNKtQQDoLuGiaxDDrOtKgJFIoWioGnbmGIzuR6tqHjfClQ9hXXJHcQ7qkUiwlUnGjz9ES1axNsQKiTRlKhKq5irm0htgFvMZT7uPwl1e5HW9RBFENUaPP44ZPUozHGXFgMok0ggCkVFPr3Lhu38Gy2fRtt2vNKx2Vs/cEdj5Ag/71dyZ3PGColCyRvSXWAw0lFNLtZNR765Q6y5RSxapJ0urUm2dVEmXKWUtYp0Qa4sybk58M4hZiCucr+/h4sxRjv3KV5m8/3GIx1Aygl0sHgp6yn/4D7uWQkhcD4EVEqMibHUcu2c/0Yn7Ofz5L3H0a/+K/b/6O7SOPcr5yjRnZJ12MII1sQvpawEyhEgQoktIi5HuPCvP/4TlZ/8RmnMo28pbusIUe/sx+O5vRT4YtC67Ra2G9yiwa8Sb29etxTF24Ah7jt9PMyzTVSFG5P4DuXOGlRJsSCJLNOojTD/6CNRHXEwG2MWl1PkfuVu1oLssvvMWpSwl0AZhBdoKUmvIwpj69D6o1G/sJUqJCgLG7z5ONyrRtmDyyLFKCEgTLr/1BqwsQVqsaXIjB94sRS4s/K/cey/yh+29ezcDo7/GB3kgQwWTk+x94nGWwhI2qOXrvkiktQRZil6YY/mNF1HdhluBtufcOXwNHm6wtr0jsEXbI+hNO3MWwv5nV+n0kxDOriCLuBXgfJ9lAEGZtijRDOosRmNcLk0wP3mI2gc/zX1f/R3UXQ9ga3sQMly1yvfWVldFRr9epl/fIetaXOtotyPFa7VWYIMSlEahMgkzJwkf+BhHv/K73PvP/w3Bhz/H/OQRlkoTrARV964FzstfuGGtUrLM+PIsi8/+CM6/jkwaYN30wvfbc9spBnPlta3q/T1t8Wv+bpAh1CaYuvcRuqOTrKiIRAQuLHfug6AJSGTIsoqo3vcAHD4EcZD7TTh2Z6U52MxlkLTpXjhHKekSGYOwbkZaR0I7iKhM7YeoghJFDIWi7A8lIcBahJRQrVM/eJgkcLM9hAWMJbAWsbyImb0ImWt0r1/nbBVrzzE4tb//mVwM9PdCBJioROmBB1EH76IVVMhkiEWhDMRZRqXbYfmVZ53/XHfFTQkXzjJFEW4m98zsZbXr5tH3L7uzbOwQReZyL98tGqWlIFOQBIJOKGiGFZpBhUb+czA1wkrv782gTENVWA5qLISjzIWjzFenmB/Zy/LUUUae+izH/4f/ielPfAm5/zi2vAdNhDAQ9nP5+txU+Rz80rUOsF5Fsv7ug0XzfYfoWX1BOGc0QwiqCqUJGD8IJ55g3xe+zt2/8TusHDzJleoky2GFjgwxhAgTgLXEpIyaNuXFC1z4+T9A0gCre3E0b0eGc8iO54U8L/bOvV5W7uHkfX+XIvCYAlVGHLmHypFjNMMSCUVkWgv5pO92ENKojbDnkcdhbCKffeXudkfv+b2QdwRs2gXdheYS6aWLlLOE0GiEtVghyCJFW4WUDh6FqJLPTriGY0recCIElKuMHr67JyiKSkIZQy1LuPjKS0MWio0Oup3kMSGK5RQKU8UQVgisDLFhGUbGmXjwYZqlETIZYKwksJaSzqgmbezpN8jOvAlZKxcUQX7M/rEHT1GIijuRO1tQDGU0KyCT0AkkjShgsVxmtjLBbHUPV8p7uFKZWp3Kg7/vYba6h9naNFdq+0kOPUjtA5/kwC/9Ovd87V8y8/Evwb77oLoXRBmLRNncSfB6U452Ye4cblh2vIHZYmweSyQVGZlwUUUoJIAAq2JMaQ+6fojs6IPc/Rv/grEPfpKF8hhNVUPbMtKUsDjTuCQjShs0Tr1C88w7oJP8aLerpLhdGGrIBL0wcxZJJksQjzD94KOY+mhvtgc4M7hF0Yhixu67n3DfYee8h8Qt+L1Lc3jeIbDkEzayDunlcyRXLxNbN+3d3ZskASYOH4X6GKjA+QHQm/m6lr55FqIS0eQUuhRjhAvrLWweilt3aV++AM0VTNIZeAfXqdu2gRs5owFSIYEQE1UYPXYPZs8MqQhdoDtrkdpQzlJGOiu89k8/hOZinpf6PiaOWyWedh93tqAY/GzJTZ+CjCrN+jEmPvd/5eDXXTr09X/N4a/l6av/hsNf/Tcc+er/naNf+T2OfvX3OPib/yMH/9n/yJHf+j3u+93/mf2//buMfv63CR7/Ihx51PVwwwqEEShnLhQCUC7ohHK+0wNXNMStarHXKSuDAmK9dDtigQBBhCJEoZBIJMIthI5AOUcuERBEe5DTJ5n45BcZ+fjnWamMk8UlrNCE2qIsBFYQm4xqd5mlp38KzQVC0jwUmmdnKQGRe482xpQnYeYE0w99gFapRKZywSEVK6rEUmk/+x/7PKa8D0E1f/sMjZ3vNqxr7KSC7hJXXv859WQBKxK0cMM5lgDNFHvuecoJivXE7ZrCLPNnVwJi4um9NMfqdANJJ3Ah6yuZJTJt4vmLMH8WKQbXuVmnAtlOhh1ih8n1kQJCCwqFpUw6cZDpj36GbqlEN1QkwoLIsDbB6hbxxTO0334B0vl8OriL1oq0fUd6zx38GPIx82Fs7noTjIwRH7+P+N6nKBXpvjzd/0SeHid+4HGi+x+nfM+jVE4+QvnEw3DwBIzvx9bGoVTFBnHu1NVz0nCR6biNWuF1ntVm2G237EZb+/+G/7rqioWCoAb1vex57KOMPfZh5qIK7aA/rRTc+HJoNHrhKizPI0z32qLRs3lcz2B4a++pCyFAShibonr8IVaqkyzEdRpRicWgxGI0wp7HPgBT+5BhGZlLid2XY4cRLuy76UBjicXT7xBam1vZnBFDC0k2MkG87xBEpXwgyGKEc2S8XiKqwp6DVPffTVfGbptwoacDY6CxQvPC2XyaZfEO1r6L3ULxRqUIUFGVibtOoI4epxNUsCLECEEqNEGmGel2mXvxeVicBdFxwiSvx9e17Nyh3LmCYqiKKJx3XMGDTAkIlStEYR2iWp7qEI30U1zHRiOYcAQd1DFBzTU2QQ1klE8x2yjH3bgT5NZQVIzrpcG/bwXrj12C60U4QTWcbh1rRcQ1yNssK0swsZ+xD34KeeQEK0GJBOfUZQUIYZGZpjN3GbN0FZKE4M4ucptjg07AagrTn3ufdqPcFZVh31FG7n+KS9UZLlX2cCEaQx88zvhDj5NV6s6JEzY6wi7EQpqQXjqPaCyjrGvsAYwQZEoSzuyDctUFeMJiybBW31jKzap7T9xHJyjRle64IJDWUtYZc2+/CY3lfiHZ9uc2XIesdsO85tl7O0mUcA67e578GCvxKB0Zu+XapaVsAsrdDp1Tb9F6/SXnnGkyjM3XVR3Ik6v8J9bXtu9rfO1WYIsxVDASUlksp1Fkz2KDcqvWEblkIwQhUkQoGSNFjCXAEuSDGMVM93VY5Qy5EwwVvN6sjuL+riFwNti8McU5BnsqfXNkz0KT7+fGpzd4TruN/JFZgKAKo3uZfvgDNEtVEhlhBgzkoYU4a5PMXwad3syD3D0UFeRgugXciNObFX3HzNU5zSUrFdQnOPCJL3L3l/4F4oGPsv9zX+GeX/k6ct9d6HAES7jKqngzFAaT3hG245kVl2YNdNusnDtDTWduZdHc6dJ1kqA0XgdpkTYl0C1U1kTpFko3r5sETbAd4slxqNSwUUSa34+ympJOyK5cgsV5tB0Mw31zz+76DLzRoh4rROdGsy0GM4Or7fOSqiCsIu5+gNrJB2hEMal0YfeVlsSmy5huc+onP4S5y5CkWOPqMeFqtn6+vCHh+/7kNqnBt4E8Y/UcgQd+NwK0xC1tKyIXVVGEuZAogsCsrlgLy4YWq0cPr0mvltkZ1m0DNjARD5bVm7rGojT3Slb+Wbg542KgVdjgCnYvIgWR5pcvIIyJDx5GV+sugBISKyxWGCSGSKcsXjwHq5zVbkOG88TN5IvNMFBWb/Yp9i89g0Bix2co3f9hjn35dxh56lNk+4+SxqOA6q8YvCGr4x/cKiz5TVkLjRWWLpxDdZooq11oHeGGNQQZ0dW3WfzJt5j/zp+z8A9/zPx3/pCF7/whC9/5o+umxb//M67+4G+Y+/nPGDEBcRsiFGDd8t9Zl7DT5PKZU3S7neHL3Bny+rvII2ZNHh1o9XvvTLh6XUTo6iRTDz9GMlInk4JAm9yimiLSFSrNJdqvvQm6eOfuZK68D8TAuFVl5BZz5wqKIYTzryHO3E9hIdDkmSbPPMOV6UDnpfhV5ouPr16APM94+R7FXjvNYGVc3KPMC4tWLXRgQBbzyG8ed9/FZ3avd/xNYXvvUKCdI1wQQXWC8ZMP0yLACGftCowg0iAxNFvNAUc1zy2jl7VDLCWQZWR5HKpTqOoMKhwltIow7zrcDjm3uEYjMuzCRbLL56lqt5ihy2+agA4VvUjyxpt0f/I3JN/9czrf+Qad7/4Fne99g873/hvtodQZSO3v/Xda3/3vJD/4Jubp7xEuniGwGVYkGNnBCoONLHG6Qnr2NeLW5byOczXA7mOwPu7/LqIS4uBJ5MGHWYr30gjrELi5W2WdUG3PsfzM38HyaSpZG5EVFo7htVTuTHa+VdtFFBlgUKsWDW2/IrlONinEBRTBswc35eQmjNVbVp13J1h9vqKZt272vXUT44pGb/D63vN19nZ23xw8Zy8VDzkXOO/p+NdhK4+1FjvwdvO1A6SCIKY6PoUeevP92JiDPaPbj+G8sNXv7Lrkj9Wy2qK4lrWlb/0rFn35LxRaKIxwMqIYpBw+ylpu2dMYID+31ZjOMgtn3iLsNilJkddFAmUEkRaUUku122Gsvcx4a4GJ1iITzSWXWmvT2EAaby26z+1lRjvLVLI2sUmR1rjeOSAwxCbBLMwil6+CKTon13+SW0XxFnr5hBs5vehdpxQBcnyK/Y88SbM8Sku4KbLSQGwslaSDvHIRXn8J1WkQFccetLhuwoJ2u3PnCooNKqViW3/sf/vY/qqocDV0OVyqvM8ligLkkrSgUoPM8iA2W0FRzxmTT+HqJyHy6HI93FW6Leu8lJtgq27jhhCAlFTrdecjAgNXMHwlW3N/nvfK8HvYQgTbe/wNGchjOiFoLHD+pV8Qpi2szqduWoG0CmkipIlQ1ubJzVgPLATWEhhLaNzP/j4WOZREHhGy+OyaEDd3KbCG0GSYpXnEwlVE1t1mi5xYtyJ3zqO453LDzgyFGlAgI8LDR5i890FWbEgqnO9cYAUlbSgnCVffeA3VahCKPGJmv3ZzSRTHvLPK+50rKDbIZxaZZ4MNdrhtKDJzUeAkE+OTgFsgCKRzQrUWtCZdbkKiyd2/B799U8XCWjBZhrWmF7dr8BhhWEyxdH1Bd473epb12ck317tmIcAY52xqrbvnAdGklMqf7dbc404znBduJk9sioE8tMo1Zw1F1b4OG2wWRZh94aaV9h2Gr0f+FPLytfPk92oNdJpw9RKV1hJl3UWaDGENVghSEdKVEV1ZcrMzgphuEPVSR4Wrk3SpqwZTRFcFeSq2BWQixNrQrethDLHOqKZdrrz6EnQaQLq9oqLnrFAMQ7rOoLDGNe29zsy16OdoZ12IoD7J1AOPko7N0JIRqZQgQGGo2BQ1P4dqLKN0iso7ZatKRm+BtTuLW1EKdhWrhzfef7iiZEFKoihCCEGSuEJeDNFILI35xa3zLcsfaLPZxBo3z7toCCQCayEulbatVXpPtzBQ39xI1bMulp54EMIOVKD9mwvDEARoXYQm9ni2gjy/SUvr4lmiToNYZyjr/HiMEHQCyXIcMl8psVSqsRjXWCzVWCjVmM/T1bJL8+UaC0Uq1ViKayzFdfezlKe4mm+v0VWxW53UuqZEWU2Udpl98w1McwVrsu0p5NuAAbrg7icow9Q+ancfpxEHtEJJqixWZghSqkmHku6ibL5gmHUdtDudO1pQFI2HExVO6RemeCHE6iBFvebmWk3OgEIdTkN5bXiPrccdVYALqhVUMfU6nUCRSXdfrqfnBMXClYuQLOShZdXqQ+Vc7+57OwiF0A3aV85RSjNCArd0spVYq8hkTFIdhXgUbC421hxkON0Ybk+LxtA1CUYn0F1Bd68CeY8pzdxtFm7872HMs2fSRIEN8qRBt0mW5oiU6B3UPVmJIaRcGwcVI+T6z9az3RQmiFVb1qTbh6Jc5I6XnTbd8+eJMouyzgfECoFBshLXkCceZ+KTv8noF37bpc//NmOf+y3GPvdbjH72Nxn9zNcZ/fTXGP301xgZSPXPfo36Z79K/TNfZfxTX2Hs079O9bNfY/TTX2fqw1+iXZ509YnIQDh/rFAnVDtN9OnTiG62y3yR1y/sxaZepAAiqEwx/cHP0h7ZSxLUsITO+iFSFE5MyHx6rBcTjjtaUDBYkVj33+oZCcOZ5EYat+Eqav2qauO/bBWr78OoiGByio4KkaWKG2cEQgSRMYRpm/aVc5huE2PX9qI3btoH/+KStRkszdK9cIZKmqBMbqK2AkNAoiKSygiUak58rHkOw8e8MQauAIkmyNrI5jzJS//E4vM/xl58B9rzLmCZsCANVvadRtdex3qs3ctiIGlx6qVnIem4v+bjqlpKUhERj0yCipCiWAbbs3OsfWcF218Ot4Oh8mFSaCyyePodlNb5IKKLi2BEQCuuMfnkxyh94FNUP/Q5ah/6fJ6+QP1DX2Dkw7/M6Ie/yOiHv8Toh7/EWJE+Mvj5i9Q//MuMfPiLjH/kS5Q/8HnEw59A7jtKRymMBC2EmyptEuKkQ/PUO26xMLuLws1vUJ0UeUAV2kcoqIwS7TvK6D0PkcQjaEJAoIVBoPNZXrlZ127VgO3tzZ0rKIqMdY0M9n5CCAFhiXh8ilSGaAlgkRrKmaaSdZh/9QVk2kKuM0C9fsVbVGp5oRLWxb83C3D1IunZ005QWBfk14WyVTSNIh6fhqCIRPjehMP1EUjdRS3N8fo3/5h3/vIPuPTNP+XVP/rP8ObLsHIJRIdMpGRoDIXgGT7OWkS+r7D9ESJhEuzcRezClXypaLefFdCV0FER0ehkHnnx/Zazdpbd9fTWLxXbz+D5LGQd2hdOYVauokyCEEUjB6mICSb2w/i0W7+jMoGtTEB5AiqT7md5EluacKvqliaxZZdMaRJdcj9Nqb+viSdgbD+MTpNOTNEMY1IZusnywqKEJbaa5oUzboVOEpA7Z6IYfDqCGyvXrPc2hYRylamHH2M5KNOSIZkMyGQxl69fH3gcd6aguEYGcBOtbrB1uY0QQkCpRmXmICsaEiHJhAZrCXRGKVvGnH4dLp2DIijN0EyX1VVnISRMPnag3TLRaQs5f5aLP/4u5cZVIt1C2g4Ii5aSRIVk5Rr1g3fl65sUx9665y0RkHRovPkC2ZvPMN28wKHGBSYvvsHpv/1T7Bs/g8XLBCQu9DAa9E2cX4AwTURjjrkXnqbeWSHSmRtPxQW26kpBMDlNOLkXwvLwEW4vimIxmHaK/HyFmOvnw1vRoBcUDpm34hpc1a1NBitLXHr1WeoiJRSJE/XSgpI0iagdOgljezFhDUyMMC7CLzbMo/0GCEK3LLdwk2aFkEghUflPKaRbA0UI9xlgpMLosWM0SjUSEWOswlgB1hDZDH3lHMydg7Sxc2Meef6QeUP/nt7KQP5yNZICVUIeOMbkQ4+xVKrQDFxofXdkZwt6T+d4n3NnCoq8/A8Oe90RQ2DlGqMz+zFhSCYNWlqMtGhpCHWXcPYyF3/wQ7gyh0kzjNYYs1FFUDywtCcmdNYhbS7TeP5Zmu+8gUwbaNV1+wiDERatFON7D1CZOeAqqC3EFfE8ZFi7SePcW9S78yjahDQpJXNUr77D6b/+I9I33oSlZUI9EPHyRhEZiA6SBrTnSF5+hvkXn6GctAlMfzxVY+hKKE/NQH0CgniHW+EtZrDt3Ok2dKDMOk/8Qa457WMbKc670+qqj8WiO03al88iOw0CkyHQaKHpBtCKYsb2H4HSOELEGOmWFij8KK0EIwVGCqyUIBRGKoxwSQ98tlJhi89CQliicvQI3TimY/rTpQUGZTLipMHcay9A0sSSDV/6FlA8/6Jj48ZWbR6teG0+uVGKO5EujH55jOknniCdHKcTBARGOMfNNdh+5NTCSnSHsd5TuWPIheid89pFifpdD9Cpz2DkCEQRWoKwgkhLqiYjOfUil370l8irbyGTOSQdNwZq7WqLhbG5YSJ3SuwuopYv0H72Byz85HuMd9vUjSA0CkRAF0tbRrTiOnvuewTKtS0XFKsrdmd5UUkHYTXCppRIqSZN6isLnPrun5I89z3E4nlUdxFs25lmbeam4a2TKTJdjAVrSBZh+RLmFz/i3D98k8l2m1ImUBgUBisUXVWiXRlj5P4HoVx1X7UbCTTPjdB7LaL4rVA1g593iiK/rZNZtpPe6QIC3cVcPUu1uUjJWCJrUNZgkXSsIp3cQzBzEIJSvmqFcyn+/7d3Zs9xHOcB/3X3HHvvAiQBgpcoirREkYooyxRFRbblsmynHKdylB9cec1b/gr9A0keXEkq5dilUhI7iS1FLjspx3FFVS47Vip2rOiybIkExcMkQNzYa3ZmuvPQs7sDcGECxEUA82NNARzMTHd/fX399fGl4y6EvRAGI5f+v7+02NjjvoRK/Fc4GHzwa1SPP0Ls1jDSsRYMI/C0wSdg4fIH0GwnDuC7Hf9GyuxOM0T6y4bVFouUcpgopyJZU9cRPqZ6iKFTT9LxhgmVZ+2gvZ0dYoU0Dbq3u9noFn3HsaeyW/lQOcCB33qambhASzsYIZEG3Fjg6Tblzm1ab/2Q97/5VRh/A2Y+hNY0RHVruoysgyBM0/6/vQjzt+HKL7j9vZeZ+I9/oTo/QSVsUYg1rhbEUhK7Dg2vgDh4HPfko2g3v3nFzwDKAa9AJDykVkgNrrZ+NfJRi8rcONdfe5Vrr74E7/0PTF2GZpLOqAlRC8K2degVd0C3cWhDZx5mr6Mv/4Ib3/0WV//zu1TmJsg1F/G1QYgYIQyhdGh6JdShkxROPQy53JLGantZVQt7B0u7oS2uO6ko98JeIsstjc0Atij8VDAGIKhTv/Y+frCIi0AmFjItHDoqB/tHoTqcTC/29yit5uoqEr15AGMdCnazQhgX3BKjJ88SeGUiqUBIJNI61SJEzM1Yi2ezNaDUbFRJ6isDtlykrBO9cjOozC8PP10/u3IAhI8uHWDkzAWa/jB1fOLetEc3oNQ3utegIHc5m9Si7wy6ha5rRt3tRDqCQp6Rpy6iTp5m0ZQJcdAiBtHBNW1ycZPh5gzDV9/j1qvf4Mo3v8rCj79N5xc/JLr5Jky/B5PvwsS7mMm3mHn737n2nb/jw2/9A/qNnzLSnCMfNnB1y+7qFhGRjGkLxYJfZPTJC7BvDCPz3cmJDaQ7WgByBaonHqFdHAGdQ2oHaQzKhPi6RS1oUp6fxPzqTS59++tce+Ulbn//FXj7J3D9HZj8FUxfhqkPYfoqTI3DlZ+z8Pq/cuu73+DGd/4JfvlzSvUpvGCOggqRBCBiAiVpuC7NYo2jH/sEYaFMjCTcJMPv2kjJaI2km990M7wVLOko7rAqpmOTHjFuNttk3k6CEroDzTpT45cSR2AaElUgEg4tN8ex02fAz4G063rWzfKi4+Txhw4Ql0pE0nowshiUiTDNRRZufIjUXcd4y0vOoHurxSyzeCRWFkjUge5XVyrz6bAHhy8BD4NQLoyMcvz8M9RFibZSRMKuoYBu2Vz+vcHf3M1sdIu+gxhUwHY3ynUwbh6qY1TOf5L54UPM+UUajiKU1sDnmBCfBoVoisr0OEOX3yR47TtMvPwi4y/9Je9/5c95/yt/xvtf+wsuvfhl6v/2DUpv/YTR21cYbk9T0A3c2G4V08LQVpK66zKZH2Loox8nd/pJdL6SiH8zKlzSmUgH9+hHqD3+cWaKI8z7VQKVx6BQRuNHHYbjgJH2HCMzVylf/hnx6z/g+rde5MqLX+bq3/81t155kRv//DV+/Y9/y+TX/4ZrL/0Vi99/GfXOj6lM/JLawk2q4SIlqZE6srs6lMuMW2CmPELpzNPkjj2O8aq9JWnJmOf+xlifNul2caUmeavotdXLWXIiYTeWAow9NXE7SctMJP5BYIV03AthC/3ra5jZaZQJ7TZGAbFQdJRHq1Qlf/CwdV63qsWDIukSll29g6sGfEH5UNwHBw7QkTJZvxCDiJB0KIgOzZvj0FrYGvdZppuG9E+rXAiSgiRYYybENvfyZfxTZ5BHPsKi6xCqng1joGhWuLmr2cMKxSpZS7m7zxGAEC44FYbPnueBz36exdp+Gm6BpvTpSI9YKBAaRZt81KAUzFNqTlGt32L//HX2z11LruvsX7jBUH2KQmcOP27g6g6uNoBEC4cWLovKp1Gook8+zsGLn7Xb0oRCiMYSr6QbiyFyfeLKfkafeZ7SxU9xzasw69mT/QwOGokw4OmQYtSkEsxT6ExQaP+acv0GhduXkJffwPvw5/hX/w/3+rtUFm9Racwk6a3j6RaO1kgjMDgE0qPh5GmU9jN87hnGnv4slA4jyeMgcRHYY7y2m3RXdzfW8uxmcz9VxjXEZcmjG2MKN2iII66/+w5e0EKZCDskEGihCKVL9diDiOowOP3pjo3HgXKNwtgYkVRoYXc3GaGRJsLTbRZvfgj12eUvbgBLy+bKYl1fGY7BKhSqACNHyJ86Q9tVyfZRm6X6DqvZ8nzfG+xRhcIWMGMUGs92Lt0DjkRMLCVRT0PvP7/egrn9CJsm6WDyNcqnn+LIc39I8/AZJv39LKgibekTGmWd5BiB0gZfxxSiDqUwoBi1k6tFMQwohhGujjHCEEsIpaDpeix6Jab9YabKR3Efe46Hf+dL6Moh8JPFianRw92vNSKEbejcPAyNMvzs5zjxuS/SHH2ISbfCvFMgkC6xUJhkoZo0hpwOKcQBhahJKVygGi0wFM1SjWYpRwsUdBPftHB1bI82RhJpSYxP2y0w65eYrI6QP/cM+55+HoYOg+P2/VcaVjVO3DysPG0c7Cy3VopQ2cknHRtiA1okPl6MHfGmo7zOnLl3hAGhiYXtMO0ppy5KC6S2HkNDYrv10Qi7sHDT4+gCktAYtJSYRKZgf9coOkiQAqO7jvfiZGGuufceJ+m8OgtTNOcnUVGbXARKg0YQCYfAyeMcPA75iq3vcEd4/VUCd5FU75FunLsmKwOO9bR78MQZ2k6FQPiESGIEAo02IVHQIJqbTYJfHtYqwl8BQbJlBUkoBUIpED21ighBnIhdpKcnkrdXewmsxQvjgFehevY8Ue0IDekROgKjjG1LpMEIgTIOTix7vntSUrvXHN8x7FGFwoCQhNqh41ZpqxyhkoTSmv4Dx6NlPLtHe2DHt1NJsluAwEMXD1N6/FM89Ad/Qvn8p5mujDKtSjRkmbYo0VIFOsrDoJJtUmkZ9M2hMdb5UNPxmXd8JpwCN/PDBA8+xukv/Sn7n/0j9PCDmFyZ7j4Jg5+soVgu25WutSBQxi4N045LpzpK5YlnOfGFP6Z64XkmKqPcFgUWnCItr0Sg8kTKRxoPRzu4BhxiHGOP13VMhOzOlUudrFjPEYkCTbfCvF/llltmduQBjnzhixz+zO/DyHHIFUFZnyk2WmtNx2aQqDRujrZwaCqXtlLEKIzroT2fjnRQnp86O8DGe3mObHlqhMH4eepaYpw8MT7goKVP0zjUMcTKRyc+YzY/jgqDROSKNLEOtCJ8IuETSo9A+XScPEGUOI2D1HqL5dcaEFZx8HIOoYwIBQjj9CwTLeXT9Eo4YyfAL6GxinM6mPTyy7XlaDq+xlpKPA+GjhLXjhB4QwQiR0cqOkIR5XzaQhBE2g7jl4SxlnBXwChw8zSVRyBdOsoePBVJQZQrEXs5cDyEdAaEtTztgy+JtIdcSQfjllAHT3Ds4u8y7dWY9zxariJUHiZn870duRArkCqR0bpye0ehXnjhhReW39z1GCAKUTLm+tVxgnZA3NFIqai7ReZy+yl/5Dy1k+cwnr8G74P3O0srlBDCbt0s5CmOHaR69BjkqzRiwWKkCZVDLO20ZCwglHYkGCdXJBVtV9ByPFpOgZZToulV8R/+KCMXP8nYM8+h9x3CqYwiPe+O9QNW999c2RoBoRBoX6GKZXJjRykdfxhTrDETS+qRPagbIJKSONmTDwIjJEZ4xMkVCZdIuAgUsXBZ9ApM+xXCsQcYvvhpDn/695APnKSdrxEJHyPkAK8oS/NgexAQNFi8fYvW7Ax+pNHCpeXnmXF9qo+cpXb6SfAqIP0kvnbB3/ahIXGPvTA5Qdhugg7oKLvYdyY/RO2xpygdP23XDAgr582NsUCbkLwUzF6/gWnWEUYRCZeWm2cuX2LswvNUjp0ClbOFUcaJj6BuzJb/vAvJYxqQpoMTNJm7PUGkIwSKQPkseAVmy0M88NvPI/NVjPSSmmZSSm1fPqsMeRki6SwNQhpwBLLdZPbqNRQRoYppOi5zXo388cc4+NFnoTiMSOpW/xvrxLo1pjE9yezsFMaEydotn1m/RuHUEwyfOQ/5SmKNvJcw++8IIZBS4pRyGKGZnp4GY6d466HLQn4fzQNHOHTx41AagsQKuvxr9xKLnYAwXW9Ye4rEnNueh9lbXHr9Ryxc+iVeMA+VGg987BOUTj0BB471nIWRFKbdhiG2J0USIsM2LCzC/BSdm+Ncfe9tgqlbqE4DFXZwYisDoxMnalIiHI84VyAuVRk99Qi1oyfs6LxUgnwBjY/EwaTWf29og3IXkjGU3UevNejYXo1paM7TGH+fiXffoDN1Ey9qQxgg4hDXaKS2h14ZIaxl1VGEWts0Ffchagc48Og5ig89DJURyNXQrkInnVl60swuFkvSu/nJXhkDRkQI3YZb15h862dMjb9LpzFP6CqOnTvHgUefgMqDSKfSc5BnhJXitkTdAFrbk1jb88Q3P+DKf79G4+o4wghMscbBx55g5IkLUD2MkU4i/c2NrQE0IapVh5nb3Hj9B9y49B6gGT58mCNnz+EfewxdHkapnDWbSzsj32eNdSExGmmpIZhDNmcIr33A+P/+GH1zkiiCsFzj9Gc+j/fgo4hcFaQHmMT3RLdErqdb64+zrUqhESYkun6Z8de+R+vmB0AL4+U5ef45Sg+esUd1F2qJQrMxhnFjYoSJIerA3AQ333mdm2+9Tl53iGLFobMX2Hf2PAyPQb7ct6quG4NuLSIbtwmvvseVn/4XwewUWhQZfugRDp+/gBg7Dm65ZwVaj7R3EntSodAYdHLwESKG+jxmcR5hOrYjzJWTMwxcVG+/8W5UKLrdrT3yxqbTQNiAYAGCFrSaRHMztBYWiIMOQaeNjjWe7+H5BTy/hj88BOUKeDlQLmGuiOt2p4usrPtd0dZWLdv0mX4edkdVRAgTQdCAdgNmb9NsztJYmKWzMI9ot1E6JooiYmHXFXiFPNJzKJUPUtp3GCrDUKjadEsfhJ2rNimnltadud3Dv+0KRSIGTYwkhjCAdguitj1TxBH2wLFcmUiUcYzqvyO0PZJ5+Te3AoOdjxYCdAC6DuEizDfsHLrjQbGIKRYQspgqY5sbW2NVHHs6ahBBcw5ky7Ypjg9OEVQe7TpWctrqFEsXR6brxSpIZkyMijGmg4xje2ZKpw4L84T1Nm71AOw/SOw4SOGnXo5Se03uRT7pePd/79WusAmLE9BetPfcHORr4BYw0kW4XWvXWsO9E1urQkimt9CRPWwuWIR2G1Qe8lXw8xjlgnSSNm5jFAqiCEzHnlnTXoRWHaPyiFwJilVQbs86kSkUuxzrI87g2kFXUkMj+1MoQKGTf8pYrXb3KRMkXa11ZgXWXbs1bGsEAcTp0VSyuklHdrQosM6uTM7+2bGn5AEEwuBgF4mBThrRdJXaOll2C/fSQt5VKrTduy8AHaJlbNdKxBF0OolMkngnP6I4wlEFu75GOVaJ6D7TCyj5vfs6XYUiYeuS36crAGHLPiklz1aDTvKABBxCBK59DCRotJ1L3g4MYOyCN4N1H210ACKHNH235H0bytaVszAJxUkOGIkJME7iDyNSvUGxxJ6+akQy9dBjjXHt5UlfTdYmxpgQhYFIg1sg1naxoOxJxGC62x8heXOVYfboBs6d7xqRrA8JbIINIDy0tsszhdxYi5GNSZR8UyWpMmgCm+IIUG6v2vWnOjYiDl3JGyAmikOUEkRInO56sySY9HTHRoR8v7MnFYq1YIzZpcrEvZOWSbf4pGWkE7usnbEcILsV2qT7iW66VjvlZTA9l/AyZY3ovTOoD9kmus3hqkgetlNW26RQpOjnh0mtce3L+35gSZkxOmWx6puu+lWgG+81xH9VGWgtg/TqoVn2Yuo0v7t+q0v3G6x+pL+p5X6QIO4hjhtEWsLLY7VX2FqJ70B+UyeyV9kLMhFCrHjtdNaUgl6fc781FelUrClFW07vNOckmt2OJ93XDrq3ImtO7rIIrBqT2K+616pit4WsNT0Zm01mocjYcFa0UKxU0nZBu2AnUWwC70i3faDPLkjv9pPufu83ZSdF2hncMoWC3hQNyVz7xo5u++VxEAPq5R0P/iYV536V+faWi24e7lW2XuIZe5OV2iXu8rcdyB3KRMYmsENk3NUQBkR3wK0NZYVgV2aX1cPtYE3y3oVkCkXGhjNgfP6bWdPD9y+2Ad8lidkR7ARZD46jvbv0b4Of3EJWHYFVP7iN7IQ47j6yKY+MjIyMLWbFWYaMjB1MZqHIyMjIyMjIWDeZQpGRkZGxxax5fUNGxg4gUygyMjIyMjIy1k2mUGRkZGRkZGSsm0yhyMjIyMjIyFg3/w/gP/gz2gJDKwAAAABJRU5ErkJggg==;" parent="1" vertex="1">
                    <mxGeometry x="247" y="75" width="85.01" height="62" as="geometry"/>
                </mxCell>
                <mxCell id="16" value="Client" style="shape=umlActor;verticalLabelPosition=bottom;verticalAlign=top;html=1;outlineConnect=0;fillColor=#cce5ff;strokeColor=#36393d;" parent="1" vertex="1">
                    <mxGeometry x="353.99" y="-4" width="30" height="60" as="geometry"/>
                </mxCell>
                <mxCell id="18" value="" style="rounded=0;whiteSpace=wrap;html=1;fillColor=#fff2cc;strokeColor=#d6b656;" parent="1" vertex="1">
                    <mxGeometry x="102.49" y="268" width="533" height="187" as="geometry"/>
                </mxCell>
                <mxCell id="19" value="" style="endArrow=classic;startArrow=classic;html=1;entryX=0.5;entryY=1;entryDx=0;entryDy=0;" parent="1" target="14" edge="1">
                    <mxGeometry width="50" height="50" relative="1" as="geometry">
                        <mxPoint x="368.99" y="270" as="sourcePoint"/>
                        <mxPoint x="676.99" y="261" as="targetPoint"/>
                    </mxGeometry>
                </mxCell>
                <mxCell id="20" value="HTTP Request (GET, POST, PUT, DELETE)" style="edgeLabel;html=1;align=center;verticalAlign=middle;resizable=0;points=[];fontStyle=1" parent="19" vertex="1" connectable="0">
                    <mxGeometry x="0.2468" y="2" relative="1" as="geometry">
                        <mxPoint x="118" as="offset"/>
                    </mxGeometry>
                </mxCell>
                <mxCell id="21" value="MapPost()" style="rounded=0;whiteSpace=wrap;html=1;fillColor=#dae8fc;strokeColor=#6c8ebf;" parent="1" vertex="1">
                    <mxGeometry x="118" y="296" width="120" height="60" as="geometry"/>
                </mxCell>
                <mxCell id="22" value="MapGet()" style="rounded=0;whiteSpace=wrap;html=1;fillColor=#d5e8d4;strokeColor=#82b366;" parent="1" vertex="1">
                    <mxGeometry x="244" y="296" width="120" height="60" as="geometry"/>
                </mxCell>
                <mxCell id="23" value="MapUpdate()" style="rounded=0;whiteSpace=wrap;html=1;fillColor=#f9f7ed;strokeColor=#36393d;" parent="1" vertex="1">
                    <mxGeometry x="370" y="296" width="120" height="60" as="geometry"/>
                </mxCell>
                <mxCell id="24" value="MapDelete()" style="rounded=0;whiteSpace=wrap;html=1;fillColor=#ffcc99;strokeColor=#36393d;" parent="1" vertex="1">
                    <mxGeometry x="496" y="296" width="120" height="60" as="geometry"/>
                </mxCell>
                <mxCell id="25" value="Web API" style="text;html=1;align=center;verticalAlign=middle;whiteSpace=wrap;rounded=0;fillColor=#fff2cc;strokeColor=#d6b656;" parent="1" vertex="1">
                    <mxGeometry x="102.49000000000001" y="238" width="60" height="30" as="geometry"/>
                </mxCell>
                <mxCell id="26" value="" style="endArrow=classic;startArrow=classic;html=1;entryX=0.5;entryY=0;entryDx=0;entryDy=0;exitX=0.5;exitY=0;exitDx=0;exitDy=0;" parent="1" source="21" target="18" edge="1">
                    <mxGeometry width="50" height="50" relative="1" as="geometry">
                        <mxPoint x="316" y="427" as="sourcePoint"/>
                        <mxPoint x="366" y="377" as="targetPoint"/>
                    </mxGeometry>
                </mxCell>
                <mxCell id="27" value="" style="endArrow=classic;startArrow=classic;html=1;entryX=0.5;entryY=0;entryDx=0;entryDy=0;exitX=0.5;exitY=0;exitDx=0;exitDy=0;" parent="1" source="22" target="18" edge="1">
                    <mxGeometry width="50" height="50" relative="1" as="geometry">
                        <mxPoint x="188" y="306" as="sourcePoint"/>
                        <mxPoint x="379" y="278" as="targetPoint"/>
                    </mxGeometry>
                </mxCell>
                <mxCell id="28" value="" style="endArrow=classic;startArrow=classic;html=1;entryX=0.5;entryY=0;entryDx=0;entryDy=0;exitX=0.5;exitY=0;exitDx=0;exitDy=0;" parent="1" source="23" target="18" edge="1">
                    <mxGeometry width="50" height="50" relative="1" as="geometry">
                        <mxPoint x="198" y="316" as="sourcePoint"/>
                        <mxPoint x="389" y="288" as="targetPoint"/>
                    </mxGeometry>
                </mxCell>
                <mxCell id="29" value="" style="endArrow=classic;startArrow=classic;html=1;entryX=0.5;entryY=0;entryDx=0;entryDy=0;" parent="1" target="24" edge="1">
                    <mxGeometry width="50" height="50" relative="1" as="geometry">
                        <mxPoint x="368" y="269" as="sourcePoint"/>
                        <mxPoint x="399" y="298" as="targetPoint"/>
                    </mxGeometry>
                </mxCell>
                <mxCell id="32" value="Run&lt;div&gt;Code&lt;/div&gt;" style="ellipse;whiteSpace=wrap;html=1;aspect=fixed;" parent="1" vertex="1">
                    <mxGeometry x="138" y="356" width="80" height="80" as="geometry"/>
                </mxCell>
                <mxCell id="34" value="Run&lt;div&gt;Code&lt;/div&gt;" style="ellipse;whiteSpace=wrap;html=1;aspect=fixed;" parent="1" vertex="1">
                    <mxGeometry x="264" y="356" width="80" height="80" as="geometry"/>
                </mxCell>
                <mxCell id="35" value="Run&lt;div&gt;Code&lt;/div&gt;" style="ellipse;whiteSpace=wrap;html=1;aspect=fixed;" parent="1" vertex="1">
                    <mxGeometry x="390" y="356" width="80" height="80" as="geometry"/>
                </mxCell>
                <mxCell id="36" value="Run&lt;div&gt;Code&lt;/div&gt;" style="ellipse;whiteSpace=wrap;html=1;aspect=fixed;" parent="1" vertex="1">
                    <mxGeometry x="512" y="356" width="80" height="80" as="geometry"/>
                </mxCell>
                <mxCell id="37" value="MySQL" style="shape=cylinder3;whiteSpace=wrap;html=1;boundedLbl=1;backgroundOutline=1;size=15;fillColor=#f0a30a;fontColor=#000000;strokeColor=#BD7000;" parent="1" vertex="1">
                    <mxGeometry x="247" y="598" width="60" height="80" as="geometry"/>
                </mxCell>
                <mxCell id="39" value="InMemoryDB" style="shape=process;whiteSpace=wrap;html=1;backgroundOutline=1;fillColor=#f8cecc;strokeColor=#b85450;" parent="1" vertex="1">
                    <mxGeometry x="390" y="608" width="120" height="60" as="geometry"/>
                </mxCell>
                <mxCell id="40" value="&lt;b&gt;IRepository&amp;lt;Person&amp;gt;&lt;/b&gt;" style="shape=process;whiteSpace=wrap;html=1;backgroundOutline=1;fillColor=#dae8fc;strokeColor=#6c8ebf;" vertex="1" parent="1">
                    <mxGeometry x="107" y="487" width="524" height="60" as="geometry"/>
                </mxCell>
                <mxCell id="42" value="" style="endArrow=classic;startArrow=classic;html=1;" edge="1" parent="1" source="40" target="35">
                    <mxGeometry width="50" height="50" relative="1" as="geometry">
                        <mxPoint x="344" y="409" as="sourcePoint"/>
                        <mxPoint x="394" y="359" as="targetPoint"/>
                    </mxGeometry>
                </mxCell>
                <mxCell id="43" value="" style="endArrow=classic;startArrow=classic;html=1;" edge="1" parent="1" source="40" target="32">
                    <mxGeometry width="50" height="50" relative="1" as="geometry">
                        <mxPoint x="-30" y="524" as="sourcePoint"/>
                        <mxPoint x="20" y="474" as="targetPoint"/>
                    </mxGeometry>
                </mxCell>
                <mxCell id="44" value="" style="endArrow=classic;startArrow=classic;html=1;" edge="1" parent="1" source="40" target="34">
                    <mxGeometry width="50" height="50" relative="1" as="geometry">
                        <mxPoint x="344" y="409" as="sourcePoint"/>
                        <mxPoint x="394" y="359" as="targetPoint"/>
                    </mxGeometry>
                </mxCell>
                <mxCell id="45" value="" style="endArrow=classic;startArrow=classic;html=1;" edge="1" parent="1" source="40" target="36">
                    <mxGeometry width="50" height="50" relative="1" as="geometry">
                        <mxPoint x="344" y="409" as="sourcePoint"/>
                        <mxPoint x="394" y="359" as="targetPoint"/>
                    </mxGeometry>
                </mxCell>
                <mxCell id="46" value="" style="endArrow=classic;startArrow=classic;html=1;" edge="1" parent="1" source="39" target="40">
                    <mxGeometry width="50" height="50" relative="1" as="geometry">
                        <mxPoint x="344" y="409" as="sourcePoint"/>
                        <mxPoint x="394" y="359" as="targetPoint"/>
                    </mxGeometry>
                </mxCell>
                <mxCell id="47" value="" style="endArrow=classic;startArrow=classic;html=1;dashed=1;dashPattern=1 1;strokeColor=#999999;" edge="1" parent="1" source="37" target="40">
                    <mxGeometry width="50" height="50" relative="1" as="geometry">
                        <mxPoint x="344" y="409" as="sourcePoint"/>
                        <mxPoint x="336" y="540" as="targetPoint"/>
                    </mxGeometry>
                </mxCell>
            </root>
        </mxGraphModel>
    </diagram>
</mxfile>